<svg width="286" height="144" viewBox="0 0 286 144" fill="none" xmlns="http://www.w3.org/2000/svg">
<path d="M10.7139 58.8592C10.9328 58.4431 11.6094 58.1861 12.7437 58.0881C13.878 57.9901 15.2621 57.9418 16.8958 57.943C18.5296 57.9443 20.3311 57.9469 22.3005 57.951C24.2698 57.9551 26.1924 57.8734 28.0682 57.7057C29.944 57.538 31.6911 57.2363 33.3096 56.8005C34.9723 56.3777 36.2983 55.7114 37.2876 54.8016C37.4832 54.1384 37.191 53.4995 36.411 52.885C35.6752 52.2835 34.6104 51.657 33.2165 51.0055C31.8798 50.3229 30.3025 49.6414 28.4846 48.961C26.7239 48.2495 24.91 47.4741 23.0427 46.635C21.2327 45.7647 19.4579 44.8568 17.7182 43.9111C16.0358 42.9342 14.5759 41.8548 13.3384 40.6728C12.1583 39.4596 11.3021 38.1256 10.7699 36.671C10.2819 35.2294 10.2922 33.6464 10.8009 31.922C11.3095 30.1975 12.1874 28.6061 13.4346 27.1476C14.6949 25.6449 16.1788 24.2802 17.8863 23.0536C19.6381 21.84 21.512 20.7827 23.508 19.8815C25.5483 18.9933 27.6027 18.3016 29.6713 17.8063C31.7399 17.311 33.7211 17.0302 35.6151 16.964C37.5532 16.9109 39.274 17.106 40.7773 17.5494C41.1753 17.6668 41.5953 17.7907 42.0375 17.9211C42.4927 18.0073 42.862 18.1402 43.1454 18.32C43.4861 18.4685 43.7278 18.708 43.8707 19.0385C44.0135 19.369 44.0067 19.7996 43.8502 20.3302C43.472 21.6124 42.7781 22.417 41.7684 22.7441C40.7718 23.0269 39.6766 22.9922 38.4828 22.6401L36.4439 20.0201C35.427 19.7202 34.2147 19.675 32.8071 19.8847C31.4438 20.1074 29.9775 20.516 28.4083 21.1105C26.8964 21.6739 25.361 22.3985 23.802 23.2845C22.243 24.1704 20.8036 25.1397 19.4839 26.1923C18.2083 27.2579 17.0875 28.3692 16.1215 29.5261C15.1996 30.6961 14.5822 31.8117 14.2692 32.8729C13.8128 34.4204 13.8612 35.8044 14.4144 37.025C15.0248 38.2143 15.9527 39.3051 17.1981 40.2972C18.5007 41.2581 20.0414 42.1451 21.8202 42.9582C23.599 43.7712 25.413 44.5465 27.2621 45.2842C29.1112 46.0218 30.9382 46.7529 32.7431 47.4775C34.561 48.1579 36.1188 48.9057 37.4163 49.721C38.7581 50.5493 39.7512 51.419 40.3956 52.33C41.0843 53.254 41.2592 54.2909 40.9201 55.4405C41.1978 56.2914 40.846 57.0768 39.8647 57.7967C38.9406 58.4853 37.6121 59.0788 35.8791 59.5769C34.2034 60.0439 32.2337 60.4483 29.9701 60.7899C27.7638 61.1004 25.5107 61.325 23.2109 61.4638C20.9241 61.5583 18.7297 61.5839 16.6277 61.5407C14.5388 61.4532 12.7894 61.2737 11.3796 61.0021C10.9816 60.8847 10.667 60.6477 10.4358 60.2911C10.2487 59.9476 10.3415 59.4703 10.7139 58.8592ZM41.6895 69.9419C42.5371 67.0679 43.3641 64.0195 44.1705 60.7969C45.021 57.5873 45.856 54.349 46.6753 51.0822C47.552 47.7841 48.4754 44.572 49.4455 41.4457C50.4157 38.3194 51.4819 35.4377 52.6442 32.8007C52.7456 32.7826 52.9511 32.8192 53.2606 32.9104C53.6274 32.9706 53.8771 33.0202 54.0098 33.0593C54.6288 33.2419 55.0825 33.4959 55.3711 33.8213C55.7168 34.1155 55.7919 34.5943 55.5963 35.2575C54.8269 37.8662 53.9636 40.7116 53.0065 43.7937C52.1066 46.8445 51.1651 49.9552 50.1819 53.1257C49.256 56.265 48.3366 59.3822 47.4237 62.4773C46.5108 65.5724 45.7269 68.3932 45.072 70.9396C44.8945 71.7043 44.5963 72.145 44.1773 72.2617C43.7896 72.4357 43.3525 72.451 42.8661 72.3076C42.3355 72.1511 41.9325 71.888 41.657 71.5184C41.3685 71.193 41.3793 70.6675 41.6895 69.9419ZM54.2367 22.0239C54.3932 21.4933 54.6744 21.1917 55.0803 21.1192C55.4862 21.0467 55.9102 21.0756 56.3524 21.206C57.2367 21.4668 57.7046 21.9173 57.7561 22.5573C57.8077 23.1973 57.7226 23.8931 57.5009 24.6448C57.0922 25.0529 56.6562 25.3088 56.1931 25.4125C55.743 25.472 55.3099 25.3923 54.8938 25.1735C54.535 24.9235 54.266 24.5317 54.0869 23.9983C53.952 23.4779 54.002 22.8198 54.2367 22.0239ZM67.3617 65.7627C66.6196 66.6492 65.6992 67.6514 64.6005 68.7692C63.5461 69.9001 62.3785 70.9255 61.0979 71.8454C59.8614 72.7784 58.5224 73.4889 57.0808 73.9769C55.6392 74.4649 54.1888 74.4937 52.7297 74.0633C52.0665 73.8677 51.5555 73.6449 51.1966 73.3949C50.8951 73.1137 50.6352 72.7727 50.417 72.3719C50.243 71.9841 50.0885 71.53 49.9536 71.0096C49.863 70.5023 49.719 69.9311 49.5218 69.2962C50.0282 67.0905 50.6244 64.7431 51.3105 62.254C52.0539 59.7337 52.9233 57.2746 53.9189 54.8768C54.9276 52.4347 56.0675 50.1996 57.3386 48.1714C58.6539 46.1562 60.1145 44.5444 61.7206 43.3359C63.3709 42.1405 65.1781 41.472 67.1424 41.3304C69.1066 41.1888 71.2641 41.7771 73.6149 43.0953C74.1127 41.8964 74.6238 40.2448 75.1483 38.1406C75.6729 36.0364 76.1858 33.8086 76.687 31.4572C77.1883 29.1058 77.6635 26.8429 78.1127 24.6683C78.5748 22.4496 78.9859 20.6484 79.346 19.2646C79.4634 18.8667 79.725 18.6315 80.1309 18.5589C80.594 18.4552 81.0532 18.4465 81.5084 18.5327C81.9636 18.6189 82.3837 18.7428 82.7686 18.9043C83.1977 19.079 83.4655 19.2301 83.5721 19.3576C81.8796 24.7701 80.2795 30.1136 78.7717 35.3884C77.2771 40.6188 75.7824 45.8493 74.2878 51.0798C72.8504 56.2792 71.4195 61.4564 69.9951 66.6115C68.5708 71.7666 67.1022 76.9086 65.5894 82.0377C65.4459 82.524 65.2517 83.0195 65.0068 83.524C64.7931 84.0857 64.3325 84.2623 63.625 84.0536C63.3597 83.9754 63.1205 83.8087 62.9074 83.5536C62.6812 83.3427 62.5695 83.0695 62.5724 82.7339L67.3617 65.7627ZM70.1828 45.6877C68.8382 45.195 67.3929 45.3695 65.847 46.2112C64.3583 47.0217 62.8979 48.2251 61.4659 49.8213C60.0781 51.4306 58.7863 53.2845 57.5906 55.383C56.4079 57.4373 55.4438 59.4839 54.6982 61.5229C54.0099 63.5308 53.6078 65.3827 53.4921 67.0788C53.4205 68.788 53.7864 70.0734 54.5896 70.9351C55.5623 71.222 56.5796 71.1135 57.6414 70.6097C58.7162 70.0616 59.7834 69.2949 60.843 68.3098C61.9026 67.3246 62.9128 66.1807 63.8738 64.8781C64.8478 63.5313 65.7138 62.2247 66.4718 60.9583C67.274 59.705 67.9266 58.5517 68.4295 57.4985C68.9896 56.4141 69.3545 55.5845 69.524 55.0097C69.6544 54.5675 69.8852 53.8666 70.2163 52.9069C70.5474 51.9472 70.8122 50.9679 71.0107 49.9691C71.2092 48.9703 71.2645 48.0494 71.1767 47.2064C71.1331 46.3765 70.8018 45.8703 70.1828 45.6877ZM76.8946 66.1953C76.6605 66.1743 76.3093 66.1428 75.8411 66.1008C75.3729 66.0589 74.9021 65.944 74.4287 65.7564C73.9554 65.5687 73.5745 65.3121 73.286 64.9867C72.9532 64.6483 72.8651 64.2138 73.0216 63.6832C73.1129 63.3737 73.2444 63.1722 73.4162 63.0786C73.588 62.9851 73.8677 62.8513 74.2555 62.6773C75.463 62.1684 76.5809 61.3927 77.6093 60.3503C78.695 59.2767 79.7339 58.1172 80.726 56.8718C81.7311 55.5822 82.7519 54.3213 83.7882 53.089C84.8818 51.8255 86.0182 50.7428 87.1974 49.841C88.3766 48.9392 89.6895 48.3171 91.1362 47.9748C92.5829 47.6325 94.2062 47.7508 96.006 48.3297C96.7576 48.5514 97.5456 48.9761 98.3698 49.6037C99.194 50.2313 99.9127 50.9719 100.526 51.8257C101.152 52.6352 101.607 53.5383 101.89 54.5349C102.173 55.5315 102.164 56.5383 101.864 57.5552C101.981 57.9742 101.61 58.4175 100.751 58.8851C99.9362 59.3657 98.8588 59.841 97.5187 60.3108C96.1916 60.7365 94.6967 61.1607 93.034 61.5834C91.4286 61.975 89.8804 62.3355 88.3895 62.6647C86.8986 62.994 85.5885 63.2804 84.4593 63.5241C83.33 63.7678 82.5715 63.9766 82.1838 64.1506C81.8323 64.5276 81.5054 64.9839 81.2033 65.5196C80.9011 66.0553 80.6275 66.5754 80.3826 67.0799C80.1949 67.5532 80.0138 68.0044 79.8391 68.4335C79.7218 68.8315 79.6305 69.141 79.5653 69.3621C79.3175 70.2022 78.9994 71.1177 78.611 72.1085C78.2669 73.1125 78.0242 74.0982 77.8829 75.0659C77.799 76.0024 77.9531 76.8649 78.3453 77.6535C78.7506 78.3978 79.6386 78.9721 81.0093 79.3764C82.4684 79.8068 83.9434 79.8573 85.4343 79.5281C86.9383 79.1546 88.3994 78.6003 89.8178 77.8651C91.2362 77.13 92.5701 76.2738 93.8196 75.2966C95.1133 74.3324 96.2704 73.4241 97.2908 72.5716C98.3685 71.6879 99.2991 70.9771 100.083 70.4392C100.866 69.9012 101.457 69.691 101.855 69.8083C102.297 69.9388 102.735 70.1641 103.169 70.4844C103.661 70.7736 103.822 71.2056 103.652 71.7804C103.417 72.5762 102.805 73.4291 101.816 74.3388C100.871 75.2617 99.6853 76.1856 98.259 77.1106C96.8769 78.0487 95.3179 78.9347 93.5821 79.7684C91.9035 80.571 90.2354 81.2565 88.5778 81.825C86.9332 82.3492 85.3564 82.7252 83.8474 82.953C82.3514 83.1366 81.0949 83.0784 80.0779 82.7784C78.0882 82.1916 76.7283 81.2618 75.9983 79.9891C75.2682 78.7164 74.8973 77.2853 74.8855 75.6958C74.9179 74.1193 75.1533 72.5065 75.5916 70.8575C76.0872 69.1773 76.5215 67.6232 76.8946 66.1953ZM94.3799 51.8873C93.6282 51.6656 92.7215 51.8067 91.6597 52.3106C90.6109 52.7703 89.5542 53.4198 88.4896 54.2593C87.4822 55.0676 86.5723 55.9527 85.7599 56.9147C85.0047 57.8454 84.5228 58.6646 84.3142 59.372C84.9774 59.5676 85.9998 59.6048 87.3812 59.4836C88.82 59.3312 90.2692 59.0618 91.729 58.6753C93.1887 58.2887 94.5068 57.8124 95.6831 57.2461C96.8594 56.6799 97.5584 56.021 97.7801 55.2693C97.8975 54.8714 97.8405 54.4941 97.6093 54.1375C97.378 53.7809 97.0674 53.449 96.6774 53.1417C96.3316 52.8475 95.9507 52.591 95.5346 52.3721C95.1185 52.1533 94.7336 51.9917 94.3799 51.8873ZM159.358 81.1454C158.767 81.3557 157.748 81.632 156.301 81.9743C154.912 82.2854 153.415 82.6368 151.809 83.0284C150.204 83.42 148.671 83.809 147.211 84.1955C145.765 84.5378 144.746 84.8141 144.155 85.0244C142.961 85.4891 142.043 86.1557 141.403 87.0241C140.762 87.8925 140.272 88.9016 139.933 90.0512C139.607 91.1566 139.372 92.3609 139.228 93.6641C139.097 94.9232 138.893 96.1847 138.616 97.4489C138.434 98.0679 138.065 98.584 137.511 98.9972C136.956 99.4104 136.37 99.5257 135.751 99.3432C135.485 99.2649 135.217 99.1138 134.947 98.8899C134.69 98.6217 134.607 98.3329 134.698 98.0234L145.712 55.0601C145.79 54.7948 145.983 54.4671 146.29 54.0771C146.642 53.7002 146.89 53.5092 147.036 53.5041C147.168 53.5432 147.339 53.6175 147.547 53.7269C147.799 53.8494 148.038 54.016 148.264 54.2269C148.504 54.3936 148.714 54.5759 148.896 54.7737C149.135 54.9404 149.286 55.081 149.349 55.1955C149.004 57.0163 148.514 59.0828 147.88 61.3951C147.247 63.7074 146.606 66.0417 145.959 68.3982C145.356 70.7677 144.795 73.0774 144.276 75.3273C143.814 77.5461 143.56 79.4658 143.514 81.0865C145.65 80.8514 147.663 80.6279 149.552 80.416C151.441 80.2041 153.141 79.8165 154.653 79.2531C156.165 78.6898 157.47 77.8492 158.569 76.7314C159.681 75.5693 160.514 73.9648 161.07 71.9179C161.396 70.8125 161.661 69.8332 161.864 68.9801C162.068 68.1269 162.221 67.2829 162.323 66.4479C162.438 65.5686 162.5 64.6256 162.508 63.6189C162.574 62.5809 162.613 61.3908 162.624 60.0484C162.771 59.2264 163.053 58.7571 163.472 58.6403C163.891 58.5236 164.344 58.5369 164.83 58.6804C165.405 58.8499 165.808 59.113 166.039 59.4696C166.27 59.8261 166.409 60.2516 166.456 60.7459C166.546 61.2533 166.536 61.7788 166.423 62.3224C166.324 62.8218 166.231 63.2991 166.145 63.7543C166.025 64.4879 165.823 65.5816 165.538 67.0357C165.253 68.4897 164.91 70.1427 164.508 71.9947C164.163 73.8154 163.786 75.7468 163.376 77.7886C163.01 79.8436 162.655 81.7814 162.31 83.6022C161.965 85.423 161.628 87.0539 161.299 88.4949C161.015 89.9489 160.812 91.0427 160.692 91.7762C160.329 93.4955 160.017 95.2058 159.755 96.907C159.494 98.6082 159.109 100.321 158.6 102.045L158.287 103.107C158.183 103.46 158.034 103.801 157.842 104.129C157.706 104.425 157.467 104.667 157.123 104.854C156.837 105.01 156.409 105.076 155.839 105.052C155.213 104.242 154.937 103.464 155.013 102.718C155.089 101.971 155.207 101.165 155.367 100.299C155.466 99.7992 155.637 99.0566 155.879 98.0708C156.135 97.0408 156.373 95.9093 156.592 94.6764C156.869 93.4122 157.137 92.0974 157.395 90.7318C157.711 89.335 157.979 88.0202 158.198 86.7872C158.475 85.5231 158.713 84.3916 158.911 83.3928C159.109 82.394 159.258 81.6448 159.358 81.1454ZM180.658 104.009C180.325 104.488 179.667 105.087 178.686 105.807C177.762 106.496 176.699 107.167 175.496 107.822C174.307 108.432 173.1 108.941 171.874 109.349C170.706 109.725 169.746 109.802 168.994 109.581C167.579 109.163 166.603 108.155 166.066 106.554C165.573 104.967 165.389 103.063 165.516 100.841C165.642 98.6194 165.989 96.2223 166.556 93.6499C167.135 91.0332 167.761 88.5024 168.434 86.0575C169.107 83.6126 169.737 81.3953 170.324 79.4056C170.911 77.4159 171.288 75.893 171.456 74.8369C171.763 74.4469 172.062 74.2468 172.353 74.2366C172.689 74.2395 173.056 74.2996 173.454 74.417C173.808 74.5213 174.104 74.6568 174.343 74.8235C174.627 75.0032 174.814 75.3468 174.904 75.8541C174.761 76.3405 174.52 77.1585 174.181 78.3081C173.886 79.4707 173.567 80.7947 173.225 82.2799C172.896 83.7209 172.541 85.2503 172.16 86.8681C171.792 88.4418 171.422 89.9425 171.049 91.3705C170.72 92.8115 170.408 94.1133 170.113 95.2759C169.876 96.4074 169.701 97.245 169.588 97.7886C169.541 98.1111 169.435 98.6327 169.271 99.3532C169.151 100.087 169.04 100.871 168.938 101.706C168.893 102.51 168.89 103.254 168.928 103.938C169.011 104.635 169.245 105.065 169.629 105.226C170.293 105.422 171.041 105.33 171.873 104.951C172.75 104.585 173.651 104.057 174.575 103.369C175.499 102.68 176.405 101.89 177.293 100.998C178.181 100.107 178.989 99.2396 179.718 98.3973C180.504 97.5238 181.126 96.7217 181.581 95.991C182.081 95.2734 182.406 94.7442 182.554 94.4035C182.864 93.6779 183.266 92.6429 183.758 91.2982C184.264 89.9094 184.774 88.4257 185.288 86.8469C185.801 85.2682 186.267 83.7714 186.684 82.3565C187.146 80.9546 187.487 79.8779 187.709 79.1262L191.298 80.4011C190.286 83.9956 189.305 87.2389 188.356 90.1311C187.42 92.979 186.596 95.6918 185.884 98.2693C185.185 100.803 184.66 103.315 184.309 105.807C183.959 108.299 183.87 110.964 184.042 113.803C183.87 113.896 183.553 113.995 183.089 114.099C182.613 114.247 182.287 114.294 182.11 114.242C181.004 113.916 180.364 113.319 180.187 112.45C180.042 111.638 180.047 110.726 180.201 109.714C180.413 108.671 180.618 107.65 180.816 106.651C181.072 105.621 181.019 104.741 180.658 104.009ZM193.406 115.051C193.393 115.095 193.936 114.967 195.034 114.666C196.176 114.378 197.525 113.959 199.081 113.408C200.695 112.827 202.35 112.186 204.047 111.485C205.756 110.739 207.203 109.988 208.388 109.232C209.572 108.476 210.29 107.751 210.543 107.057C210.853 106.331 210.4 105.669 209.183 105.069C207.656 104.379 206.301 104.003 205.118 103.942C203.978 103.895 202.914 103.917 201.926 104.01C200.937 104.103 199.999 104.187 199.112 104.262C198.269 104.349 197.396 104.212 196.494 103.85C194.548 103.276 193.376 102.281 192.976 100.866C192.634 99.4191 192.769 97.6567 193.382 95.5786C193.995 93.5004 195.04 91.6698 196.516 90.0866C198.005 88.4592 199.682 87.1753 201.545 86.235C203.408 85.2947 205.408 84.707 207.544 84.4718C209.693 84.1925 211.763 84.3463 213.752 84.9332C214.548 85.1679 215.214 85.4364 215.75 85.7385C216.285 86.0407 216.423 86.634 216.162 87.5183C215.979 88.1373 215.538 88.656 214.838 89.0743C214.151 89.4484 213.476 89.5376 212.812 89.342C212.768 89.329 212.664 89.2742 212.5 89.1779C212.35 89.0373 212.205 88.8746 212.068 88.6897C211.93 88.5049 211.779 88.3643 211.615 88.268C211.464 88.1274 211.367 88.0505 211.323 88.0375C210.025 87.2222 208.596 87.0169 207.035 87.4216C205.473 87.8262 203.96 88.5574 202.495 89.6151C201.086 90.6416 199.838 91.8595 198.749 93.2686C197.674 94.6336 196.954 95.9351 196.589 97.1732C196.445 97.6595 196.416 98.0835 196.502 98.4452C196.645 98.7757 196.851 99.0529 197.122 99.2769C197.436 99.5139 197.786 99.7131 198.171 99.8747C198.613 100.005 199.055 100.136 199.497 100.266C200.382 100.527 201.305 100.655 202.268 100.651C203.274 100.659 204.25 100.61 205.194 100.504C206.183 100.412 207.159 100.363 208.121 100.358C209.128 100.367 210.118 100.515 211.09 100.802C211.533 100.932 211.98 101.208 212.432 101.63C212.898 102.008 213.28 102.505 213.578 103.121C213.89 103.694 214.109 104.335 214.236 105.046C214.376 105.712 214.364 106.405 214.2 107.126C214.282 107.823 213.953 108.615 213.211 109.501C212.513 110.401 211.574 111.302 210.395 112.204C209.216 113.105 207.853 113.977 206.307 114.819C204.774 115.616 203.268 116.325 201.787 116.946C200.319 117.522 198.926 117.928 197.607 118.164C196.274 118.444 195.217 118.445 194.434 118.166C193.55 117.905 193.097 117.483 193.077 116.9C193.101 116.331 193.211 115.714 193.406 115.051ZM222.888 94.0441C222.381 94.1348 221.889 94.2541 221.413 94.402C220.994 94.5187 220.575 94.6355 220.156 94.7522C219.75 94.8248 219.357 94.8531 218.978 94.8372C218.598 94.8213 218.222 94.7104 217.85 94.5046C217.585 94.4264 217.409 94.2064 217.324 93.8448C217.251 93.4389 217.229 93.0239 217.258 92.5999C217.256 92.1186 217.292 91.6725 217.365 91.2615C217.451 90.8063 217.549 90.4747 217.658 90.2666L225.101 88.4968L230.507 71.6353C230.765 71.0866 231.184 70.9699 231.764 71.2851C232.357 71.5561 232.959 71.8778 233.57 72.2503C233.658 72.2764 233.778 72.3597 233.929 72.5003C234.137 72.6098 234.278 72.6996 234.354 72.7699C233.913 73.9377 233.418 75.2094 232.868 76.5852C232.375 77.9298 231.876 79.2965 231.37 80.6853C230.878 82.0299 230.414 83.359 229.978 84.6724C229.587 85.9989 229.301 87.2122 229.121 88.3125L239.891 88.4613C240.081 88.4692 240.174 88.641 240.171 88.9766C240.226 89.281 240.239 89.6452 240.21 90.0692C240.225 90.5063 240.196 90.9303 240.123 91.3413C240.05 91.7523 240.013 91.9578 240.013 91.9578L227.33 93.4075C227.212 93.8055 226.954 94.7626 226.555 96.279C226.2 97.8084 225.76 99.6252 225.235 101.729C224.724 103.789 224.16 106.026 223.545 108.44C222.942 110.81 222.385 113.024 221.873 115.084C221.362 117.144 220.9 118.955 220.488 120.515C220.089 122.032 219.83 122.989 219.713 123.387C219.233 124.687 218.64 125.233 217.932 125.024C217.269 124.829 216.637 124.282 216.037 123.384L222.888 94.0441ZM233.374 124.244C234.283 122.301 235.232 119.818 236.221 116.793C237.253 113.781 238.256 110.544 239.229 107.082C240.246 103.634 241.23 100.055 242.179 96.3456C243.129 92.6366 243.976 89.1135 244.72 85.7763C245.477 82.3949 246.085 79.3542 246.545 76.6542C247.05 73.9672 247.369 71.8264 247.502 70.2318C247.979 70.0839 248.369 69.9827 248.673 69.9283C249.035 69.8427 249.415 69.8586 249.813 69.976C250.122 70.0673 250.368 70.2119 250.55 70.4097C250.745 70.5634 250.857 70.8366 250.885 71.2295C249.213 80.1566 247.234 89.0652 244.949 97.9554C242.707 106.859 240.39 115.692 237.998 124.454C237.881 124.852 237.718 125.405 237.509 126.112C237.313 126.776 237.187 127.123 237.13 127.154C236.419 127.281 235.821 127.273 235.335 127.129C234.861 126.942 234.458 126.678 234.126 126.34C233.806 125.957 233.581 125.579 233.451 125.204C233.322 124.829 233.296 124.509 233.374 124.244ZM246.484 116.215C246.25 116.194 245.899 116.163 245.43 116.121C244.962 116.079 244.491 115.964 244.018 115.776C243.545 115.589 243.164 115.332 242.875 115.007C242.543 114.668 242.454 114.234 242.611 113.703C242.702 113.394 242.834 113.192 243.006 113.099C243.177 113.005 243.457 112.871 243.845 112.697C245.052 112.188 246.17 111.413 247.199 110.37C248.284 109.297 249.323 108.137 250.315 106.892C251.32 105.602 252.341 104.341 253.378 103.109C254.471 101.845 255.608 100.763 256.787 99.861C257.966 98.9591 259.279 98.3371 260.726 97.9948C262.172 97.6525 263.795 97.7708 265.595 98.3497C266.347 98.5714 267.135 98.9961 267.959 99.6237C268.783 100.251 269.502 100.992 270.115 101.846C270.742 102.655 271.196 103.558 271.479 104.555C271.762 105.552 271.753 106.558 271.453 107.575C271.57 107.994 271.199 108.437 270.34 108.905C269.526 109.386 268.448 109.861 267.108 110.331C265.781 110.756 264.286 111.181 262.623 111.603C261.018 111.995 259.47 112.355 257.979 112.685C256.488 113.014 255.178 113.3 254.049 113.544C252.919 113.788 252.161 113.997 251.773 114.171C251.422 114.548 251.095 115.004 250.793 115.54C250.49 116.075 250.217 116.595 249.972 117.1C249.784 117.573 249.603 118.024 249.428 118.454C249.311 118.851 249.22 119.161 249.155 119.382C248.907 120.222 248.589 121.138 248.2 122.129C247.856 123.132 247.613 124.118 247.472 125.086C247.388 126.022 247.542 126.885 247.935 127.673C248.34 128.418 249.228 128.992 250.599 129.396C252.058 129.827 253.533 129.877 255.024 129.548C256.528 129.175 257.989 128.62 259.407 127.885C260.826 127.15 262.159 126.294 263.409 125.317C264.703 124.352 265.86 123.444 266.88 122.592C267.958 121.708 268.888 120.997 269.672 120.459C270.455 119.921 271.046 119.711 271.444 119.828C271.886 119.959 272.324 120.184 272.759 120.504C273.25 120.794 273.411 121.226 273.241 121.8C273.007 122.596 272.395 123.449 271.405 124.359C270.46 125.282 269.275 126.206 267.848 127.131C266.466 128.069 264.907 128.955 263.171 129.788C261.493 130.591 259.825 131.277 258.167 131.845C256.523 132.369 254.946 132.745 253.437 132.973C251.941 133.157 250.684 133.098 249.667 132.798C247.678 132.212 246.318 131.282 245.588 130.009C244.858 128.736 244.487 127.305 244.475 125.716C244.507 124.139 244.743 122.527 245.181 120.878C245.677 119.197 246.111 117.643 246.484 116.215ZM263.969 101.907C263.218 101.686 262.311 101.827 261.249 102.331C260.2 102.79 259.144 103.44 258.079 104.279C257.071 105.088 256.162 105.973 255.349 106.935C254.594 107.865 254.112 108.685 253.903 109.392C254.567 109.588 255.589 109.625 256.971 109.504C258.409 109.351 259.859 109.082 261.318 108.695C262.778 108.309 264.096 107.832 265.272 107.266C266.449 106.7 267.148 106.041 267.369 105.289C267.487 104.891 267.43 104.514 267.199 104.158C266.967 103.801 266.657 103.469 266.267 103.162C265.921 102.867 265.54 102.611 265.124 102.392C264.708 102.173 264.323 102.012 263.969 101.907Z" fill="white"/>
</svg>
