<svg width="581" height="411" viewBox="0 0 581 411" fill="none" xmlns="http://www.w3.org/2000/svg">
<path d="M174.119 262.121C174.338 261.705 175.015 261.448 176.149 261.35C177.283 261.252 178.667 261.203 180.301 261.205C181.935 261.206 183.736 261.209 185.706 261.213C187.675 261.217 189.598 261.135 191.473 260.967C193.349 260.8 195.096 260.498 196.715 260.062C198.378 259.639 199.704 258.973 200.693 258.063C200.888 257.4 200.596 256.761 199.816 256.147C199.081 255.545 198.016 254.919 196.622 254.267C195.285 253.585 193.708 252.903 191.89 252.223C190.129 251.511 188.315 250.736 186.448 249.897C184.638 249.026 182.863 248.118 181.123 247.173C179.441 246.196 177.981 245.117 176.744 243.934C175.564 242.721 174.707 241.387 174.175 239.933C173.687 238.491 173.698 236.908 174.206 235.184C174.715 233.459 175.593 231.868 176.84 230.409C178.1 228.907 179.584 227.542 181.292 226.315C183.043 225.102 184.917 224.044 186.913 223.143C188.954 222.255 191.008 221.563 193.077 221.068C195.145 220.573 197.126 220.292 199.02 220.226C200.959 220.173 202.679 220.368 204.183 220.811C204.581 220.928 205.001 221.052 205.443 221.183C205.898 221.269 206.267 221.402 206.551 221.582C206.891 221.73 207.133 221.97 207.276 222.3C207.419 222.631 207.412 223.061 207.255 223.592C206.877 224.874 206.183 225.679 205.174 226.006C204.177 226.289 203.082 226.254 201.888 225.902L199.849 223.282C198.832 222.982 197.62 222.937 196.212 223.146C194.849 223.369 193.383 223.778 191.814 224.372C190.302 224.936 188.766 225.66 187.207 226.546C185.648 227.432 184.209 228.401 182.889 229.454C181.614 230.52 180.493 231.631 179.527 232.788C178.605 233.958 177.988 235.073 177.675 236.135C177.218 237.682 177.266 239.066 177.82 240.287C178.43 241.476 179.358 242.567 180.603 243.559C181.906 244.52 183.447 245.407 185.225 246.22C187.004 247.033 188.818 247.808 190.667 248.546C192.516 249.284 194.343 250.015 196.148 250.739C197.966 251.42 199.524 252.167 200.822 252.983C202.163 253.811 203.156 254.681 203.801 255.592C204.49 256.516 204.664 257.553 204.325 258.702C204.603 259.553 204.251 260.339 203.27 261.058C202.346 261.747 201.017 262.34 199.284 262.839C197.609 263.306 195.639 263.71 193.375 264.052C191.169 264.362 188.916 264.587 186.616 264.725C184.329 264.82 182.135 264.846 180.033 264.802C177.944 264.715 176.195 264.535 174.785 264.264C174.387 264.146 174.072 263.909 173.841 263.553C173.654 263.209 173.747 262.732 174.119 262.121ZM205.095 273.204C205.942 270.33 206.769 267.281 207.576 264.059C208.426 260.849 209.261 257.611 210.081 254.344C210.957 251.046 211.881 247.834 212.851 244.707C213.821 241.581 214.887 238.699 216.049 236.062C216.151 236.044 216.356 236.081 216.666 236.172C217.033 236.232 217.282 236.282 217.415 236.321C218.034 236.504 218.488 236.758 218.776 237.083C219.122 237.377 219.197 237.856 219.002 238.519C218.232 241.128 217.369 243.973 216.412 247.055C215.512 250.106 214.57 253.217 213.587 256.387C212.661 259.527 211.742 262.644 210.829 265.739C209.916 268.834 209.132 271.655 208.477 274.201C208.3 274.966 208.002 275.407 207.583 275.523C207.195 275.697 206.758 275.713 206.271 275.569C205.741 275.413 205.338 275.15 205.062 274.78C204.774 274.455 204.785 273.929 205.095 273.204ZM217.642 225.286C217.798 224.755 218.08 224.453 218.486 224.381C218.891 224.308 219.315 224.337 219.758 224.468C220.642 224.729 221.11 225.179 221.161 225.819C221.213 226.459 221.128 227.155 220.906 227.907C220.497 228.315 220.061 228.571 219.598 228.674C219.148 228.734 218.715 228.654 218.299 228.435C217.94 228.185 217.671 227.793 217.492 227.26C217.357 226.74 217.407 226.081 217.642 225.286ZM230.767 269.024C230.025 269.911 229.105 270.913 228.006 272.031C226.951 273.162 225.784 274.187 224.503 275.107C223.267 276.04 221.928 276.751 220.486 277.239C219.044 277.727 217.594 277.755 216.135 277.325C215.472 277.129 214.961 276.907 214.602 276.657C214.3 276.375 214.04 276.034 213.822 275.634C213.648 275.246 213.494 274.792 213.359 274.271C213.268 273.764 213.124 273.193 212.927 272.558C213.433 270.352 214.03 268.005 214.716 265.516C215.459 262.995 216.329 260.536 217.324 258.139C218.333 255.696 219.473 253.461 220.744 251.433C222.059 249.418 223.52 247.806 225.126 246.598C226.776 245.402 228.583 244.734 230.548 244.592C232.512 244.451 234.669 245.039 237.02 246.357C237.518 245.158 238.029 243.507 238.554 241.402C239.078 239.298 239.591 237.07 240.092 234.719C240.594 232.368 241.069 230.105 241.518 227.93C241.98 225.711 242.391 223.91 242.751 222.526C242.869 222.128 243.13 221.893 243.536 221.821C243.999 221.717 244.458 221.708 244.914 221.794C245.369 221.881 245.789 222.004 246.174 222.166C246.603 222.341 246.871 222.492 246.977 222.619C245.285 228.032 243.685 233.375 242.177 238.65C240.682 243.881 239.188 249.111 237.693 254.342C236.256 259.541 234.825 264.718 233.4 269.873C231.976 275.028 230.507 280.17 228.995 285.299C228.851 285.786 228.657 286.281 228.412 286.786C228.198 287.347 227.738 287.524 227.03 287.315C226.765 287.237 226.526 287.07 226.313 286.815C226.086 286.604 225.975 286.331 225.978 285.996L230.767 269.024ZM233.588 248.949C232.243 248.457 230.798 248.631 229.252 249.473C227.764 250.283 226.303 251.487 224.871 253.083C223.483 254.692 222.192 256.546 220.996 258.645C219.813 260.699 218.849 262.746 218.104 264.785C217.415 266.792 217.013 268.644 216.897 270.341C216.826 272.05 217.192 273.335 217.995 274.197C218.968 274.484 219.985 274.375 221.047 273.871C222.122 273.323 223.189 272.557 224.248 271.571C225.308 270.586 226.318 269.442 227.279 268.14C228.253 266.793 229.119 265.486 229.877 264.22C230.679 262.967 231.332 261.813 231.835 260.76C232.395 259.676 232.76 258.846 232.929 258.271C233.06 257.829 233.29 257.128 233.622 256.169C233.953 255.209 234.218 254.23 234.416 253.231C234.614 252.232 234.67 251.311 234.582 250.468C234.538 249.638 234.207 249.132 233.588 248.949ZM240.3 269.457C240.066 269.436 239.715 269.405 239.246 269.363C238.778 269.321 238.307 269.206 237.834 269.018C237.361 268.83 236.98 268.574 236.691 268.248C236.359 267.91 236.27 267.475 236.427 266.945C236.518 266.635 236.65 266.434 236.821 266.34C236.993 266.247 237.273 266.113 237.661 265.939C238.868 265.43 239.986 264.654 241.015 263.612C242.1 262.538 243.139 261.379 244.131 260.134C245.136 258.844 246.157 257.583 247.194 256.351C248.287 255.087 249.424 254.005 250.603 253.103C251.782 252.201 253.095 251.579 254.541 251.237C255.988 250.894 257.611 251.013 259.411 251.591C260.163 251.813 260.951 252.238 261.775 252.865C262.599 253.493 263.318 254.234 263.931 255.087C264.558 255.897 265.012 256.8 265.295 257.797C265.578 258.793 265.569 259.8 265.269 260.817C265.386 261.236 265.015 261.679 264.156 262.147C263.341 262.627 262.264 263.103 260.924 263.573C259.597 263.998 258.102 264.422 256.439 264.845C254.834 265.237 253.286 265.597 251.795 265.926C250.304 266.256 248.994 266.542 247.865 266.786C246.735 267.03 245.977 267.238 245.589 267.412C245.238 267.789 244.911 268.246 244.609 268.781C244.306 269.317 244.033 269.837 243.788 270.342C243.6 270.815 243.419 271.266 243.244 271.695C243.127 272.093 243.036 272.403 242.971 272.624C242.723 273.464 242.405 274.379 242.016 275.37C241.672 276.374 241.429 277.36 241.288 278.328C241.204 279.264 241.358 280.127 241.751 280.915C242.156 281.66 243.044 282.234 244.415 282.638C245.874 283.068 247.349 283.119 248.84 282.79C250.344 282.416 251.805 281.862 253.223 281.127C254.641 280.392 255.975 279.536 257.225 278.558C258.519 277.594 259.676 276.686 260.696 275.833C261.774 274.95 262.704 274.239 263.488 273.701C264.271 273.163 264.862 272.953 265.26 273.07C265.702 273.2 266.14 273.426 266.574 273.746C267.066 274.035 267.227 274.467 267.057 275.042C266.823 275.838 266.211 276.691 265.221 277.601C264.276 278.523 263.091 279.447 261.664 280.372C260.282 281.31 258.723 282.196 256.987 283.03C255.309 283.833 253.641 284.518 251.983 285.087C250.339 285.611 248.762 285.987 247.253 286.215C245.757 286.398 244.5 286.34 243.483 286.04C241.493 285.453 240.134 284.524 239.404 283.251C238.674 281.978 238.303 280.547 238.291 278.957C238.323 277.381 238.559 275.768 238.997 274.119C239.492 272.439 239.927 270.885 240.3 269.457ZM257.785 255.149C257.034 254.927 256.127 255.068 255.065 255.572C254.016 256.032 252.96 256.682 251.895 257.521C250.887 258.329 249.978 259.214 249.165 260.176C248.41 261.107 247.928 261.926 247.719 262.634C248.383 262.829 249.405 262.867 250.787 262.745C252.225 262.593 253.675 262.323 255.134 261.937C256.594 261.55 257.912 261.074 259.088 260.508C260.265 259.942 260.964 259.283 261.185 258.531C261.303 258.133 261.246 257.756 261.015 257.399C260.783 257.043 260.473 256.711 260.083 256.403C259.737 256.109 259.356 255.853 258.94 255.634C258.524 255.415 258.139 255.253 257.785 255.149ZM322.763 284.407C322.172 284.617 321.153 284.894 319.707 285.236C318.317 285.547 316.82 285.898 315.214 286.29C313.609 286.682 312.076 287.071 310.617 287.457C309.17 287.8 308.151 288.076 307.561 288.286C306.366 288.751 305.449 289.417 304.808 290.286C304.167 291.154 303.677 292.163 303.338 293.313C303.012 294.418 302.777 295.623 302.633 296.926C302.502 298.185 302.298 299.446 302.022 300.711C301.839 301.33 301.47 301.846 300.916 302.259C300.362 302.672 299.775 302.787 299.156 302.605C298.891 302.527 298.623 302.376 298.352 302.152C298.095 301.883 298.012 301.595 298.103 301.285L309.117 258.322C309.195 258.056 309.388 257.729 309.695 257.339C310.047 256.962 310.295 256.771 310.441 256.766C310.574 256.805 310.744 256.879 310.952 256.989C311.204 257.111 311.444 257.278 311.67 257.489C311.909 257.655 312.12 257.838 312.302 258.035C312.541 258.202 312.692 258.343 312.754 258.457C312.409 260.278 311.92 262.345 311.286 264.657C310.652 266.969 310.011 269.303 309.364 271.66C308.762 274.029 308.201 276.339 307.681 278.589C307.219 280.808 306.965 282.728 306.92 284.348C309.056 284.113 311.068 283.89 312.957 283.678C314.846 283.466 316.546 283.078 318.058 282.515C319.57 281.951 320.875 281.111 321.974 279.993C323.086 278.831 323.92 277.227 324.475 275.18C324.801 274.074 325.066 273.095 325.27 272.242C325.473 271.389 325.626 270.545 325.728 269.71C325.843 268.83 325.905 267.887 325.914 266.881C325.979 265.843 326.018 264.652 326.03 263.31C326.176 262.488 326.458 262.019 326.877 261.902C327.296 261.785 327.749 261.799 328.235 261.942C328.81 262.112 329.213 262.375 329.444 262.731C329.676 263.088 329.815 263.513 329.861 264.008C329.952 264.515 329.941 265.04 329.829 265.584C329.729 266.084 329.637 266.561 329.55 267.016C329.43 267.75 329.228 268.843 328.943 270.297C328.658 271.751 328.315 273.404 327.913 275.256C327.568 277.077 327.191 279.008 326.781 281.05C326.415 283.105 326.06 285.043 325.715 286.864C325.37 288.685 325.033 290.316 324.704 291.757C324.42 293.211 324.217 294.304 324.097 295.038C323.734 296.757 323.422 298.468 323.161 300.169C322.899 301.87 322.514 303.583 322.005 305.307L321.692 306.368C321.588 306.722 321.44 307.063 321.247 307.39C321.111 307.687 320.872 307.929 320.528 308.116C320.242 308.271 319.814 308.337 319.244 308.314C318.618 307.504 318.343 306.726 318.419 305.979C318.495 305.233 318.612 304.426 318.772 303.56C318.871 303.061 319.042 302.318 319.285 301.333C319.54 300.303 319.778 299.171 319.998 297.938C320.274 296.674 320.542 295.359 320.8 293.994C321.116 292.597 321.384 291.282 321.603 290.049C321.88 288.785 322.118 287.653 322.316 286.655C322.515 285.656 322.664 284.907 322.763 284.407ZM344.063 307.271C343.73 307.75 343.073 308.349 342.091 309.069C341.167 309.757 340.104 310.429 338.902 311.084C337.712 311.694 336.505 312.203 335.279 312.611C334.111 312.987 333.151 313.064 332.399 312.843C330.984 312.425 330.008 311.416 329.471 309.816C328.978 308.229 328.795 306.324 328.921 304.103C329.048 301.881 329.394 299.484 329.961 296.912C330.54 294.295 331.167 291.764 331.84 289.319C332.513 286.874 333.143 284.657 333.73 282.667C334.316 280.678 334.693 279.155 334.861 278.099C335.168 277.709 335.467 277.509 335.759 277.498C336.094 277.501 336.461 277.561 336.859 277.679C337.213 277.783 337.509 277.919 337.748 278.085C338.032 278.265 338.219 278.608 338.31 279.116C338.166 279.602 337.925 280.42 337.586 281.57C337.291 282.732 336.973 284.056 336.631 285.542C336.302 286.983 335.947 288.512 335.566 290.13C335.198 291.703 334.827 293.204 334.454 294.632C334.125 296.073 333.813 297.375 333.518 298.538C333.281 299.669 333.106 300.507 332.994 301.05C332.947 301.373 332.841 301.894 332.676 302.615C332.556 303.348 332.445 304.133 332.343 304.968C332.298 305.772 332.295 306.516 332.333 307.2C332.416 307.897 332.65 308.326 333.035 308.488C333.698 308.684 334.446 308.592 335.279 308.213C336.156 307.847 337.056 307.319 337.98 306.63C338.904 305.942 339.81 305.152 340.698 304.26C341.586 303.368 342.394 302.501 343.123 301.659C343.91 300.785 344.531 299.983 344.987 299.253C345.487 298.535 345.811 298.006 345.959 297.665C346.27 296.94 346.671 295.905 347.164 294.56C347.67 293.171 348.179 291.687 348.693 290.109C349.207 288.53 349.672 287.033 350.089 285.618C350.551 284.216 350.893 283.14 351.114 282.388L354.703 283.663C353.691 287.257 352.711 290.501 351.762 293.393C350.825 296.241 350.001 298.953 349.289 301.531C348.59 304.064 348.065 306.577 347.715 309.069C347.364 311.561 347.275 314.226 347.447 317.065C347.275 317.158 346.958 317.257 346.495 317.36C346.018 317.508 345.692 317.556 345.515 317.504C344.41 317.178 343.769 316.58 343.593 315.711C343.448 314.9 343.452 313.988 343.606 312.976C343.818 311.933 344.023 310.912 344.221 309.913C344.477 308.883 344.425 308.002 344.063 307.271ZM356.812 318.313C356.798 318.357 357.341 318.228 358.439 317.928C359.581 317.64 360.931 317.221 362.487 316.67C364.1 316.089 365.755 315.447 367.452 314.746C369.162 314.001 370.609 313.25 371.793 312.494C372.977 311.738 373.696 311.013 373.949 310.318C374.259 309.593 373.805 308.93 372.588 308.331C371.062 307.64 369.707 307.265 368.523 307.204C367.383 307.156 366.319 307.179 365.331 307.272C364.342 307.365 363.404 307.449 362.517 307.523C361.674 307.611 360.801 307.474 359.899 307.112C357.953 306.538 356.781 305.543 356.381 304.128C356.039 302.681 356.174 300.918 356.787 298.84C357.4 296.762 358.445 294.931 359.921 293.348C361.41 291.721 363.087 290.437 364.95 289.497C366.814 288.556 368.813 287.969 370.949 287.734C373.098 287.454 375.168 287.608 377.158 288.195C377.953 288.43 378.619 288.698 379.155 289C379.691 289.302 379.828 289.896 379.567 290.78C379.385 291.399 378.943 291.918 378.243 292.336C377.556 292.71 376.881 292.799 376.218 292.604C376.173 292.591 376.069 292.536 375.906 292.44C375.755 292.299 375.611 292.136 375.473 291.951C375.335 291.767 375.184 291.626 375.02 291.53C374.87 291.389 374.772 291.312 374.728 291.299C373.43 290.484 372.001 290.279 370.44 290.683C368.879 291.088 367.365 291.819 365.9 292.877C364.492 293.903 363.243 295.121 362.155 296.53C361.079 297.895 360.359 299.197 359.994 300.435C359.85 300.921 359.821 301.345 359.907 301.707C360.05 302.037 360.256 302.315 360.527 302.539C360.841 302.776 361.191 302.975 361.576 303.136C362.018 303.267 362.46 303.397 362.903 303.528C363.787 303.789 364.71 303.917 365.673 303.912C366.68 303.921 367.655 303.872 368.6 303.766C369.588 303.673 370.564 303.625 371.526 303.62C372.533 303.629 373.523 303.776 374.496 304.063C374.938 304.194 375.385 304.47 375.838 304.892C376.303 305.269 376.685 305.766 376.984 306.383C377.295 306.956 377.515 307.597 377.642 308.308C377.782 308.974 377.769 309.667 377.605 310.387C377.688 311.085 377.358 311.877 376.616 312.763C375.918 313.663 374.979 314.563 373.8 315.465C372.621 316.367 371.259 317.239 369.713 318.081C368.18 318.878 366.673 319.587 365.192 320.208C363.724 320.784 362.331 321.19 361.012 321.426C359.68 321.706 358.622 321.706 357.839 321.427C356.955 321.167 356.503 320.745 356.482 320.162C356.506 319.592 356.616 318.976 356.812 318.313ZM386.294 297.306C385.786 297.396 385.294 297.516 384.818 297.664C384.399 297.78 383.98 297.897 383.561 298.014C383.156 298.086 382.763 298.115 382.383 298.099C382.003 298.083 381.627 297.972 381.255 297.766C380.99 297.688 380.815 297.468 380.729 297.106C380.657 296.701 380.635 296.286 380.664 295.862C380.661 295.38 380.697 294.934 380.77 294.523C380.856 294.068 380.954 293.736 381.064 293.528L388.506 291.759L393.912 274.897C394.17 274.348 394.589 274.232 395.169 274.547C395.762 274.818 396.364 275.14 396.975 275.512C397.064 275.538 397.183 275.621 397.334 275.762C397.542 275.871 397.684 275.961 397.759 276.032C397.319 277.199 396.823 278.471 396.273 279.847C395.781 281.192 395.281 282.558 394.776 283.947C394.283 285.292 393.819 286.621 393.383 287.934C392.992 289.261 392.706 290.474 392.526 291.574L403.296 291.723C403.486 291.731 403.58 291.903 403.577 292.238C403.631 292.543 403.644 292.907 403.615 293.331C403.63 293.768 403.601 294.192 403.528 294.603C403.455 295.014 403.418 295.219 403.418 295.219L390.735 296.669C390.617 297.067 390.359 298.024 389.96 299.541C389.605 301.07 389.165 302.887 388.641 304.991C388.129 307.051 387.566 309.288 386.95 311.702C386.347 314.071 385.79 316.286 385.279 318.346C384.767 320.406 384.305 322.216 383.893 323.777C383.494 325.293 383.235 326.25 383.118 326.648C382.638 327.949 382.045 328.495 381.337 328.286C380.674 328.09 380.042 327.544 379.442 326.646L386.294 297.306ZM396.779 327.506C397.689 325.563 398.638 323.079 399.626 320.055C400.658 317.043 401.661 313.806 402.634 310.344C403.651 306.895 404.635 303.316 405.585 299.607C406.534 295.898 407.381 292.375 408.125 289.038C408.882 285.657 409.491 282.616 409.951 279.916C410.455 277.229 410.774 275.088 410.908 273.494C411.384 273.346 411.774 273.244 412.079 273.19C412.44 273.104 412.82 273.12 413.218 273.238C413.528 273.329 413.773 273.474 413.955 273.671C414.15 273.825 414.262 274.098 414.29 274.491C412.618 283.418 410.64 292.327 408.354 301.217C406.112 310.12 403.796 318.953 401.403 327.716C401.286 328.114 401.123 328.667 400.914 329.374C400.719 330.037 400.592 330.385 400.535 330.416C399.825 330.543 399.226 330.534 398.74 330.391C398.267 330.203 397.864 329.94 397.531 329.602C397.211 329.219 396.986 328.84 396.857 328.466C396.727 328.091 396.701 327.771 396.779 327.506ZM409.889 319.477C409.655 319.456 409.304 319.425 408.836 319.383C408.367 319.341 407.897 319.226 407.423 319.038C406.95 318.85 406.569 318.594 406.281 318.268C405.948 317.93 405.86 317.495 406.016 316.965C406.107 316.655 406.239 316.454 406.411 316.36C406.583 316.267 406.862 316.133 407.25 315.959C408.458 315.45 409.576 314.674 410.604 313.632C411.69 312.558 412.728 311.399 413.721 310.154C414.726 308.864 415.746 307.603 416.783 306.371C417.876 305.107 419.013 304.025 420.192 303.123C421.371 302.221 422.684 301.599 424.131 301.257C425.578 300.914 427.201 301.033 429.001 301.611C429.752 301.833 430.54 302.258 431.364 302.885C432.189 303.513 432.907 304.254 433.521 305.107C434.147 305.917 434.602 306.82 434.884 307.817C435.167 308.813 435.159 309.82 434.859 310.837C434.975 311.256 434.604 311.699 433.745 312.167C432.931 312.647 431.853 313.123 430.513 313.593C429.186 314.018 427.691 314.442 426.029 314.865C424.423 315.257 422.875 315.617 421.384 315.946C419.893 316.276 418.583 316.562 417.454 316.806C416.325 317.05 415.566 317.258 415.178 317.432C414.827 317.809 414.5 318.266 414.198 318.801C413.896 319.337 413.622 319.857 413.377 320.362C413.19 320.835 413.008 321.286 412.834 321.715C412.716 322.113 412.625 322.423 412.56 322.644C412.312 323.484 411.994 324.399 411.606 325.39C411.261 326.394 411.019 327.38 410.878 328.348C410.794 329.284 410.948 330.147 411.34 330.935C411.745 331.68 412.633 332.254 414.004 332.658C415.463 333.088 416.938 333.139 418.429 332.81C419.933 332.436 421.394 331.882 422.812 331.147C424.231 330.412 425.565 329.556 426.814 328.578C428.108 327.614 429.265 326.706 430.285 325.853C431.363 324.97 432.294 324.259 433.077 323.721C433.861 323.183 434.451 322.973 434.849 323.09C435.291 323.22 435.73 323.446 436.164 323.766C436.655 324.055 436.816 324.487 436.647 325.062C436.412 325.858 435.8 326.711 434.811 327.621C433.866 328.543 432.68 329.467 431.254 330.392C429.871 331.33 428.312 332.216 426.577 333.05C424.898 333.853 423.23 334.538 421.572 335.107C419.928 335.631 418.351 336.007 416.842 336.235C415.346 336.418 414.089 336.36 413.073 336.06C411.083 335.473 409.723 334.544 408.993 333.271C408.263 331.998 407.892 330.567 407.88 328.977C407.913 327.401 408.148 325.788 408.586 324.139C409.082 322.459 409.516 320.905 409.889 319.477ZM427.375 305.169C426.623 304.947 425.716 305.088 424.654 305.592C423.606 306.052 422.549 306.702 421.484 307.541C420.477 308.349 419.567 309.234 418.754 310.196C417.999 311.127 417.517 311.946 417.309 312.654C417.972 312.849 418.994 312.887 420.376 312.765C421.815 312.613 423.264 312.343 424.724 311.957C426.183 311.57 427.501 311.094 428.678 310.528C429.854 309.962 430.553 309.303 430.775 308.551C430.892 308.153 430.835 307.776 430.604 307.419C430.373 307.063 430.062 306.731 429.672 306.423C429.326 306.129 428.945 305.873 428.529 305.654C428.113 305.435 427.728 305.273 427.375 305.169Z" fill="white"/>
<path d="M344.665 345.507L344.658 345.505C341.134 344.374 337.116 343.107 332.71 341.716C315.723 336.358 292.968 329.179 270.559 321.006L270.556 321.005C232.221 306.709 194.185 291.483 156.242 276.015C136.147 268.121 116.908 257.999 98.7898 245.79L98.7896 245.79C92.9693 241.863 87.5316 237.293 82.5492 232.143L82.5456 232.139C77.3616 226.658 75.1658 221.471 76.1806 216.789C77.1941 212.114 81.367 208.147 88.4183 205L88.4227 204.998C94.6016 202.318 100.994 200.474 107.461 199.505L107.462 199.505C135.396 195.345 163.433 195.726 190.71 200.639C201.838 202.522 212.779 205.099 223.717 207.675C228.541 208.811 233.364 209.948 238.203 211.024L238.21 211.025C241.287 211.763 243.501 211.945 245.095 211.507C246.632 211.083 247.649 210.064 248.301 208.191C248.945 206.339 248.705 204.807 247.592 203.469C246.447 202.092 244.341 200.876 241.147 199.813C215.44 191.283 188.734 186.23 161.563 184.755L161.555 184.755L161.555 184.755C141.897 183.332 122.007 184.376 102.243 187.871L102.231 187.873L102.231 187.873C93.433 189.202 84.8536 192.654 77.0822 197.998C70.5918 202.877 66.606 208.828 65.3269 215.173C64.0481 221.515 65.4632 228.306 69.876 234.889L69.8781 234.892C73.8725 240.956 78.7828 246.143 84.404 250.241L84.4051 250.242C96.1179 258.834 108.397 266.458 121.156 273.062C143.903 284.194 167.052 294.393 190.403 303.934C190.403 303.934 190.403 303.934 190.403 303.934L190.228 304.363C215.102 314.514 240.328 323.72 265.584 332.814L344.665 345.507ZM344.665 345.507L344.673 345.509M344.665 345.507L344.673 345.509M344.673 345.509C393.613 359.425 431.328 368.57 470.246 372.115L470.255 372.116M344.673 345.509L470.255 372.116M470.255 372.116C484.349 373.126 498.551 373.076 512.771 371.968L512.779 371.967M470.255 372.116L512.779 371.967M512.779 371.967C519.268 371.338 525.685 369.433 531.74 366.34C536.751 363.947 539.965 360.842 541.265 357.008C542.564 353.174 541.914 348.718 539.429 343.703L539.427 343.699M512.779 371.967L539.427 343.699M539.427 343.699C536.048 337.053 532.007 330.897 527.377 325.34C515.468 310.853 501.229 299.451 486.773 288.542L486.77 288.539M539.427 343.699L486.77 288.539M486.77 288.539C450.915 262.004 412.661 239.58 372.527 221.573C327.251 200.552 280.072 184.412 231.583 173.356C195.866 165.028 159.536 159.417 122.829 156.56L122.827 156.56M486.77 288.539L122.827 156.56M122.827 156.56C102.11 155.055 81.3772 153.546 60.6283 152.033L60.6203 152.033M122.827 156.56L60.6203 152.033M60.6203 152.033L60.6124 152.032M60.6203 152.033L60.6124 152.032M60.6124 152.032L59.8385 152.003C57.2032 151.713 55.3049 150.994 54.1239 149.942C52.9639 148.909 52.4494 147.515 52.656 145.732C52.8631 143.945 53.6512 142.699 55.0258 141.903C56.4305 141.09 58.4973 140.719 61.3024 140.829C63.6187 140.929 65.936 141.027 68.2539 141.126C101.611 142.543 135.11 143.966 168.073 148.775L168.076 148.776M60.6124 152.032L168.076 148.776M168.076 148.776C205.997 154.067 243.401 162.166 280.052 173.022C342.165 191.541 401.632 218.395 457.242 253.036L457.248 253.04M168.076 148.776L457.248 253.04M457.248 253.04C479.496 266.453 500.456 282.252 519.863 300.238C528.578 308.903 536.717 318.274 544.223 328.288C547.466 332.783 549.897 337.988 551.388 343.638L551.392 343.651M457.248 253.04L551.392 343.651M551.392 343.651C554.981 355.832 551.261 367.206 540.987 374.034L551.392 343.651Z" fill="white" stroke="#CFCFCF" stroke-width="0.926435"/>
<path d="M183.376 96.8723C178.376 93.353 177.349 92.7676 176.553 92.3133C176.079 92.0433 175.687 91.8197 174.591 91.0543C156.841 78.8603 138.148 68.5971 117.231 62.8865C91.8068 55.9469 66.3105 54.778 40.7864 62.518C39.524 62.6925 38.2503 62.7714 36.9761 62.754L43.2674 53.4049C45.1545 50.4961 46.3045 47.4467 43.1515 44.6689C40.6442 42.4231 36.5629 42.9689 33.8109 46.5884C26.1132 56.7914 18.4969 67.0531 11.36 77.6414C7.77189 83.0024 9.85411 87.1334 16.3252 88.9964C27.5503 92.262 38.8221 95.3853 50.0777 98.5041C51.1125 98.7908 52.1472 99.0775 53.1818 99.3643C58.1003 100.737 61.7351 99.3169 62.8397 95.7487C63.9443 92.1805 62.2073 89.0512 57.2206 87.0194C53.7592 85.609 49.9756 84.3337 46.1982 83.0604C44.5335 82.4993 42.8701 81.9386 41.236 81.367C39.8292 80.8749 38.4112 80.3526 36.2942 79.5728C35.6282 79.3275 34.893 79.0567 34.0672 78.7533C39.6597 75.3162 45.8642 72.9934 52.339 71.9129C83.7311 66.6359 115.985 72.1928 143.801 87.6707C145.994 88.8473 148.273 90.0086 150.58 91.1836C160.027 95.9959 169.925 101.038 176.137 108.302C179.526 112.265 183.462 119.436 187.275 126.384C192.158 135.28 196.84 143.811 199.914 144.769C204.557 144.426 204.668 143.817 205.279 140.471C205.319 140.248 205.362 140.013 205.409 139.765C206.459 134.223 191.346 102.483 183.376 96.8723Z" fill="white"/>
<path d="M183.376 96.8723C178.376 93.353 177.349 92.7676 176.553 92.3133C176.079 92.0433 175.687 91.8197 174.591 91.0543C156.841 78.8603 138.148 68.5971 117.231 62.8865C91.8068 55.9469 66.3105 54.778 40.7864 62.518C39.524 62.6925 38.2503 62.7714 36.9761 62.754L43.2674 53.4049C45.1545 50.4961 46.3045 47.4467 43.1515 44.6689C40.6442 42.4231 36.5629 42.9689 33.8109 46.5884C26.1132 56.7914 18.4969 67.0531 11.36 77.6414C7.77189 83.0024 9.85411 87.1334 16.3252 88.9964C27.5503 92.262 38.8221 95.3853 50.0777 98.5041C51.1125 98.7908 52.1472 99.0775 53.1818 99.3643C58.1003 100.737 61.7351 99.3169 62.8397 95.7487C63.9443 92.1805 62.2073 89.0512 57.2206 87.0194C53.7592 85.609 49.9756 84.3337 46.1982 83.0604C44.5335 82.4993 42.8701 81.9386 41.236 81.367C39.8292 80.8749 38.4112 80.3526 36.2942 79.5728C35.6282 79.3275 34.893 79.0567 34.0672 78.7533C39.6597 75.3162 45.8642 72.9934 52.339 71.9129C83.7311 66.6359 115.985 72.1928 143.801 87.6707C145.994 88.8473 148.273 90.0086 150.58 91.1836C160.027 95.9959 169.925 101.038 176.137 108.302C179.526 112.265 183.462 119.436 187.275 126.384C192.158 135.28 196.84 143.811 199.914 144.769C204.557 144.426 204.668 143.817 205.279 140.471C205.319 140.248 205.362 140.013 205.409 139.765C206.459 134.223 191.346 102.483 183.376 96.8723Z" stroke="#F5F5F5"/>
</svg>
