<svg width="51" height="45" viewBox="0 0 51 45" fill="none" xmlns="http://www.w3.org/2000/svg">
<g filter="url(#filter0_f_5429_36641)">
<ellipse cx="29.2658" cy="30.3985" rx="20.0115" ry="6.98038" transform="rotate(-12.9443 29.2658 30.3985)" fill="url(#paint0_radial_5429_36641)"/>
</g>
<ellipse cx="25.3427" cy="33.1541" rx="14.615" ry="4.98816" transform="rotate(-7.07465 25.3427 33.1541)" fill="url(#paint1_radial_5429_36641)"/>
<g filter="url(#filter1_f_5429_36641)">
<ellipse cx="25.9158" cy="33.0846" rx="14.0373" ry="4.98816" transform="rotate(-7.07465 25.9158 33.0846)" fill="url(#paint2_radial_5429_36641)"/>
</g>
<mask id="mask0_5429_36641" style="mask-type:alpha" maskUnits="userSpaceOnUse" x="0" y="0" width="39" height="39">
<circle cx="19.4454" cy="19.1134" r="19.1134" fill="url(#paint3_radial_5429_36641)"/>
</mask>
<g mask="url(#mask0_5429_36641)">
<circle cx="19.4454" cy="19.1134" r="19.1134" fill="url(#paint4_radial_5429_36641)"/>
<g filter="url(#filter2_f_5429_36641)">
<ellipse cx="10.9079" cy="8.68215" rx="16.3454" ry="15.8501" fill="#D7D96A" fill-opacity="0.13"/>
</g>
<g filter="url(#filter3_f_5429_36641)">
<ellipse cx="31.0134" cy="33.1001" rx="16.3454" ry="15.8501" fill="#1B2372" fill-opacity="0.43"/>
</g>
<g filter="url(#filter4_f_5429_36641)">
<path d="M38.7331 20.9506C38.9073 21.5495 40.785 30.4731 31.0119 37.9661C27.1299 40.9425 15.977 38.565 15.8028 37.9661C15.6286 37.3672 24.8642 36.2762 29.9339 33.0421C37.7537 28.0536 38.5589 20.3517 38.7331 20.9506Z" fill="#51779F" fill-opacity="0.61"/>
</g>
<g filter="url(#filter5_f_5429_36641)">
<ellipse cx="10.9369" cy="7.63533" rx="1.48322" ry="3.10549" transform="rotate(45 10.9369 7.63533)" fill="#E3F7FF"/>
</g>
<g filter="url(#filter6_f_5429_36641)">
<ellipse cx="10.9376" cy="7.63421" rx="0.782743" ry="1.63887" transform="rotate(45 10.9376 7.63421)" fill="#E2F7FF"/>
</g>
<g filter="url(#filter7_f_5429_36641)">
<path d="M35.3542 7.34375C36.9372 15.9875 32.3706 35.198 8.54883 36.2469" stroke="#010E1B" stroke-width="1.16545"/>
</g>
<g filter="url(#filter8_f_5429_36641)">
<path d="M27.8214 -0.423898C11.7964 -5.90151 -6.85076 11.2597 3.14297 30.8102" stroke="#FCFFDD" stroke-width="1.16545"/>
</g>
<g filter="url(#filter9_f_5429_36641)">
<path d="M33.4316 6.32422C38.9675 11.2191 41.5607 19.7269 34.4514 31.09" stroke="#A1A0DB" stroke-opacity="0.65" stroke-width="1.16545"/>
</g>
</g>
<path d="M8.71484 8.71484C30.6455 8.71484 25.5485 23.2847 25.5715 25.5347L29.2863 29.2863H28.0924L24.8597 26.0169C23.0689 26.2097 19.1475 27.6011 15.0148 24.3179C10.873 21.0347 11.1026 17.1041 8.71484 8.71484ZM12.3745 10.8271C10.0924 9.74801 12.1358 11.2495 12.1358 11.2495C14.2113 12.6822 15.1664 14.6337 16.2776 16.7552C17.724 19.5194 19.9051 23.1699 22.899 24.4557C25.8837 25.7414 24.4694 25.0296 23.1745 24.0653C21.8796 23.0919 20.0429 20.0705 18.996 18.0868C17.5404 15.3317 16.1949 12.6409 12.3745 10.8271Z" fill="white"/>
<defs>
<filter id="filter0_f_5429_36641" x="8.30068" y="20.8515" width="41.9299" height="19.094" filterUnits="userSpaceOnUse" color-interpolation-filters="sRGB">
<feFlood flood-opacity="0" result="BackgroundImageFix"/>
<feBlend mode="normal" in="SourceGraphic" in2="BackgroundImageFix" result="shape"/>
<feGaussianBlur stdDeviation="0.69927" result="effect1_foregroundBlur_5429_36641"/>
</filter>
<filter id="filter1_f_5429_36641" x="5.79382" y="21.663" width="40.2424" height="22.8421" filterUnits="userSpaceOnUse" color-interpolation-filters="sRGB">
<feFlood flood-opacity="0" result="BackgroundImageFix"/>
<feBlend mode="normal" in="SourceGraphic" in2="BackgroundImageFix" result="shape"/>
<feGaussianBlur stdDeviation="3.08844" result="effect1_foregroundBlur_5429_36641"/>
</filter>
<filter id="filter2_f_5429_36641" x="-17.6165" y="-19.3469" width="57.0493" height="56.0571" filterUnits="userSpaceOnUse" color-interpolation-filters="sRGB">
<feFlood flood-opacity="0" result="BackgroundImageFix"/>
<feBlend mode="normal" in="SourceGraphic" in2="BackgroundImageFix" result="shape"/>
<feGaussianBlur stdDeviation="6.08948" result="effect1_foregroundBlur_5429_36641"/>
</filter>
<filter id="filter3_f_5429_36641" x="2.48902" y="5.07105" width="57.0493" height="56.0571" filterUnits="userSpaceOnUse" color-interpolation-filters="sRGB">
<feFlood flood-opacity="0" result="BackgroundImageFix"/>
<feBlend mode="normal" in="SourceGraphic" in2="BackgroundImageFix" result="shape"/>
<feGaussianBlur stdDeviation="6.08948" result="effect1_foregroundBlur_5429_36641"/>
</filter>
<filter id="filter4_f_5429_36641" x="12.8872" y="18.0043" width="29.0148" height="24.3429" filterUnits="userSpaceOnUse" color-interpolation-filters="sRGB">
<feFlood flood-opacity="0" result="BackgroundImageFix"/>
<feBlend mode="normal" in="SourceGraphic" in2="BackgroundImageFix" result="shape"/>
<feGaussianBlur stdDeviation="1.45681" result="effect1_foregroundBlur_5429_36641"/>
</filter>
<filter id="filter5_f_5429_36641" x="4.71424" y="1.41541" width="12.4446" height="12.4426" filterUnits="userSpaceOnUse" color-interpolation-filters="sRGB">
<feFlood flood-opacity="0" result="BackgroundImageFix"/>
<feBlend mode="normal" in="SourceGraphic" in2="BackgroundImageFix" result="shape"/>
<feGaussianBlur stdDeviation="1.89386" result="effect1_foregroundBlur_5429_36641"/>
</filter>
<filter id="filter6_f_5429_36641" x="9.41925" y="6.11847" width="3.03649" height="3.03259" filterUnits="userSpaceOnUse" color-interpolation-filters="sRGB">
<feFlood flood-opacity="0" result="BackgroundImageFix"/>
<feBlend mode="normal" in="SourceGraphic" in2="BackgroundImageFix" result="shape"/>
<feGaussianBlur stdDeviation="0.116545" result="effect1_foregroundBlur_5429_36641"/>
</filter>
<filter id="filter7_f_5429_36641" x="2.23001" y="0.944851" width="40.2822" height="42.1767" filterUnits="userSpaceOnUse" color-interpolation-filters="sRGB">
<feFlood flood-opacity="0" result="BackgroundImageFix"/>
<feBlend mode="normal" in="SourceGraphic" in2="BackgroundImageFix" result="shape"/>
<feGaussianBlur stdDeviation="3.14672" result="effect1_foregroundBlur_5429_36641"/>
</filter>
<filter id="filter8_f_5429_36641" x="-4.15426" y="-5.94332" width="36.0683" height="40.9218" filterUnits="userSpaceOnUse" color-interpolation-filters="sRGB">
<feFlood flood-opacity="0" result="BackgroundImageFix"/>
<feBlend mode="normal" in="SourceGraphic" in2="BackgroundImageFix" result="shape"/>
<feGaussianBlur stdDeviation="1.95213" result="effect1_foregroundBlur_5429_36641"/>
</filter>
<filter id="filter9_f_5429_36641" x="28.4414" y="1.28319" width="15.5235" height="34.7188" filterUnits="userSpaceOnUse" color-interpolation-filters="sRGB">
<feFlood flood-opacity="0" result="BackgroundImageFix"/>
<feBlend mode="normal" in="SourceGraphic" in2="BackgroundImageFix" result="shape"/>
<feGaussianBlur stdDeviation="2.30176" result="effect1_foregroundBlur_5429_36641"/>
</filter>
<radialGradient id="paint0_radial_5429_36641" cx="0" cy="0" r="1" gradientUnits="userSpaceOnUse" gradientTransform="translate(18.5907 33.8553) rotate(-11.8288) scale(27.8342 85.8467)">
<stop stop-color="#093041"/>
<stop offset="1" stop-color="#4E6A76" stop-opacity="0"/>
</radialGradient>
<radialGradient id="paint1_radial_5429_36641" cx="0" cy="0" r="1" gradientUnits="userSpaceOnUse" gradientTransform="translate(17.5463 35.6243) rotate(-8.58869) scale(18.0524 54.6236)">
<stop stop-color="#000D12"/>
<stop offset="1" stop-color="#082430" stop-opacity="0"/>
</radialGradient>
<radialGradient id="paint2_radial_5429_36641" cx="0" cy="0" r="1" gradientUnits="userSpaceOnUse" gradientTransform="translate(18.4277 35.5549) rotate(-8.40541) scale(20.6654 64.9821)">
<stop stop-color="#228B22"/>
<stop offset="0.0001" stop-color="#082430" stop-opacity="0"/>
<stop offset="1" stop-color="#4AC63F" stop-opacity="0.81"/>
</radialGradient>
<radialGradient id="paint3_radial_5429_36641" cx="0" cy="0" r="1" gradientUnits="userSpaceOnUse" gradientTransform="translate(11.025 8.18729) rotate(49.1614) scale(36.6247 37.882)">
<stop stop-color="#B9EBFF"/>
<stop offset="0.156338" stop-color="#7DCCED"/>
<stop offset="0.519012" stop-color="#4290AF"/>
<stop offset="0.710329" stop-color="#156282"/>
<stop offset="1" stop-color="#1B7398"/>
</radialGradient>
<radialGradient id="paint4_radial_5429_36641" cx="0" cy="0" r="1" gradientUnits="userSpaceOnUse" gradientTransform="translate(11.025 8.18729) rotate(49.1614) scale(36.6247 37.882)">
<stop stop-color="#D8FFB9"/>
<stop offset="0.156338" stop-color="#A1FD92"/>
<stop offset="0.519012" stop-color="#4AC63F"/>
<stop offset="0.710329" stop-color="#4AC63F"/>
<stop offset="1" stop-color="#228B22"/>
</radialGradient>
</defs>
</svg>
