<svg width="50" height="46" viewBox="0 0 50 46" fill="none" xmlns="http://www.w3.org/2000/svg">
<g filter="url(#filter0_f_5429_36679)">
<ellipse cx="28.9338" cy="31.0821" rx="20.0115" ry="6.98038" transform="rotate(-12.9443 28.9338 31.0821)" fill="url(#paint0_radial_5429_36679)"/>
</g>
<ellipse cx="25.0107" cy="33.8377" rx="14.615" ry="4.98816" transform="rotate(-7.07465 25.0107 33.8377)" fill="url(#paint1_radial_5429_36679)"/>
<g filter="url(#filter1_f_5429_36679)">
<ellipse cx="25.5838" cy="33.7682" rx="14.0373" ry="4.98816" transform="rotate(-7.07465 25.5838 33.7682)" fill="url(#paint2_radial_5429_36679)"/>
</g>
<mask id="mask0_5429_36679" style="mask-type:alpha" maskUnits="userSpaceOnUse" x="0" y="0" width="39" height="39">
<circle cx="19.1134" cy="19.797" r="19.1134" fill="url(#paint3_radial_5429_36679)"/>
</mask>
<g mask="url(#mask0_5429_36679)">
<circle cx="19.1134" cy="19.797" r="19.1134" fill="url(#paint4_radial_5429_36679)"/>
<g filter="url(#filter2_f_5429_36679)">
<ellipse cx="10.5759" cy="9.36575" rx="16.3454" ry="15.8501" fill="#D7D96A" fill-opacity="0.13"/>
</g>
<g filter="url(#filter3_f_5429_36679)">
<ellipse cx="30.6814" cy="33.7837" rx="16.3454" ry="15.8501" fill="#FFDD4C" fill-opacity="0.38"/>
</g>
<g filter="url(#filter4_f_5429_36679)">
<path d="M38.401 21.6342C38.5752 22.2331 40.453 31.1567 30.6799 38.6497C26.7979 41.6261 15.645 39.2486 15.4708 38.6497C15.2966 38.0508 24.5322 36.9598 29.6019 33.7257C37.4216 28.7372 38.2268 21.0353 38.401 21.6342Z" fill="#FFDD4C" fill-opacity="0.22"/>
</g>
<g filter="url(#filter5_f_5429_36679)">
<ellipse cx="10.6048" cy="8.31893" rx="1.48322" ry="3.10549" transform="rotate(45 10.6048 8.31893)" fill="#E3F7FF"/>
</g>
<g filter="url(#filter6_f_5429_36679)">
<ellipse cx="10.6056" cy="8.31781" rx="0.782743" ry="1.63887" transform="rotate(45 10.6056 8.31781)" fill="#E2F7FF"/>
</g>
<g filter="url(#filter7_f_5429_36679)">
<path d="M35.0221 8.02734C36.6052 16.6711 32.0386 35.8816 8.2168 36.9305" stroke="#FFDD4C" stroke-width="1.16545"/>
</g>
<g filter="url(#filter8_f_5429_36679)">
<path d="M27.4893 0.259696C11.4644 -5.21792 -7.1828 11.9433 2.81094 31.4938" stroke="#FCFFDD" stroke-width="1.16545"/>
</g>
<g filter="url(#filter9_f_5429_36679)">
<path d="M33.0996 7.00781C38.6355 11.9027 41.2286 20.4105 34.1194 31.7736" stroke="#A1A0DB" stroke-opacity="0.65" stroke-width="1.16545"/>
</g>
</g>
<path d="M18 18C20.2091 18 22 16.2091 22 14C22 11.7909 20.2091 10 18 10C15.7909 10 14 11.7909 14 14C14 16.2091 15.7909 18 18 18Z" stroke="white" stroke-width="1.5"/>
<path d="M27 16.6923L26.4813 17.234C26.7713 17.5117 27.2287 17.5117 27.5187 17.234L27 16.6923ZM26.4865 19.7619C26.0686 19.4552 25.6081 19.0722 25.2595 18.6691C24.8912 18.2433 24.75 17.9123 24.75 17.6977H23.25C23.25 18.4676 23.6912 19.1489 24.1249 19.6503C24.5782 20.1745 25.1391 20.6337 25.5992 20.9713L26.4865 19.7619ZM24.75 17.6977C24.75 17.1216 25.0126 16.871 25.2419 16.7906C25.4922 16.7028 25.9558 16.7308 26.4813 17.234L27.5187 16.1506C26.6943 15.3612 25.6579 15.0553 24.7457 15.3751C23.8125 15.7022 23.25 16.6005 23.25 17.6977H24.75ZM28.4008 20.9713C28.8609 20.6337 29.4218 20.1745 29.8751 19.6503C30.3088 19.1489 30.75 18.4676 30.75 17.6977H29.25C29.25 17.9123 29.1088 18.2434 28.7405 18.6691C28.3919 19.0723 27.9314 19.4552 27.5135 19.7619L28.4008 20.9713ZM30.75 17.6977C30.75 16.6005 30.1875 15.7022 29.2543 15.375C28.3421 15.0553 27.3057 15.3612 26.4813 16.1506L27.5187 17.234C28.0442 16.7308 28.5078 16.7028 28.7581 16.7906C28.9874 16.871 29.25 17.1216 29.25 17.6977H30.75ZM25.5992 20.9713C25.9678 21.2417 26.3816 21.5786 27 21.5786V20.0786C26.9756 20.0786 26.9605 20.0785 26.9061 20.0498C26.8202 20.0044 26.7128 19.9279 26.4865 19.7619L25.5992 20.9713ZM27.5135 19.7619C27.2872 19.9279 27.1798 20.0044 27.0939 20.0498C27.0395 20.0785 27.0244 20.0786 27 20.0786V21.5786C27.6184 21.5786 28.0322 21.2417 28.4008 20.9713L27.5135 19.7619Z" fill="white"/>
<path d="M25.9975 26C26 25.8358 26 25.669 26 25.5C26 23.0147 22.4183 21 18 21C13.5817 21 10 23.0147 10 25.5C10 27.9853 10 30 18 30C20.231 30 21.8398 29.8433 23 29.5634" stroke="white" stroke-width="1.5" stroke-linecap="round"/>
<defs>
<filter id="filter0_f_5429_36679" x="7.96865" y="21.5351" width="41.9299" height="19.094" filterUnits="userSpaceOnUse" color-interpolation-filters="sRGB">
<feFlood flood-opacity="0" result="BackgroundImageFix"/>
<feBlend mode="normal" in="SourceGraphic" in2="BackgroundImageFix" result="shape"/>
<feGaussianBlur stdDeviation="0.69927" result="effect1_foregroundBlur_5429_36679"/>
</filter>
<filter id="filter1_f_5429_36679" x="5.46179" y="22.3466" width="40.2424" height="22.8421" filterUnits="userSpaceOnUse" color-interpolation-filters="sRGB">
<feFlood flood-opacity="0" result="BackgroundImageFix"/>
<feBlend mode="normal" in="SourceGraphic" in2="BackgroundImageFix" result="shape"/>
<feGaussianBlur stdDeviation="3.08844" result="effect1_foregroundBlur_5429_36679"/>
</filter>
<filter id="filter2_f_5429_36679" x="-17.9485" y="-18.6633" width="57.0493" height="56.0571" filterUnits="userSpaceOnUse" color-interpolation-filters="sRGB">
<feFlood flood-opacity="0" result="BackgroundImageFix"/>
<feBlend mode="normal" in="SourceGraphic" in2="BackgroundImageFix" result="shape"/>
<feGaussianBlur stdDeviation="6.08948" result="effect1_foregroundBlur_5429_36679"/>
</filter>
<filter id="filter3_f_5429_36679" x="2.15698" y="5.75464" width="57.0493" height="56.0571" filterUnits="userSpaceOnUse" color-interpolation-filters="sRGB">
<feFlood flood-opacity="0" result="BackgroundImageFix"/>
<feBlend mode="normal" in="SourceGraphic" in2="BackgroundImageFix" result="shape"/>
<feGaussianBlur stdDeviation="6.08948" result="effect1_foregroundBlur_5429_36679"/>
</filter>
<filter id="filter4_f_5429_36679" x="12.5551" y="18.6879" width="29.0148" height="24.3429" filterUnits="userSpaceOnUse" color-interpolation-filters="sRGB">
<feFlood flood-opacity="0" result="BackgroundImageFix"/>
<feBlend mode="normal" in="SourceGraphic" in2="BackgroundImageFix" result="shape"/>
<feGaussianBlur stdDeviation="1.45681" result="effect1_foregroundBlur_5429_36679"/>
</filter>
<filter id="filter5_f_5429_36679" x="4.38221" y="2.09901" width="12.4446" height="12.4426" filterUnits="userSpaceOnUse" color-interpolation-filters="sRGB">
<feFlood flood-opacity="0" result="BackgroundImageFix"/>
<feBlend mode="normal" in="SourceGraphic" in2="BackgroundImageFix" result="shape"/>
<feGaussianBlur stdDeviation="1.89386" result="effect1_foregroundBlur_5429_36679"/>
</filter>
<filter id="filter6_f_5429_36679" x="9.08722" y="6.80207" width="3.03649" height="3.03259" filterUnits="userSpaceOnUse" color-interpolation-filters="sRGB">
<feFlood flood-opacity="0" result="BackgroundImageFix"/>
<feBlend mode="normal" in="SourceGraphic" in2="BackgroundImageFix" result="shape"/>
<feGaussianBlur stdDeviation="0.116545" result="effect1_foregroundBlur_5429_36679"/>
</filter>
<filter id="filter7_f_5429_36679" x="1.89798" y="1.62844" width="40.2822" height="42.1767" filterUnits="userSpaceOnUse" color-interpolation-filters="sRGB">
<feFlood flood-opacity="0" result="BackgroundImageFix"/>
<feBlend mode="normal" in="SourceGraphic" in2="BackgroundImageFix" result="shape"/>
<feGaussianBlur stdDeviation="3.14672" result="effect1_foregroundBlur_5429_36679"/>
</filter>
<filter id="filter8_f_5429_36679" x="-4.48629" y="-5.25973" width="36.0683" height="40.9218" filterUnits="userSpaceOnUse" color-interpolation-filters="sRGB">
<feFlood flood-opacity="0" result="BackgroundImageFix"/>
<feBlend mode="normal" in="SourceGraphic" in2="BackgroundImageFix" result="shape"/>
<feGaussianBlur stdDeviation="1.95213" result="effect1_foregroundBlur_5429_36679"/>
</filter>
<filter id="filter9_f_5429_36679" x="28.1094" y="1.96678" width="15.5235" height="34.7188" filterUnits="userSpaceOnUse" color-interpolation-filters="sRGB">
<feFlood flood-opacity="0" result="BackgroundImageFix"/>
<feBlend mode="normal" in="SourceGraphic" in2="BackgroundImageFix" result="shape"/>
<feGaussianBlur stdDeviation="2.30176" result="effect1_foregroundBlur_5429_36679"/>
</filter>
<radialGradient id="paint0_radial_5429_36679" cx="0" cy="0" r="1" gradientUnits="userSpaceOnUse" gradientTransform="translate(18.2587 34.5389) rotate(-11.8288) scale(27.8342 85.8467)">
<stop stop-color="#FFDD4C"/>
<stop offset="1" stop-color="#6F764E" stop-opacity="0"/>
</radialGradient>
<radialGradient id="paint1_radial_5429_36679" cx="0" cy="0" r="1" gradientUnits="userSpaceOnUse" gradientTransform="translate(17.2143 36.3079) rotate(-8.58869) scale(18.0524 54.6236)">
<stop stop-color="#FFDD4C"/>
<stop offset="1" stop-color="#FFDD4C" stop-opacity="0"/>
</radialGradient>
<radialGradient id="paint2_radial_5429_36679" cx="0" cy="0" r="1" gradientUnits="userSpaceOnUse" gradientTransform="translate(18.0956 36.2385) rotate(-8.40541) scale(20.6654 64.9821)">
<stop stop-color="#FFDD4C"/>
<stop offset="0.0001" stop-color="#082430" stop-opacity="0"/>
<stop offset="1" stop-color="#FFDD4C"/>
</radialGradient>
<radialGradient id="paint3_radial_5429_36679" cx="0" cy="0" r="1" gradientUnits="userSpaceOnUse" gradientTransform="translate(10.693 8.87088) rotate(49.1614) scale(36.6247 37.882)">
<stop stop-color="#B9EBFF"/>
<stop offset="0.156338" stop-color="#7DCCED"/>
<stop offset="0.519012" stop-color="#4290AF"/>
<stop offset="0.710329" stop-color="#156282"/>
<stop offset="1" stop-color="#1B7398"/>
</radialGradient>
<radialGradient id="paint4_radial_5429_36679" cx="0" cy="0" r="1" gradientUnits="userSpaceOnUse" gradientTransform="translate(10.693 8.87088) rotate(49.1614) scale(36.6247 37.882)">
<stop stop-color="#FFEA92"/>
<stop offset="0.156338" stop-color="#FFE162"/>
<stop offset="0.519012" stop-color="#F9E89B"/>
<stop offset="0.710329" stop-color="#F4D966"/>
<stop offset="1" stop-color="#C8AE00"/>
</radialGradient>
</defs>
</svg>
