<svg width="50" height="45" viewBox="0 0 50 45" fill="none" xmlns="http://www.w3.org/2000/svg">
<g filter="url(#filter0_f_5429_36906)">
<ellipse cx="28.9338" cy="30.3985" rx="20.0115" ry="6.98038" transform="rotate(-12.9443 28.9338 30.3985)" fill="url(#paint0_radial_5429_36906)"/>
</g>
<ellipse cx="25.0107" cy="33.1541" rx="14.615" ry="4.98816" transform="rotate(-7.07465 25.0107 33.1541)" fill="url(#paint1_radial_5429_36906)"/>
<g filter="url(#filter1_f_5429_36906)">
<ellipse cx="25.5838" cy="33.0846" rx="14.0373" ry="4.98816" transform="rotate(-7.07465 25.5838 33.0846)" fill="url(#paint2_radial_5429_36906)"/>
</g>
<mask id="mask0_5429_36906" style="mask-type:alpha" maskUnits="userSpaceOnUse" x="0" y="0" width="39" height="39">
<circle cx="19.1134" cy="19.1134" r="19.1134" fill="url(#paint3_radial_5429_36906)"/>
</mask>
<g mask="url(#mask0_5429_36906)">
<circle cx="19.1134" cy="19.1134" r="19.1134" fill="url(#paint4_radial_5429_36906)"/>
<g filter="url(#filter2_f_5429_36906)">
<ellipse cx="10.5759" cy="8.68215" rx="16.3454" ry="15.8501" fill="#D7D96A" fill-opacity="0.13"/>
</g>
<g filter="url(#filter3_f_5429_36906)">
<ellipse cx="30.6814" cy="33.1001" rx="16.3454" ry="15.8501" fill="#1B2372" fill-opacity="0.43"/>
</g>
<g filter="url(#filter4_f_5429_36906)">
<path d="M38.401 20.9506C38.5752 21.5495 40.453 30.4731 30.6799 37.9661C26.7979 40.9425 15.645 38.565 15.4708 37.9661C15.2966 37.3672 24.5322 36.2762 29.6019 33.0421C37.4216 28.0536 38.2268 20.3517 38.401 20.9506Z" fill="#51779F" fill-opacity="0.61"/>
</g>
<g filter="url(#filter5_f_5429_36906)">
<ellipse cx="10.6048" cy="7.63533" rx="1.48322" ry="3.10549" transform="rotate(45 10.6048 7.63533)" fill="#E3F7FF"/>
</g>
<g filter="url(#filter6_f_5429_36906)">
<ellipse cx="10.6056" cy="7.63421" rx="0.782743" ry="1.63887" transform="rotate(45 10.6056 7.63421)" fill="#E2F7FF"/>
</g>
<g filter="url(#filter7_f_5429_36906)">
<path d="M35.0221 7.34375C36.6052 15.9875 32.0386 35.198 8.2168 36.2469" stroke="#010E1B" stroke-width="1.16545"/>
</g>
<g filter="url(#filter8_f_5429_36906)">
<path d="M27.4893 -0.423898C11.4644 -5.90151 -7.1828 11.2597 2.81094 30.8102" stroke="#FCFFDD" stroke-width="1.16545"/>
</g>
<g filter="url(#filter9_f_5429_36906)">
<path d="M33.0996 6.32422C38.6355 11.2191 41.2286 19.7269 34.1194 31.09" stroke="#A1A0DB" stroke-opacity="0.65" stroke-width="1.16545"/>
</g>
</g>
<mask id="mask1_5429_36906" style="mask-type:luminance" maskUnits="userSpaceOnUse" x="7" y="11" width="24" height="14">
<path d="M30.9682 11.0156H7.10938V24.9921H30.9682V11.0156Z" fill="white"/>
</mask>
<g mask="url(#mask1_5429_36906)">
<path d="M29.5207 11.0711C29.0795 11.033 28.749 11.1215 28.5107 11.3405C28.2003 11.6257 28.0502 12.1245 28.0393 12.9084C27.7825 13.2012 27.5266 13.4924 27.2716 13.7821C26.6825 14.4518 26.0734 15.1442 25.4822 15.8273C24.8909 16.5105 24.2945 17.2105 23.7176 17.8875C23.47 18.1779 23.2222 18.4686 22.9741 18.7596C22.907 18.7581 22.8371 18.7532 22.7638 18.7481C22.5471 18.7196 22.3272 18.7308 22.1146 18.7812C21.8317 18.867 21.6635 18.7868 21.4148 18.5869C20.0456 17.4882 18.773 16.6344 17.5244 15.9771C17.4263 15.9321 17.34 15.8648 17.272 15.7805C17.2041 15.6963 17.1564 15.5973 17.1327 15.4914C17.0337 15.1104 16.7902 14.7839 16.4547 14.582C16.1192 14.3802 15.7185 14.3193 15.3388 14.4123C14.9528 14.5032 14.615 14.7375 14.393 15.0685C14.1709 15.3995 14.0808 15.8028 14.1409 16.1978C14.1564 16.3022 14.1751 16.4065 14.1931 16.5059L14.2076 16.5876L9.19335 21.4481C9.16787 21.4456 9.14247 21.4428 9.11718 21.4402C9.03361 21.4311 8.94713 21.422 8.86043 21.4197C8.03113 21.3957 7.52136 21.7613 7.25513 22.5709C7.05544 23.1781 7.27404 23.72 7.45591 24.0748C7.57912 24.3298 7.76678 24.5476 8.00002 24.7061C8.23326 24.8648 8.50383 24.9587 8.78452 24.9784C8.81278 24.9799 8.84098 24.9807 8.86914 24.9807C9.13933 24.9767 9.40427 24.9048 9.64005 24.7717C9.87582 24.6386 10.075 24.4485 10.2196 24.2184C10.6518 23.5637 10.719 22.9501 10.4237 22.3448L15.2892 17.673L16.6446 17.251L20.6654 20.0315C20.6971 20.6295 20.8449 21.078 21.1417 21.48C21.3145 21.727 21.5654 21.9076 21.8533 21.9923C22.1411 22.077 22.4489 22.0608 22.7264 21.9463C23.5287 21.639 23.9743 20.9581 23.9533 20.0748L28.833 13.9656C29.5252 14.1018 30.0625 14.0382 30.4306 13.776C30.7152 13.5735 30.8884 13.2596 30.9453 12.8429C30.9779 12.6328 30.9675 12.4181 30.9145 12.2123C30.8616 12.0064 30.7673 11.8137 30.6374 11.6461C30.5002 11.4783 30.3303 11.3407 30.1382 11.2418C29.9462 11.1429 29.736 11.0848 29.5207 11.0711Z" fill="white"/>
</g>
<defs>
<filter id="filter0_f_5429_36906" x="7.96865" y="20.8515" width="41.9299" height="19.094" filterUnits="userSpaceOnUse" color-interpolation-filters="sRGB">
<feFlood flood-opacity="0" result="BackgroundImageFix"/>
<feBlend mode="normal" in="SourceGraphic" in2="BackgroundImageFix" result="shape"/>
<feGaussianBlur stdDeviation="0.69927" result="effect1_foregroundBlur_5429_36906"/>
</filter>
<filter id="filter1_f_5429_36906" x="5.46179" y="21.663" width="40.2424" height="22.8421" filterUnits="userSpaceOnUse" color-interpolation-filters="sRGB">
<feFlood flood-opacity="0" result="BackgroundImageFix"/>
<feBlend mode="normal" in="SourceGraphic" in2="BackgroundImageFix" result="shape"/>
<feGaussianBlur stdDeviation="3.08844" result="effect1_foregroundBlur_5429_36906"/>
</filter>
<filter id="filter2_f_5429_36906" x="-17.9485" y="-19.3469" width="57.0493" height="56.0571" filterUnits="userSpaceOnUse" color-interpolation-filters="sRGB">
<feFlood flood-opacity="0" result="BackgroundImageFix"/>
<feBlend mode="normal" in="SourceGraphic" in2="BackgroundImageFix" result="shape"/>
<feGaussianBlur stdDeviation="6.08948" result="effect1_foregroundBlur_5429_36906"/>
</filter>
<filter id="filter3_f_5429_36906" x="2.15698" y="5.07105" width="57.0493" height="56.0571" filterUnits="userSpaceOnUse" color-interpolation-filters="sRGB">
<feFlood flood-opacity="0" result="BackgroundImageFix"/>
<feBlend mode="normal" in="SourceGraphic" in2="BackgroundImageFix" result="shape"/>
<feGaussianBlur stdDeviation="6.08948" result="effect1_foregroundBlur_5429_36906"/>
</filter>
<filter id="filter4_f_5429_36906" x="12.5551" y="18.0043" width="29.0148" height="24.3429" filterUnits="userSpaceOnUse" color-interpolation-filters="sRGB">
<feFlood flood-opacity="0" result="BackgroundImageFix"/>
<feBlend mode="normal" in="SourceGraphic" in2="BackgroundImageFix" result="shape"/>
<feGaussianBlur stdDeviation="1.45681" result="effect1_foregroundBlur_5429_36906"/>
</filter>
<filter id="filter5_f_5429_36906" x="4.38221" y="1.41541" width="12.4446" height="12.4426" filterUnits="userSpaceOnUse" color-interpolation-filters="sRGB">
<feFlood flood-opacity="0" result="BackgroundImageFix"/>
<feBlend mode="normal" in="SourceGraphic" in2="BackgroundImageFix" result="shape"/>
<feGaussianBlur stdDeviation="1.89386" result="effect1_foregroundBlur_5429_36906"/>
</filter>
<filter id="filter6_f_5429_36906" x="9.08722" y="6.11847" width="3.03649" height="3.03259" filterUnits="userSpaceOnUse" color-interpolation-filters="sRGB">
<feFlood flood-opacity="0" result="BackgroundImageFix"/>
<feBlend mode="normal" in="SourceGraphic" in2="BackgroundImageFix" result="shape"/>
<feGaussianBlur stdDeviation="0.116545" result="effect1_foregroundBlur_5429_36906"/>
</filter>
<filter id="filter7_f_5429_36906" x="1.89798" y="0.944851" width="40.2822" height="42.1767" filterUnits="userSpaceOnUse" color-interpolation-filters="sRGB">
<feFlood flood-opacity="0" result="BackgroundImageFix"/>
<feBlend mode="normal" in="SourceGraphic" in2="BackgroundImageFix" result="shape"/>
<feGaussianBlur stdDeviation="3.14672" result="effect1_foregroundBlur_5429_36906"/>
</filter>
<filter id="filter8_f_5429_36906" x="-4.48629" y="-5.94332" width="36.0683" height="40.9218" filterUnits="userSpaceOnUse" color-interpolation-filters="sRGB">
<feFlood flood-opacity="0" result="BackgroundImageFix"/>
<feBlend mode="normal" in="SourceGraphic" in2="BackgroundImageFix" result="shape"/>
<feGaussianBlur stdDeviation="1.95213" result="effect1_foregroundBlur_5429_36906"/>
</filter>
<filter id="filter9_f_5429_36906" x="28.1094" y="1.28319" width="15.5235" height="34.7188" filterUnits="userSpaceOnUse" color-interpolation-filters="sRGB">
<feFlood flood-opacity="0" result="BackgroundImageFix"/>
<feBlend mode="normal" in="SourceGraphic" in2="BackgroundImageFix" result="shape"/>
<feGaussianBlur stdDeviation="2.30176" result="effect1_foregroundBlur_5429_36906"/>
</filter>
<radialGradient id="paint0_radial_5429_36906" cx="0" cy="0" r="1" gradientUnits="userSpaceOnUse" gradientTransform="translate(18.2587 33.8553) rotate(-11.8288) scale(27.8342 85.8467)">
<stop stop-color="#093041"/>
<stop offset="1" stop-color="#4E6A76" stop-opacity="0"/>
</radialGradient>
<radialGradient id="paint1_radial_5429_36906" cx="0" cy="0" r="1" gradientUnits="userSpaceOnUse" gradientTransform="translate(17.2143 35.6243) rotate(-8.58869) scale(18.0524 54.6236)">
<stop stop-color="#000D12"/>
<stop offset="1" stop-color="#082430" stop-opacity="0"/>
</radialGradient>
<radialGradient id="paint2_radial_5429_36906" cx="0" cy="0" r="1" gradientUnits="userSpaceOnUse" gradientTransform="translate(18.0956 35.5549) rotate(-8.40541) scale(20.6654 64.9821)">
<stop stop-color="#228B22"/>
<stop offset="0.0001" stop-color="#082430" stop-opacity="0"/>
<stop offset="1" stop-color="#4AC63F" stop-opacity="0.81"/>
</radialGradient>
<radialGradient id="paint3_radial_5429_36906" cx="0" cy="0" r="1" gradientUnits="userSpaceOnUse" gradientTransform="translate(10.693 8.18729) rotate(49.1614) scale(36.6247 37.882)">
<stop stop-color="#B9EBFF"/>
<stop offset="0.156338" stop-color="#7DCCED"/>
<stop offset="0.519012" stop-color="#4290AF"/>
<stop offset="0.710329" stop-color="#156282"/>
<stop offset="1" stop-color="#1B7398"/>
</radialGradient>
<radialGradient id="paint4_radial_5429_36906" cx="0" cy="0" r="1" gradientUnits="userSpaceOnUse" gradientTransform="translate(10.693 8.18729) rotate(49.1614) scale(36.6247 37.882)">
<stop stop-color="#D8FFB9"/>
<stop offset="0.156338" stop-color="#A1FD92"/>
<stop offset="0.519012" stop-color="#4AC63F"/>
<stop offset="0.710329" stop-color="#4AC63F"/>
<stop offset="1" stop-color="#228B22"/>
</radialGradient>
</defs>
</svg>
