<svg width="95" height="95" viewBox="0 0 95 95" fill="none" xmlns="http://www.w3.org/2000/svg">
<g filter="url(#filter0_d_5469_2403)">
<g filter="url(#filter1_i_5469_2403)">
<circle cx="47.5" cy="31.5" r="23.5" fill="#4AC63F"/>
<circle cx="47.5" cy="31.5" r="23.5" fill="url(#paint0_radial_5469_2403)"/>
<circle cx="47.5" cy="31.5" r="23.5" fill="url(#paint1_radial_5469_2403)" fill-opacity="0.45" style="mix-blend-mode:lighten"/>
<circle cx="47.5" cy="31.5" r="23.5" fill="url(#paint2_radial_5469_2403)" fill-opacity="0.15" style="mix-blend-mode:lighten"/>
<circle cx="47.5" cy="31.5" r="23.5" fill="url(#paint3_radial_5469_2403)" fill-opacity="0.56" style="mix-blend-mode:multiply"/>
</g>
<path d="M48.0003 31.9987C47.3081 31.9987 46.6314 32.204 46.0558 32.5886C45.4803 32.9731 45.0317 33.5198 44.7667 34.1593C44.5018 34.7988 44.4325 35.5026 44.5676 36.1815C44.7026 36.8604 45.036 37.4841 45.5255 37.9736C46.0149 38.4631 46.6386 38.7964 47.3175 38.9314C47.9964 39.0665 48.7002 38.9972 49.3397 38.7323C49.9793 38.4674 50.5259 38.0188 50.9105 37.4432C51.2951 36.8676 51.5003 36.1909 51.5003 35.4987C51.5003 34.5704 51.1316 33.6802 50.4752 33.0238C49.8188 32.3674 48.9286 31.9987 48.0003 31.9987ZM48.0003 36.6654C47.7696 36.6654 47.544 36.5969 47.3522 36.4687C47.1603 36.3406 47.0108 36.1583 46.9225 35.9452C46.8342 35.732 46.8111 35.4974 46.8561 35.2711C46.9011 35.0448 47.0122 34.8369 47.1754 34.6737C47.3385 34.5106 47.5464 34.3995 47.7727 34.3544C47.999 34.3094 48.2336 34.3325 48.4468 34.4208C48.66 34.5091 48.8422 34.6587 48.9704 34.8505C49.0986 35.0424 49.167 35.268 49.167 35.4987C49.167 35.8081 49.0441 36.1049 48.8253 36.3237C48.6065 36.5424 48.3097 36.6654 48.0003 36.6654ZM47.172 29.327C47.2829 29.4332 47.4138 29.5165 47.557 29.572C47.6966 29.6338 47.8476 29.6656 48.0003 29.6656C48.153 29.6656 48.304 29.6338 48.4437 29.572C48.5869 29.5165 48.7177 29.4332 48.8287 29.327L51.5003 26.702C51.7262 26.4762 51.8531 26.1698 51.8531 25.8504C51.8531 25.5309 51.7262 25.2246 51.5003 24.9987C51.2745 24.7728 50.9681 24.6459 50.6487 24.6459C50.3292 24.6459 50.0229 24.7728 49.797 24.9987L49.167 25.687V21.4987C49.167 21.1893 49.0441 20.8925 48.8253 20.6737C48.6065 20.4549 48.3097 20.332 48.0003 20.332C47.6909 20.332 47.3942 20.4549 47.1754 20.6737C46.9566 20.8925 46.8337 21.1893 46.8337 21.4987V25.687L46.2037 24.9987C45.9778 24.7728 45.6714 24.6459 45.352 24.6459C45.0326 24.6459 44.7262 24.7728 44.5003 24.9987C44.2745 25.2246 44.1476 25.5309 44.1476 25.8504C44.1476 26.1698 44.2745 26.4762 44.5003 26.702L47.172 29.327ZM56.167 35.4987C56.167 35.268 56.0986 35.0424 55.9704 34.8505C55.8422 34.6587 55.66 34.5091 55.4468 34.4208C55.2336 34.3325 54.999 34.3094 54.7727 34.3544C54.5464 34.3995 54.3385 34.5106 54.1754 34.6737C54.0122 34.8369 53.9011 35.0448 53.8561 35.2711C53.8111 35.4974 53.8342 35.732 53.9225 35.9452C54.0108 36.1583 54.1603 36.3406 54.3522 36.4687C54.544 36.5969 54.7696 36.6654 55.0003 36.6654C55.3097 36.6654 55.6065 36.5424 55.8253 36.3237C56.0441 36.1049 56.167 35.8081 56.167 35.4987ZM57.3337 27.332H53.8337C53.5242 27.332 53.2275 27.4549 53.0087 27.6737C52.7899 27.8925 52.667 28.1893 52.667 28.4987C52.667 28.8081 52.7899 29.1049 53.0087 29.3237C53.2275 29.5424 53.5242 29.6654 53.8337 29.6654H57.3337C57.6431 29.6654 57.9398 29.7883 58.1586 30.0071C58.3774 30.2259 58.5003 30.5226 58.5003 30.832V40.1654C58.5003 40.4748 58.3774 40.7715 58.1586 40.9903C57.9398 41.2091 57.6431 41.332 57.3337 41.332H38.667C38.3576 41.332 38.0608 41.2091 37.842 40.9903C37.6232 40.7715 37.5003 40.4748 37.5003 40.1654V30.832C37.5003 30.5226 37.6232 30.2259 37.842 30.0071C38.0608 29.7883 38.3576 29.6654 38.667 29.6654H42.167C42.4764 29.6654 42.7732 29.5424 42.992 29.3237C43.2107 29.1049 43.3337 28.8081 43.3337 28.4987C43.3337 28.1893 43.2107 27.8925 42.992 27.6737C42.7732 27.4549 42.4764 27.332 42.167 27.332H38.667C37.7387 27.332 36.8485 27.7008 36.1921 28.3572C35.5357 29.0135 35.167 29.9038 35.167 30.832V40.1654C35.167 41.0936 35.5357 41.9839 36.1921 42.6402C36.8485 43.2966 37.7387 43.6654 38.667 43.6654H57.3337C58.2619 43.6654 59.1522 43.2966 59.8085 42.6402C60.4649 41.9839 60.8337 41.0936 60.8337 40.1654V30.832C60.8337 29.9038 60.4649 29.0135 59.8085 28.3572C59.1522 27.7008 58.2619 27.332 57.3337 27.332ZM39.8337 35.4987C39.8337 35.7294 39.9021 35.955 40.0303 36.1469C40.1585 36.3387 40.3407 36.4883 40.5539 36.5766C40.767 36.6649 41.0016 36.688 41.2279 36.6429C41.4542 36.5979 41.6621 36.4868 41.8253 36.3237C41.9884 36.1605 42.0996 35.9526 42.1446 35.7263C42.1896 35.5 42.1665 35.2654 42.0782 35.0522C41.9899 34.8391 41.8403 34.6568 41.6485 34.5286C41.4566 34.4005 41.2311 34.332 41.0003 34.332C40.6909 34.332 40.3942 34.4549 40.1754 34.6737C39.9566 34.8925 39.8337 35.1893 39.8337 35.4987Z" fill="white"/>
</g>
<defs>
<filter id="filter0_d_5469_2403" x="0" y="0" width="95" height="95" filterUnits="userSpaceOnUse" color-interpolation-filters="sRGB">
<feFlood flood-opacity="0" result="BackgroundImageFix"/>
<feColorMatrix in="SourceAlpha" type="matrix" values="0 0 0 0 0 0 0 0 0 0 0 0 0 0 0 0 0 0 127 0" result="hardAlpha"/>
<feMorphology radius="8" operator="erode" in="SourceAlpha" result="effect1_dropShadow_5469_2403"/>
<feOffset dy="16"/>
<feGaussianBlur stdDeviation="16"/>
<feComposite in2="hardAlpha" operator="out"/>
<feColorMatrix type="matrix" values="0 0 0 0 0.290196 0 0 0 0 0.776471 0 0 0 0 0.247059 0 0 0 0.25 0"/>
<feBlend mode="normal" in2="BackgroundImageFix" result="effect1_dropShadow_5469_2403"/>
<feBlend mode="normal" in="SourceGraphic" in2="effect1_dropShadow_5469_2403" result="shape"/>
</filter>
<filter id="filter1_i_5469_2403" x="24" y="6.50046" width="47.9997" height="48.4995" filterUnits="userSpaceOnUse" color-interpolation-filters="sRGB">
<feFlood flood-opacity="0" result="BackgroundImageFix"/>
<feBlend mode="normal" in="SourceGraphic" in2="BackgroundImageFix" result="shape"/>
<feColorMatrix in="SourceAlpha" type="matrix" values="0 0 0 0 0 0 0 0 0 0 0 0 0 0 0 0 0 0 127 0" result="hardAlpha"/>
<feOffset dx="0.999692" dy="-1.49954"/>
<feGaussianBlur stdDeviation="3.99877"/>
<feComposite in2="hardAlpha" operator="arithmetic" k2="-1" k3="1"/>
<feColorMatrix type="matrix" values="0 0 0 0 0 0 0 0 0 0 0 0 0 0 0 0 0 0 0.25 0"/>
<feBlend mode="normal" in2="shape" result="effect1_innerShadow_5469_2403"/>
</filter>
<radialGradient id="paint0_radial_5469_2403" cx="0" cy="0" r="1" gradientUnits="userSpaceOnUse" gradientTransform="translate(54.2748 22.1847) rotate(123.232) scale(22.0201 22.0201)">
<stop stop-color="#4AC63F"/>
<stop offset="1" stop-color="#228B22"/>
</radialGradient>
<radialGradient id="paint1_radial_5469_2403" cx="0" cy="0" r="1" gradientUnits="userSpaceOnUse" gradientTransform="translate(54.4865 20.7027) rotate(123.69) scale(19.8468)">
<stop stop-color="white"/>
<stop offset="1" stop-color="white" stop-opacity="0"/>
</radialGradient>
<radialGradient id="paint2_radial_5469_2403" cx="0" cy="0" r="1" gradientUnits="userSpaceOnUse" gradientTransform="translate(49.6171 25.5721) rotate(111.949) scale(30.5863)">
<stop offset="0.596475" stop-color="white" stop-opacity="0"/>
<stop offset="0.742517" stop-color="white"/>
<stop offset="0.832316" stop-color="white"/>
<stop offset="1" stop-color="white" stop-opacity="0"/>
</radialGradient>
<radialGradient id="paint3_radial_5469_2403" cx="0" cy="0" r="1" gradientUnits="userSpaceOnUse" gradientTransform="translate(51.9459 18.1622) rotate(106.798) scale(35.1626)">
<stop offset="0.238216" stop-color="#219125" stop-opacity="0"/>
<stop offset="0.640216" stop-color="#4AC63F" stop-opacity="0.81"/>
<stop offset="0.791876" stop-color="#3A8B1D" stop-opacity="0.99"/>
<stop offset="0.868482" stop-color="#258A1D" stop-opacity="0.81"/>
<stop offset="1" stop-color="#4AC63F" stop-opacity="0.6"/>
</radialGradient>
</defs>
</svg>
