<svg width="95" height="95" viewBox="0 0 95 95" fill="none" xmlns="http://www.w3.org/2000/svg">
<g filter="url(#filter0_d_5469_2396)">
<g filter="url(#filter1_i_5469_2396)">
<circle cx="47.5" cy="31.5" r="23.5" fill="#4AC63F"/>
<circle cx="47.5" cy="31.5" r="23.5" fill="url(#paint0_radial_5469_2396)"/>
<circle cx="47.5" cy="31.5" r="23.5" fill="url(#paint1_radial_5469_2396)" fill-opacity="0.45" style="mix-blend-mode:lighten"/>
<circle cx="47.5" cy="31.5" r="23.5" fill="url(#paint2_radial_5469_2396)" fill-opacity="0.15" style="mix-blend-mode:lighten"/>
<circle cx="47.5" cy="31.5" r="23.5" fill="url(#paint3_radial_5469_2396)" fill-opacity="0.56" style="mix-blend-mode:multiply"/>
</g>
<path d="M48.3503 32.2554C48.9728 31.7165 49.4721 31.0501 49.8143 30.3012C50.1566 29.5524 50.3337 28.7387 50.3337 27.9154C50.3337 26.3683 49.7191 24.8845 48.6251 23.7906C47.5312 22.6966 46.0474 22.082 44.5003 22.082C42.9532 22.082 41.4695 22.6966 40.3755 23.7906C39.2816 24.8845 38.667 26.3683 38.667 27.9154C38.667 28.7387 38.8441 29.5524 39.1863 30.3012C39.5285 31.0501 40.0278 31.7165 40.6503 32.2554C39.0172 32.9949 37.6315 34.1891 36.6591 35.6953C35.6867 37.2015 35.1687 38.9559 35.167 40.7487C35.167 41.0581 35.2899 41.3549 35.5087 41.5737C35.7275 41.7925 36.0242 41.9154 36.3337 41.9154C36.6431 41.9154 36.9398 41.7925 37.1586 41.5737C37.3774 41.3549 37.5003 41.0581 37.5003 40.7487C37.5003 38.8922 38.2378 37.1117 39.5506 35.799C40.8633 34.4862 42.6438 33.7487 44.5003 33.7487C46.3568 33.7487 48.1373 34.4862 49.4501 35.799C50.7628 37.1117 51.5003 38.8922 51.5003 40.7487C51.5003 41.0581 51.6232 41.3549 51.842 41.5737C52.0608 41.7925 52.3576 41.9154 52.667 41.9154C52.9764 41.9154 53.2732 41.7925 53.492 41.5737C53.7107 41.3549 53.8337 41.0581 53.8337 40.7487C53.8319 38.9559 53.3139 37.2015 52.3415 35.6953C51.3691 34.1891 49.9835 32.9949 48.3503 32.2554V32.2554ZM44.5003 31.4154C43.8081 31.4154 43.1314 31.2101 42.5558 30.8255C41.9803 30.4409 41.5317 29.8943 41.2667 29.2548C41.0018 28.6152 40.9325 27.9115 41.0676 27.2325C41.2026 26.5536 41.536 25.93 42.0255 25.4405C42.5149 24.951 43.1386 24.6177 43.8175 24.4826C44.4964 24.3476 45.2002 24.4169 45.8397 24.6818C46.4793 24.9467 47.0259 25.3953 47.4105 25.9709C47.7951 26.5464 48.0003 27.2231 48.0003 27.9154C48.0003 28.8436 47.6316 29.7339 46.9752 30.3902C46.3188 31.0466 45.4286 31.4154 44.5003 31.4154ZM55.8637 31.7887C56.6103 30.9479 57.098 29.9093 57.2681 28.7978C57.4382 27.6863 57.2834 26.5493 56.8224 25.5237C56.3614 24.4981 55.6138 23.6276 54.6695 23.017C53.7253 22.4064 52.6248 22.0817 51.5003 22.082C51.1909 22.082 50.8942 22.2049 50.6754 22.4237C50.4566 22.6425 50.3337 22.9393 50.3337 23.2487C50.3337 23.5581 50.4566 23.8549 50.6754 24.0737C50.8942 24.2924 51.1909 24.4154 51.5003 24.4154C52.4286 24.4154 53.3188 24.7841 53.9752 25.4405C54.6316 26.0969 55.0003 26.9871 55.0003 27.9154C54.9987 28.5281 54.8362 29.1298 54.5291 29.66C54.222 30.1903 53.781 30.6306 53.2503 30.937C53.0774 31.0368 52.9329 31.1793 52.8307 31.3509C52.7286 31.5225 52.6722 31.7174 52.667 31.917C52.6621 32.1151 52.7077 32.3111 52.7996 32.4867C52.8914 32.6622 53.0265 32.8115 53.192 32.9204L53.647 33.2237L53.7987 33.3054C55.205 33.9724 56.3914 35.0274 57.2181 36.3461C58.0449 37.6648 58.4776 39.1923 58.4653 40.7487C58.4653 41.0581 58.5882 41.3549 58.807 41.5737C59.0258 41.7925 59.3226 41.9154 59.632 41.9154C59.9414 41.9154 60.2382 41.7925 60.4569 41.5737C60.6757 41.3549 60.7987 41.0581 60.7987 40.7487C60.8082 38.9584 60.3598 37.1953 59.496 35.6271C58.6323 34.0589 57.3819 32.7376 55.8637 31.7887V31.7887Z" fill="white"/>
</g>
<defs>
<filter id="filter0_d_5469_2396" x="0" y="0" width="95" height="95" filterUnits="userSpaceOnUse" color-interpolation-filters="sRGB">
<feFlood flood-opacity="0" result="BackgroundImageFix"/>
<feColorMatrix in="SourceAlpha" type="matrix" values="0 0 0 0 0 0 0 0 0 0 0 0 0 0 0 0 0 0 127 0" result="hardAlpha"/>
<feMorphology radius="8" operator="erode" in="SourceAlpha" result="effect1_dropShadow_5469_2396"/>
<feOffset dy="16"/>
<feGaussianBlur stdDeviation="16"/>
<feComposite in2="hardAlpha" operator="out"/>
<feColorMatrix type="matrix" values="0 0 0 0 0.290196 0 0 0 0 0.776471 0 0 0 0 0.247059 0 0 0 0.25 0"/>
<feBlend mode="normal" in2="BackgroundImageFix" result="effect1_dropShadow_5469_2396"/>
<feBlend mode="normal" in="SourceGraphic" in2="effect1_dropShadow_5469_2396" result="shape"/>
</filter>
<filter id="filter1_i_5469_2396" x="24" y="6.50046" width="47.9997" height="48.4995" filterUnits="userSpaceOnUse" color-interpolation-filters="sRGB">
<feFlood flood-opacity="0" result="BackgroundImageFix"/>
<feBlend mode="normal" in="SourceGraphic" in2="BackgroundImageFix" result="shape"/>
<feColorMatrix in="SourceAlpha" type="matrix" values="0 0 0 0 0 0 0 0 0 0 0 0 0 0 0 0 0 0 127 0" result="hardAlpha"/>
<feOffset dx="0.999692" dy="-1.49954"/>
<feGaussianBlur stdDeviation="3.99877"/>
<feComposite in2="hardAlpha" operator="arithmetic" k2="-1" k3="1"/>
<feColorMatrix type="matrix" values="0 0 0 0 0 0 0 0 0 0 0 0 0 0 0 0 0 0 0.25 0"/>
<feBlend mode="normal" in2="shape" result="effect1_innerShadow_5469_2396"/>
</filter>
<radialGradient id="paint0_radial_5469_2396" cx="0" cy="0" r="1" gradientUnits="userSpaceOnUse" gradientTransform="translate(54.2748 22.1847) rotate(123.232) scale(22.0201 22.0201)">
<stop stop-color="#4AC63F"/>
<stop offset="1" stop-color="#228B22"/>
</radialGradient>
<radialGradient id="paint1_radial_5469_2396" cx="0" cy="0" r="1" gradientUnits="userSpaceOnUse" gradientTransform="translate(54.4865 20.7027) rotate(123.69) scale(19.8468)">
<stop stop-color="white"/>
<stop offset="1" stop-color="white" stop-opacity="0"/>
</radialGradient>
<radialGradient id="paint2_radial_5469_2396" cx="0" cy="0" r="1" gradientUnits="userSpaceOnUse" gradientTransform="translate(49.6171 25.5721) rotate(111.949) scale(30.5863)">
<stop offset="0.596475" stop-color="white" stop-opacity="0"/>
<stop offset="0.742517" stop-color="white"/>
<stop offset="0.832316" stop-color="white"/>
<stop offset="1" stop-color="white" stop-opacity="0"/>
</radialGradient>
<radialGradient id="paint3_radial_5469_2396" cx="0" cy="0" r="1" gradientUnits="userSpaceOnUse" gradientTransform="translate(51.9459 18.1622) rotate(106.798) scale(35.1626)">
<stop offset="0.238216" stop-color="#219125" stop-opacity="0"/>
<stop offset="0.640216" stop-color="#4AC63F" stop-opacity="0.81"/>
<stop offset="0.791876" stop-color="#3A8B1D" stop-opacity="0.99"/>
<stop offset="0.868482" stop-color="#258A1D" stop-opacity="0.81"/>
<stop offset="1" stop-color="#4AC63F" stop-opacity="0.6"/>
</radialGradient>
</defs>
</svg>
