<svg width="26" height="24" viewBox="0 0 26 24" fill="none" xmlns="http://www.w3.org/2000/svg">
<path d="M10.4256 14.0977C10.334 14.5788 10.2861 15.0811 10.2861 15.6007C10.2861 15.9741 10.3114 16.3396 10.3605 16.693H11.0276V14.0977H10.4256ZM8.93865 10.5589L10.0841 7.96359H3.83049V4.42344H10.7911V1.82812H1V16.693H9.75723C9.71072 16.3342 9.68813 15.9701 9.68813 15.6007C9.68813 15.0864 9.73198 14.5841 9.81703 14.0977H3.83049V10.5589H8.93865Z" fill="white" stroke="white" stroke-width="0.132888" stroke-miterlimit="10"/>
<path d="M21.419 16.6934C20.9459 18.4994 19.5839 19.5651 17.7779 19.5651C17.661 19.5651 17.5467 19.5611 17.4324 19.5518C17.3753 19.5479 17.3181 19.5425 17.261 19.5346C17.1122 19.5199 16.9673 19.4947 16.8238 19.4628C16.7534 19.4482 16.6816 19.4309 16.6125 19.411C14.9886 18.9631 13.8099 17.5691 13.8099 15.5678C13.8099 14.4263 14.2033 13.4815 14.8478 12.8011C14.873 12.7732 14.8996 12.7453 14.9275 12.7187C14.8013 12.5473 14.675 12.3772 14.5475 12.2084L14.5368 12.1965C14.0106 11.4961 13.4658 10.7719 13.0352 10.0078C13.0007 9.94799 12.9674 9.88686 12.9355 9.82573C12.9063 9.84965 12.8771 9.8749 12.8465 9.90015C11.6213 10.9393 10.7496 12.3852 10.4266 14.0941C10.3349 14.5752 10.2871 15.0775 10.2871 15.5971C10.2871 15.9705 10.3124 16.3359 10.3615 16.6894C10.8718 20.4342 13.992 23.0282 17.7779 23.0282C21.5639 23.0282 24.6455 20.4542 25.0003 16.6934H21.419ZM21.1546 10.1606C21.0629 9.67557 20.934 9.1985 20.7745 8.73339C19.8589 8.34801 18.8437 8.13672 17.7779 8.13672C16.1208 8.13672 14.5913 8.63372 13.3528 9.50946C13.3953 9.59318 13.4392 9.67557 13.4857 9.75663C13.9933 10.6616 14.6684 11.5054 15.3182 12.3825C15.9946 11.8775 16.8491 11.6011 17.7779 11.6011C17.8178 11.6011 17.8577 11.6011 17.8989 11.6038C18.0224 11.6051 18.1434 11.6144 18.263 11.629C19.5334 11.7739 20.5446 12.4968 21.0828 13.6237C21.3765 12.4516 21.3659 11.2835 21.1546 10.1606ZM21.5519 9.11478C21.5054 9.0882 21.4589 9.06295 21.411 9.03637C21.5107 9.37391 21.5944 9.71676 21.6595 10.0636C21.9479 11.5905 21.8629 13.0323 21.4044 14.3825H21.528L24.9724 14.3253C24.785 12.0755 23.4575 10.1925 21.5519 9.11478Z" fill="white" stroke="white" stroke-width="0.132888" stroke-miterlimit="10"/>
<path d="M21.0824 13.625C20.6 15.5558 19.2937 17.5013 16.7131 19.2927C16.7835 19.193 19.5223 15.2728 18.2625 11.6303C18.1097 11.1865 17.8958 10.7453 17.6114 10.3161C17.626 10.3612 17.7815 10.8463 17.8971 11.6051C18.1257 13.0987 18.1988 15.6595 16.7317 18.0448C16.7317 18.0448 17.4041 15.2369 15.5145 12.6496C15.4493 12.5605 15.3856 12.4728 15.3178 12.3838C14.668 11.5054 13.9929 10.6629 13.4839 9.75659C13.4388 9.67553 13.3936 9.59314 13.3511 9.50942C12.5577 7.98519 12.2747 6.26428 13.3736 3.90684C13.7856 3.02711 14.3876 2.0557 15.2314 0.972656C15.2314 0.972656 16.2879 1.85902 17.5197 3.30618C18.7037 4.69486 20.0472 6.59916 20.7728 8.73335C20.9322 9.19979 21.0611 9.67686 21.1528 10.1606C21.3641 11.2848 21.3748 12.4516 21.0824 13.6236V13.625Z" fill="white" stroke="white" stroke-width="0.132888" stroke-miterlimit="10"/>
</svg>
