<svg width="26" height="24" viewBox="0 0 22 20" fill="none" xmlns="http://www.w3.org/2000/svg">
<path d="M8.85498 11.7445C8.77856 12.1454 8.7387 12.5641 8.7387 12.9971C8.7387 13.3083 8.75974 13.6128 8.80071 13.9074H9.35664V11.7445H8.85498ZM7.61577 8.79543L8.57037 6.63259H3.35882V3.68237H9.15952V1.51953H1V13.9074H8.29794C8.25918 13.6084 8.24035 13.3049 8.24035 12.9971C8.24035 12.5685 8.2769 12.1499 8.34777 11.7445H3.35882V8.79543H7.61577Z" fill="#228B22" stroke="white" stroke-width="0.110743" stroke-miterlimit="10"/>
<path d="M18.0152 13.9121C17.6209 15.4171 16.4858 16.3053 14.9808 16.3053C14.8834 16.3053 14.7882 16.3019 14.6929 16.2942C14.6453 16.2909 14.5977 16.2864 14.5501 16.2798C14.426 16.2676 14.3053 16.2466 14.1857 16.22C14.127 16.2078 14.0672 16.1934 14.0096 16.1768C12.6564 15.8036 11.6741 14.6419 11.6741 12.9741C11.6741 12.0228 12.0019 11.2354 12.539 10.6684C12.56 10.6451 12.5822 10.6219 12.6054 10.5997C12.5002 10.4569 12.395 10.3151 12.2887 10.1745L12.2798 10.1645C11.8413 9.58086 11.3872 8.97731 11.0284 8.34053C10.9996 8.29069 10.972 8.23975 10.9454 8.18881C10.921 8.20874 10.8967 8.22978 10.8712 8.25083C9.85014 9.11685 9.12367 10.3217 8.85456 11.7459C8.77815 12.1468 8.73828 12.5654 8.73828 12.9984C8.73828 13.3096 8.75932 13.6142 8.8003 13.9088C9.22555 17.0295 11.8258 19.1913 14.9808 19.1913C18.1359 19.1913 20.704 17.0461 20.9997 13.9121H18.0152ZM17.7948 8.46788C17.7184 8.06367 17.611 7.6661 17.4781 7.27849C16.7151 6.95733 15.869 6.78125 14.9808 6.78125C13.5999 6.78125 12.3252 7.19543 11.2931 7.92524C11.3286 7.99501 11.3651 8.06367 11.4039 8.13122C11.8269 8.88539 12.3895 9.58862 12.931 10.3195C13.4947 9.8987 14.2068 9.66835 14.9808 9.66835C15.0141 9.66835 15.0473 9.66835 15.0816 9.67057C15.1846 9.67167 15.2854 9.67943 15.3851 9.69161C16.4438 9.81232 17.2865 10.4148 17.735 11.3539C17.9798 10.3771 17.9709 9.40367 17.7948 8.46788ZM18.1259 7.59633C18.0872 7.57418 18.0484 7.55314 18.0085 7.53099C18.0916 7.81228 18.1614 8.098 18.2156 8.38704C18.456 9.65949 18.3851 10.8611 18.003 11.9862H18.106L20.9765 11.9386C20.8203 10.0637 19.714 8.49446 18.1259 7.59633Z" fill="#228B22" stroke="white" stroke-width="0.110743" stroke-miterlimit="10"/>
<path d="M17.7348 11.3526C17.3328 12.9617 16.2442 14.583 14.0935 16.0758C14.1522 15.9927 16.4346 12.7258 15.3848 9.69028C15.2574 9.3204 15.0792 8.95273 14.8422 8.59502C14.8543 8.63268 14.9839 9.03689 15.0803 9.66924C15.2707 10.914 15.3316 13.048 14.109 15.0359C14.109 15.0359 14.6694 12.6959 13.0946 10.5397C13.0404 10.4655 12.9872 10.3924 12.9307 10.3182C12.3892 9.58618 11.8266 8.88406 11.4025 8.12879C11.3648 8.06123 11.3272 7.99257 11.2918 7.9228C10.6306 6.65257 10.3947 5.21843 11.3106 3.25383C11.6539 2.5207 12.1555 1.71116 12.8588 0.808594C12.8588 0.808594 13.7392 1.54726 14.7658 2.75326C15.7525 3.91054 16.8721 5.49751 17.4767 7.27606C17.6096 7.66477 17.717 8.06234 17.7935 8.46545C17.9695 9.40235 17.9784 10.3747 17.7348 11.3514V11.3526Z" fill="#228B22" stroke="white" stroke-width="0.110743" stroke-miterlimit="10"/>
</svg>
