<svg width="47" height="42" viewBox="0 0 47 42" fill="none" xmlns="http://www.w3.org/2000/svg">
<path d="M18.7324 24.9402C18.5599 25.8452 18.4699 26.7902 18.4699 27.7677C18.4699 28.4702 18.5174 29.1577 18.6099 29.8227H19.8649V24.9402H18.7324ZM15.9349 18.2826L18.0899 13.4H6.32498V6.73997H19.4199V1.85742H1V29.8227H17.4749C17.3874 29.1477 17.3449 28.4627 17.3449 27.7677C17.3449 26.8002 17.4274 25.8552 17.5874 24.9402H6.32498V18.2826H15.9349Z" fill="#228B22" stroke="white" stroke-width="0.250001" stroke-miterlimit="10"/>
<path d="M39.4121 29.8301C38.5222 33.2276 35.9597 35.2327 32.5622 35.2327C32.3422 35.2327 32.1272 35.2252 31.9122 35.2077C31.8047 35.2002 31.6972 35.1902 31.5897 35.1752C31.3097 35.1477 31.0372 35.1002 30.7672 35.0402C30.6347 35.0127 30.4997 34.9802 30.3697 34.9427C27.3147 34.1001 25.0972 31.4776 25.0972 27.7126C25.0972 25.5651 25.8372 23.7875 27.0497 22.5075C27.0972 22.455 27.1472 22.4025 27.1997 22.3525C26.9622 22.03 26.7247 21.71 26.4847 21.3925L26.4647 21.37C25.4747 20.0525 24.4497 18.69 23.6397 17.2525C23.5747 17.14 23.5122 17.025 23.4522 16.91C23.3972 16.955 23.3422 17.0025 23.2847 17.05C20.9797 19.005 19.3397 21.725 18.7322 24.94C18.5597 25.8451 18.4697 26.7901 18.4697 27.7676C18.4697 28.4701 18.5172 29.1576 18.6097 29.8226C19.5697 36.8677 25.4397 41.7477 32.5622 41.7477C39.6847 41.7477 45.4821 36.9052 46.1496 29.8301H39.4121ZM38.9147 17.54C38.7422 16.6275 38.4997 15.7299 38.1997 14.8549C36.4772 14.1299 34.5672 13.7324 32.5622 13.7324C29.4447 13.7324 26.5672 14.6674 24.2372 16.3149C24.3172 16.4725 24.3997 16.6275 24.4872 16.78C25.4422 18.4825 26.7122 20.07 27.9347 21.72C29.2072 20.77 30.8147 20.25 32.5622 20.25C32.6372 20.25 32.7122 20.25 32.7897 20.255C33.0222 20.2575 33.2497 20.275 33.4747 20.3025C35.8647 20.575 37.7672 21.935 38.7797 24.055C39.3321 21.85 39.3122 19.6525 38.9147 17.54ZM39.6621 15.5724C39.5746 15.5224 39.4872 15.4749 39.3972 15.4249C39.5847 16.0599 39.7422 16.705 39.8647 17.3575C40.4071 20.23 40.2471 22.9425 39.3846 25.4825H39.6172L46.0971 25.375C45.7446 21.1425 43.2471 17.6 39.6621 15.5724Z" fill="#228B22" stroke="white" stroke-width="0.250001" stroke-miterlimit="10"/>
<path d="M38.78 24.0547C37.8725 27.6873 35.415 31.3473 30.56 34.7173C30.6925 34.5298 35.845 27.1547 33.475 20.3022C33.1875 19.4672 32.785 18.6372 32.25 17.8296C32.2775 17.9146 32.57 18.8272 32.7875 20.2547C33.2175 23.0647 33.355 27.8822 30.595 32.3698C30.595 32.3698 31.86 27.0872 28.305 22.2197C28.1825 22.0522 28.0625 21.8872 27.935 21.7197C26.7125 20.0672 25.4425 18.4822 24.485 16.7771C24.4 16.6246 24.315 16.4696 24.235 16.3121C22.7425 13.4446 22.21 10.2071 24.2775 5.77201C25.0525 4.117 26.185 2.28948 27.7725 0.251953C27.7725 0.251953 29.76 1.91947 32.0775 4.642C34.305 7.25453 36.8325 10.8371 38.1975 14.8521C38.4975 15.7296 38.74 16.6271 38.9125 17.5371C39.31 19.6522 39.33 21.8472 38.78 24.0522V24.0547Z" fill="#228B22" stroke="white" stroke-width="0.250001" stroke-miterlimit="10"/>
</svg>
