<svg width="46" height="46" viewBox="0 0 46 46" fill="none" xmlns="http://www.w3.org/2000/svg">
<g clip-path="url(#clip0_148_1668)" filter="url(#filter0_b_148_1668)">
<path d="M36.357 13.9968C40.3329 19.9734 35.0123 27.4574 35.0123 27.4574C51.7108 15.8641 32.795 0 32.795 0C25.7338 9.07434 29.8577 12.8887 33.2201 17.4971C36.0497 21.3765 35.0437 25.5845 35.0437 25.5845C38.415 20.1002 36.357 13.9956 36.357 13.9956V13.9968Z" fill="#228B22"/>
<path d="M19.0035 33.1796C18.6569 31.8383 17.5937 31.0061 16.2064 31.0061C14.4949 31.0061 13.1076 32.2084 13.1076 34.1049C13.1076 36.0014 14.4949 37.2261 16.2064 37.2261C17.6173 37.2261 18.6805 36.3939 19.0506 34.9831H21.8477C21.5707 37.9192 19.1201 39.9313 16.2064 39.9313C12.9696 39.9313 10.3564 37.5031 10.3564 34.1273C10.3564 30.7515 12.9696 28.3009 16.2064 28.3009C19.1426 28.3009 21.5942 30.359 21.8253 33.1336L19.0046 33.1796H19.0035Z" fill="#094C31"/>
<path d="M31.165 28.4164H33.9397V39.7461L31.396 38.6246L31.1874 38.4507C30.2397 39.422 28.9679 39.93 27.649 39.93C24.5502 39.93 22.0996 37.5019 22.0996 34.1261C22.0996 30.7503 24.5502 28.2997 27.649 28.2997C28.9679 28.2997 30.2162 28.8089 31.1639 29.7566V28.4152L31.165 28.4164ZM27.9507 30.96C26.2168 30.96 24.8059 32.1858 24.8059 34.1272C24.8059 36.0686 26.2156 37.272 27.9507 37.272C29.6857 37.272 31.165 36.0462 31.165 34.1272C31.165 32.2083 29.7305 30.96 27.9507 30.96Z" fill="#094C31"/>
<path d="M45.5008 39.7472L42.7496 38.6257V33.7358C42.7496 31.7933 41.9175 30.9611 40.3911 30.9611C38.4261 30.9611 37.2923 32.5795 37.2923 32.5795V38.6257L34.5176 39.7472V28.4175H37.0612L37.2923 29.9203C38.2175 28.8571 39.4658 28.302 40.9686 28.302C43.6043 28.302 45.5008 30.314 45.5008 33.0427V39.7484V39.7472Z" fill="#094C31"/>
<path d="M7.78121 21.243H2.77468V24.7119H9.82689V27.2555H0L0 12.6879H9.59585V15.2316H2.77468L2.77468 18.6993H8.90162L7.78009 21.243H7.78121Z" fill="#228B22"/>
<path d="M18.4976 20.689C18.1511 19.3476 17.0879 18.5155 15.7005 18.5155C13.9891 18.5155 12.6017 19.7178 12.6017 21.6143C12.6017 23.5108 13.9891 24.7355 15.7005 24.7355C17.1114 24.7355 18.1746 23.9033 18.5447 22.4924H21.3418C21.0648 25.4286 18.6143 27.4406 15.7005 27.4406C12.4638 27.4406 9.85059 25.0125 9.85059 21.6367C9.85059 18.2609 12.4638 15.8103 15.7005 15.8103C18.6367 15.8103 21.0884 17.8683 21.3194 20.643L18.4987 20.689H18.4976Z" fill="#228B22"/>
<path d="M27.4691 15.8092C30.6598 15.8092 33.2954 18.2373 33.2954 21.6356C33.2954 25.0338 30.6598 27.4395 27.4691 27.4395C24.2783 27.4395 21.6191 25.0114 21.6191 21.6356C21.6191 18.2598 24.2312 15.8092 27.4691 15.8092ZM27.4691 24.7355C29.1334 24.7355 30.5208 23.5332 30.5208 21.6143C30.5208 19.6953 29.1334 18.5155 27.4691 18.5155C25.8047 18.5155 24.3703 19.7177 24.3703 21.6143C24.3703 23.5108 25.7576 24.7355 27.4691 24.7355Z" fill="#228B22"/>
<path d="M0.0649981 43.4389L0.0649981 43.3338H0.799094V43.4389H0.491309L0.491309 44.3126H0.372783L0.372783 43.4389H0.0649981ZM1.32947 44.0124V43.5785H1.44226V44.3126H1.32947V44.1883H1.32183C1.30462 44.2256 1.27786 44.2573 1.24153 44.2834C1.20521 44.3092 1.15933 44.3221 1.10389 44.3221C1.05801 44.3221 1.01723 44.3121 0.981542 44.292C0.945857 44.2716 0.917819 44.241 0.897427 44.2002C0.877036 44.1591 0.86684 44.1074 0.86684 44.0449L0.86684 43.5785H0.979631L0.979631 44.0373C0.979631 44.0908 0.994606 44.1335 1.02456 44.1654C1.05482 44.1972 1.09338 44.2131 1.14021 44.2131C1.16825 44.2131 1.19677 44.206 1.22576 44.1916C1.25508 44.1773 1.27961 44.1553 1.29936 44.1257C1.31944 44.0961 1.32947 44.0583 1.32947 44.0124ZM1.64885 44.3126V43.5785H1.75782V43.6893H1.76546C1.77884 43.653 1.80306 43.6235 1.83811 43.6009C1.87315 43.5783 1.91266 43.567 1.95663 43.567C1.96492 43.567 1.97527 43.5672 1.9877 43.5675C2.00012 43.5678 2.00952 43.5683 2.0159 43.5689V43.6836C2.01207 43.6826 2.00331 43.6812 1.98961 43.6793C1.97623 43.6771 1.96205 43.676 1.94707 43.676C1.91139 43.676 1.87953 43.6834 1.85149 43.6984C1.82377 43.7131 1.80178 43.7335 1.78553 43.7596C1.7696 43.7854 1.76164 43.8149 1.76164 43.848V44.3126H1.64885ZM2.26239 43.871V44.3126H2.1496V43.5785H2.25856V43.6932H2.26812C2.28533 43.6559 2.31145 43.6259 2.3465 43.6033C2.38155 43.5804 2.42679 43.5689 2.48223 43.5689C2.53194 43.5689 2.57543 43.5791 2.61271 43.5995C2.64999 43.6196 2.67898 43.6502 2.69969 43.6913C2.7204 43.732 2.73075 43.7837 2.73075 43.8461V44.3126H2.61796V43.8537C2.61796 43.7961 2.60299 43.7512 2.57304 43.719C2.54309 43.6865 2.50199 43.6702 2.44973 43.6702C2.41373 43.6702 2.38155 43.678 2.35319 43.6936C2.32515 43.7093 2.30301 43.732 2.28676 43.762C2.27051 43.7919 2.26239 43.8283 2.26239 43.871ZM2.93686 44.3126V43.5785H3.04965V44.3126H2.93686ZM2.99421 43.4561C2.97223 43.4561 2.95327 43.4486 2.93734 43.4336C2.92173 43.4187 2.91392 43.4007 2.91392 43.3796C2.91392 43.3586 2.92173 43.3406 2.93734 43.3256C2.95327 43.3107 2.97223 43.3032 2.99421 43.3032C3.0162 43.3032 3.035 43.3107 3.05061 43.3256C3.06654 43.3406 3.0745 43.3586 3.0745 43.3796C3.0745 43.4007 3.06654 43.4187 3.05061 43.4336C3.035 43.4486 3.0162 43.4561 2.99421 43.4561ZM3.36903 43.871V44.3126H3.25624V43.5785H3.3652V43.6932H3.37476C3.39197 43.6559 3.41809 43.6259 3.45314 43.6033C3.48819 43.5804 3.53343 43.5689 3.58887 43.5689C3.63858 43.5689 3.68207 43.5791 3.71935 43.5995C3.75662 43.6196 3.78562 43.6502 3.80633 43.6913C3.82704 43.732 3.83739 43.7837 3.83739 43.8461V44.3126H3.7246V43.8537C3.7246 43.7961 3.70963 43.7512 3.67968 43.719C3.64973 43.6865 3.60863 43.6702 3.55637 43.6702C3.52037 43.6702 3.48819 43.678 3.45983 43.6936C3.43179 43.7093 3.40965 43.732 3.3934 43.762C3.37715 43.7919 3.36903 43.8283 3.36903 43.871ZM4.33982 44.6031C4.28533 44.6031 4.23849 44.5961 4.1993 44.5821C4.16011 44.5684 4.12746 44.5502 4.10133 44.5276C4.07552 44.5053 4.05497 44.4814 4.03968 44.4559L4.12953 44.3928C4.13972 44.4062 4.15263 44.4215 4.16824 44.4387C4.18385 44.4563 4.2052 44.4714 4.23228 44.4841C4.25968 44.4972 4.29553 44.5037 4.33982 44.5037C4.39908 44.5037 4.44799 44.4894 4.48654 44.4607C4.52509 44.432 4.54437 44.3871 4.54437 44.3259V44.1768H4.53481C4.52653 44.1902 4.51474 44.2068 4.49944 44.2265C4.48447 44.246 4.4628 44.2633 4.43444 44.2786C4.40641 44.2936 4.36849 44.3011 4.3207 44.3011C4.26144 44.3011 4.20823 44.2871 4.16107 44.259C4.11423 44.231 4.07711 44.1902 4.04971 44.1367C4.02263 44.0832 4.00909 44.0182 4.00909 43.9417C4.00909 43.8665 4.02231 43.801 4.04876 43.7453C4.0752 43.6892 4.112 43.6458 4.15916 43.6153C4.20631 43.5844 4.2608 43.5689 4.32261 43.5689C4.3704 43.5689 4.40832 43.5769 4.43636 43.5928C4.46471 43.6084 4.48638 43.6263 4.50135 43.6463C4.51665 43.6661 4.52844 43.6823 4.53672 43.6951H4.54819V43.5785H4.65716V44.3336C4.65716 44.3967 4.64282 44.448 4.61415 44.4875C4.58579 44.5273 4.54755 44.5565 4.49944 44.5749C4.45165 44.5937 4.39844 44.6031 4.33982 44.6031ZM4.33599 44.1998C4.38124 44.1998 4.41947 44.1894 4.45069 44.1687C4.48192 44.148 4.50566 44.1182 4.52191 44.0793C4.53815 44.0405 4.54628 43.9939 4.54628 43.9398C4.54628 43.8869 4.53831 43.8402 4.52238 43.7997C4.50645 43.7593 4.48287 43.7276 4.45165 43.7046C4.42043 43.6817 4.38187 43.6702 4.33599 43.6702C4.2882 43.6702 4.24837 43.6823 4.21651 43.7065C4.18497 43.7308 4.16123 43.7633 4.1453 43.804C4.12969 43.8448 4.12188 43.8901 4.12188 43.9398C4.12188 43.9908 4.12985 44.0358 4.14578 44.075C4.16203 44.1139 4.18592 44.1445 4.21747 44.1668C4.24933 44.1888 4.28884 44.1998 4.33599 44.1998ZM5.43522 44.3126L5.16758 43.3338H5.28802L5.49257 44.1309H5.50213L5.71051 43.3338H5.84433L6.05271 44.1309H6.06226L6.26682 43.3338H6.38725L6.11961 44.3126H5.99727L5.78124 43.5326H5.7736L5.55757 44.3126H5.43522ZM6.66732 44.3298C6.6208 44.3298 6.57858 44.321 6.54067 44.3035C6.50275 44.2856 6.47264 44.26 6.45034 44.2265C6.42804 44.1928 6.41689 44.152 6.41689 44.1042C6.41689 44.0621 6.42517 44.028 6.44174 44.0019C6.45831 43.9755 6.48045 43.9547 6.50817 43.9398C6.53589 43.9248 6.56648 43.9136 6.59993 43.9063C6.6337 43.8987 6.66764 43.8926 6.70173 43.8882C6.74634 43.8824 6.7825 43.8781 6.81022 43.8753C6.83826 43.8721 6.85865 43.8668 6.87139 43.8595C6.88446 43.8522 6.89099 43.8394 6.89099 43.8212V43.8174C6.89099 43.7703 6.87808 43.7336 6.85228 43.7075C6.82679 43.6814 6.78808 43.6683 6.73614 43.6683C6.68229 43.6683 6.64008 43.6801 6.60949 43.7037C6.5789 43.7273 6.5574 43.7524 6.54497 43.7792L6.43791 43.741C6.45703 43.6964 6.48252 43.6616 6.51438 43.6368C6.54656 43.6116 6.58161 43.5941 6.61953 43.5842C6.65776 43.574 6.69536 43.5689 6.73232 43.5689C6.75589 43.5689 6.78298 43.5718 6.81356 43.5775C6.84447 43.5829 6.87426 43.5942 6.90294 43.6114C6.93193 43.6286 6.95599 43.6546 6.9751 43.6893C6.99422 43.7241 7.00378 43.7706 7.00378 43.8289V44.3126H6.89099V44.2131H6.88525C6.87761 44.2291 6.86486 44.2461 6.84702 44.2643C6.82918 44.2824 6.80544 44.2979 6.77581 44.3106C6.74618 44.3234 6.71001 44.3298 6.66732 44.3298ZM6.68452 44.2284C6.72913 44.2284 6.76673 44.2197 6.79732 44.2022C6.82822 44.1846 6.85148 44.162 6.86709 44.1343C6.88302 44.1066 6.89099 44.0774 6.89099 44.0468V43.9436C6.88621 43.9493 6.8757 43.9546 6.85945 43.9594C6.84351 43.9638 6.82503 43.9678 6.80401 43.9713C6.7833 43.9745 6.76306 43.9774 6.74331 43.9799C6.72387 43.9822 6.7081 43.9841 6.69599 43.9857C6.66668 43.9895 6.63928 43.9957 6.61379 44.0043C6.58862 44.0126 6.56823 44.0252 6.55262 44.0421C6.53732 44.0586 6.52968 44.0812 6.52968 44.1099C6.52968 44.1491 6.54417 44.1787 6.57317 44.1988C6.60248 44.2186 6.6396 44.2284 6.68452 44.2284ZM7.72963 43.7429L7.62831 43.7715C7.62194 43.7547 7.61254 43.7382 7.60011 43.7223C7.58801 43.7061 7.57144 43.6927 7.55041 43.6822C7.52938 43.6717 7.50246 43.6664 7.46964 43.6664C7.42471 43.6664 7.38728 43.6768 7.35733 43.6975C7.32769 43.7179 7.31288 43.7438 7.31288 43.7754C7.31288 43.8034 7.32307 43.8255 7.34347 43.8418C7.36386 43.858 7.39572 43.8716 7.43905 43.8824L7.54802 43.9092C7.61365 43.9251 7.66256 43.9495 7.69474 43.9823C7.72692 44.0148 7.74301 44.0567 7.74301 44.108C7.74301 44.1501 7.73091 44.1877 7.70669 44.2208C7.68279 44.2539 7.64934 44.2801 7.60633 44.2992C7.56331 44.3183 7.51329 44.3279 7.45626 44.3279C7.38138 44.3279 7.31941 44.3116 7.27034 44.2791C7.22128 44.2466 7.19021 44.1991 7.17715 44.1367L7.2842 44.1099C7.2944 44.1494 7.31368 44.1791 7.34203 44.1988C7.37071 44.2186 7.40815 44.2284 7.45435 44.2284C7.50692 44.2284 7.54866 44.2173 7.57956 44.195C7.61079 44.1724 7.6264 44.1453 7.6264 44.1137C7.6264 44.0883 7.61748 44.0669 7.59963 44.0497C7.58179 44.0322 7.55439 44.0191 7.51743 44.0105L7.39508 43.9818C7.32785 43.9659 7.27847 43.9412 7.24692 43.9078C7.2157 43.874 7.20009 43.8318 7.20009 43.7811C7.20009 43.7397 7.21172 43.703 7.23498 43.6712C7.25855 43.6393 7.29058 43.6143 7.33104 43.5961C7.37182 43.578 7.41802 43.5689 7.46964 43.5689C7.54228 43.5689 7.59932 43.5848 7.64074 43.6167C7.68248 43.6486 7.71211 43.6906 7.72963 43.7429ZM8.23205 43.5785V43.674H7.85162V43.5785H8.23205ZM7.9625 43.4026H8.07529V44.1023C8.07529 44.1341 8.07991 44.158 8.08915 44.174C8.09871 44.1896 8.11082 44.2001 8.12547 44.2055C8.14045 44.2106 8.15622 44.2131 8.17279 44.2131C8.18522 44.2131 8.19541 44.2125 8.20338 44.2112C8.21134 44.2096 8.21771 44.2084 8.22249 44.2074L8.24543 44.3087C8.23779 44.3116 8.22711 44.3145 8.21341 44.3173C8.19971 44.3205 8.18235 44.3221 8.16132 44.3221C8.12946 44.3221 8.09823 44.3153 8.06765 44.3016C8.03738 44.2879 8.01221 44.267 7.99213 44.239C7.97238 44.2109 7.9625 44.1756 7.9625 44.1329V43.4026ZM8.70162 44.3279C8.63088 44.3279 8.56987 44.3122 8.51857 44.281C8.46759 44.2495 8.42824 44.2055 8.40052 44.1491C8.37312 44.0924 8.35942 44.0264 8.35942 43.9512C8.35942 43.8761 8.37312 43.8098 8.40052 43.7524C8.42824 43.6948 8.46679 43.6498 8.51618 43.6177C8.56588 43.5852 8.62387 43.5689 8.69014 43.5689C8.72838 43.5689 8.76614 43.5753 8.80341 43.588C8.84069 43.6008 8.87462 43.6215 8.90521 43.6502C8.9358 43.6785 8.96017 43.7161 8.97833 43.7629C8.9965 43.8098 9.00558 43.8674 9.00558 43.936V43.9837H8.43971V43.8862H8.89087C8.89087 43.8448 8.88259 43.8079 8.86602 43.7754C8.84977 43.7429 8.82651 43.7172 8.79624 43.6984C8.76629 43.6796 8.73093 43.6702 8.69014 43.6702C8.64522 43.6702 8.60635 43.6814 8.57353 43.7037C8.54103 43.7257 8.51602 43.7543 8.4985 43.7897C8.48097 43.8251 8.47221 43.863 8.47221 43.9035V43.9684C8.47221 44.0239 8.48177 44.0709 8.50089 44.1094C8.52032 44.1477 8.54724 44.1768 8.58166 44.1969C8.61607 44.2167 8.65605 44.2265 8.70162 44.2265C8.73125 44.2265 8.75801 44.2224 8.78191 44.2141C8.80612 44.2055 8.82699 44.1928 8.84452 44.1759C8.86204 44.1587 8.87558 44.1373 8.88514 44.1118L8.99411 44.1424C8.98264 44.1794 8.96336 44.2119 8.93628 44.2399C8.90919 44.2676 8.87574 44.2893 8.83591 44.3049C8.79609 44.3202 8.75132 44.3279 8.70162 44.3279ZM9.55567 44.3126V43.5785H9.66846V44.3126H9.55567ZM9.61302 43.4561C9.59104 43.4561 9.57208 43.4486 9.55615 43.4336C9.54054 43.4187 9.53273 43.4007 9.53273 43.3796C9.53273 43.3586 9.54054 43.3406 9.55615 43.3256C9.57208 43.3107 9.59104 43.3032 9.61302 43.3032C9.63501 43.3032 9.6538 43.3107 9.66942 43.3256C9.68535 43.3406 9.69331 43.3586 9.69331 43.3796C9.69331 43.4007 9.68535 43.4187 9.66942 43.4336C9.6538 43.4486 9.63501 43.4561 9.61302 43.4561ZM9.98784 43.871V44.3126H9.87504V43.5785H9.98401V43.6932H9.99357C10.0108 43.6559 10.0369 43.6259 10.072 43.6033C10.107 43.5804 10.1522 43.5689 10.2077 43.5689C10.2574 43.5689 10.3009 43.5791 10.3382 43.5995C10.3754 43.6196 10.4044 43.6502 10.4251 43.6913C10.4458 43.732 10.4562 43.7837 10.4562 43.8461V44.3126H10.3434V43.8537C10.3434 43.7961 10.3284 43.7512 10.2985 43.719C10.2685 43.6865 10.2274 43.6702 10.1752 43.6702C10.1392 43.6702 10.107 43.678 10.0786 43.6936C10.0506 43.7093 10.0285 43.732 10.0122 43.762C9.99596 43.7919 9.98784 43.8283 9.98784 43.871ZM10.9816 43.5785V43.674H10.6011V43.5785H10.9816ZM10.712 43.4026H10.8248V44.1023C10.8248 44.1341 10.8294 44.158 10.8387 44.174C10.8482 44.1896 10.8603 44.2001 10.875 44.2055C10.89 44.2106 10.9057 44.2131 10.9223 44.2131C10.9347 44.2131 10.9449 44.2125 10.9529 44.2112C10.9609 44.2096 10.9672 44.2084 10.972 44.2074L10.9949 44.3087C10.9873 44.3116 10.9766 44.3145 10.9629 44.3173C10.9492 44.3205 10.9319 44.3221 10.9108 44.3221C10.879 44.3221 10.8477 44.3153 10.8172 44.3016C10.7869 44.2879 10.7617 44.267 10.7416 44.239C10.7219 44.2109 10.712 44.1756 10.712 44.1329V43.4026ZM11.4416 44.3279C11.3753 44.3279 11.3171 44.3121 11.2671 44.2805C11.2174 44.249 11.1786 44.2049 11.1505 44.1482C11.1228 44.0914 11.1089 44.0252 11.1089 43.9493C11.1089 43.8729 11.1228 43.8061 11.1505 43.7491C11.1786 43.692 11.2174 43.6478 11.2671 43.6162C11.3171 43.5847 11.3753 43.5689 11.4416 43.5689C11.5078 43.5689 11.5658 43.5847 11.6155 43.6162C11.6656 43.6478 11.7044 43.692 11.7321 43.7491C11.7602 43.8061 11.7742 43.8729 11.7742 43.9493C11.7742 44.0252 11.7602 44.0914 11.7321 44.1482C11.7044 44.2049 11.6656 44.249 11.6155 44.2805C11.5658 44.3121 11.5078 44.3279 11.4416 44.3279ZM11.4416 44.2265C11.4919 44.2265 11.5333 44.2136 11.5658 44.1878C11.5983 44.162 11.6224 44.1281 11.638 44.086C11.6536 44.044 11.6614 43.9984 11.6614 43.9493C11.6614 43.9003 11.6536 43.8545 11.638 43.8122C11.6224 43.7698 11.5983 43.7355 11.5658 43.7094C11.5333 43.6833 11.4919 43.6702 11.4416 43.6702C11.3912 43.6702 11.3498 43.6833 11.3173 43.7094C11.2848 43.7355 11.2608 43.7698 11.2451 43.8122C11.2295 43.8545 11.2217 43.9003 11.2217 43.9493C11.2217 43.9984 11.2295 44.044 11.2451 44.086C11.2608 44.1281 11.2848 44.162 11.3173 44.1878C11.3498 44.2136 11.3912 44.2265 11.4416 44.2265ZM12.3402 44.3126V43.3338H12.6709C12.7474 43.3338 12.8102 43.3468 12.8592 43.373C12.9083 43.3988 12.9446 43.4343 12.9682 43.4795C12.9918 43.5248 13.0036 43.5762 13.0036 43.6339C13.0036 43.6916 12.9918 43.7427 12.9682 43.7873C12.9446 43.8319 12.9084 43.867 12.8597 43.8925C12.811 43.9176 12.7487 43.9302 12.6728 43.9302H12.4052V43.8232H12.669C12.7213 43.8232 12.7633 43.8155 12.7952 43.8002C12.8274 43.7849 12.8506 43.7633 12.865 43.7352C12.8796 43.7069 12.8869 43.6731 12.8869 43.6339C12.8869 43.5947 12.8796 43.5605 12.865 43.5311C12.8503 43.5018 12.8269 43.4792 12.7947 43.4633C12.7625 43.447 12.72 43.4389 12.6671 43.4389H12.4587V44.3126H12.3402ZM12.8009 43.8729L13.0418 44.3126H12.9041L12.6671 43.8729H12.8009ZM13.4857 44.3279C13.4149 44.3279 13.3539 44.3122 13.3026 44.281C13.2516 44.2495 13.2123 44.2055 13.1846 44.1491C13.1572 44.0924 13.1435 44.0264 13.1435 43.9512C13.1435 43.8761 13.1572 43.8098 13.1846 43.7524C13.2123 43.6948 13.2508 43.6498 13.3002 43.6177C13.3499 43.5852 13.4079 43.5689 13.4742 43.5689C13.5124 43.5689 13.5502 43.5753 13.5875 43.588C13.6247 43.6008 13.6587 43.6215 13.6893 43.6502C13.7198 43.6785 13.7442 43.7161 13.7624 43.7629C13.7805 43.8098 13.7896 43.8674 13.7896 43.936V43.9837H13.2238V43.8862H13.6749C13.6749 43.8448 13.6666 43.8079 13.6501 43.7754C13.6338 43.7429 13.6106 43.7172 13.5803 43.6984C13.5503 43.6796 13.515 43.6702 13.4742 43.6702C13.4293 43.6702 13.3904 43.6814 13.3576 43.7037C13.3251 43.7257 13.3001 43.7543 13.2825 43.7897C13.265 43.8251 13.2563 43.863 13.2563 43.9035V43.9684C13.2563 44.0239 13.2658 44.0709 13.2849 44.1094C13.3044 44.1477 13.3313 44.1768 13.3657 44.1969C13.4001 44.2167 13.4401 44.2265 13.4857 44.2265C13.5153 44.2265 13.5421 44.2224 13.566 44.2141C13.5902 44.2055 13.611 44.1928 13.6286 44.1759C13.6461 44.1587 13.6596 44.1373 13.6692 44.1118L13.7782 44.1424C13.7667 44.1794 13.7474 44.2119 13.7203 44.2399C13.6932 44.2676 13.6598 44.2893 13.62 44.3049C13.5801 44.3202 13.5354 44.3279 13.4857 44.3279ZM14.4812 43.7429L14.3799 43.7715C14.3735 43.7547 14.3641 43.7382 14.3517 43.7223C14.3396 43.7061 14.323 43.6927 14.302 43.6822C14.2809 43.6717 14.254 43.6664 14.2212 43.6664C14.1763 43.6664 14.1388 43.6768 14.1089 43.6975C14.0792 43.7179 14.0644 43.7438 14.0644 43.7754C14.0644 43.8034 14.0746 43.8255 14.095 43.8418C14.1154 43.858 14.1473 43.8716 14.1906 43.8824L14.2996 43.9092C14.3652 43.9251 14.4141 43.9495 14.4463 43.9823C14.4785 44.0148 14.4946 44.0567 14.4946 44.108C14.4946 44.1501 14.4825 44.1877 14.4582 44.2208C14.4343 44.2539 14.4009 44.2801 14.3579 44.2992C14.3149 44.3183 14.2648 44.3279 14.2078 44.3279C14.1329 44.3279 14.071 44.3116 14.0219 44.2791C13.9728 44.2466 13.9418 44.1991 13.9287 44.1367L14.0358 44.1099C14.046 44.1494 14.0652 44.1791 14.0936 44.1988C14.1223 44.2186 14.1597 44.2284 14.2059 44.2284C14.2585 44.2284 14.3002 44.2173 14.3311 44.195C14.3623 44.1724 14.378 44.1453 14.378 44.1137C14.378 44.0883 14.369 44.0669 14.3512 44.0497C14.3333 44.0322 14.3059 44.0191 14.269 44.0105L14.1466 43.9818C14.0794 43.9659 14.03 43.9412 13.9985 43.9078C13.9673 43.874 13.9516 43.8318 13.9516 43.7811C13.9516 43.7397 13.9633 43.703 13.9865 43.6712C14.0101 43.6393 14.0421 43.6143 14.0826 43.5961C14.1234 43.578 14.1696 43.5689 14.2212 43.5689C14.2938 43.5689 14.3509 43.5848 14.3923 43.6167C14.434 43.6486 14.4637 43.6906 14.4812 43.7429ZM14.9626 44.3279C14.8963 44.3279 14.8382 44.3121 14.7881 44.2805C14.7384 44.249 14.6996 44.2049 14.6715 44.1482C14.6438 44.0914 14.6299 44.0252 14.6299 43.9493C14.6299 43.8729 14.6438 43.8061 14.6715 43.7491C14.6996 43.692 14.7384 43.6478 14.7881 43.6162C14.8382 43.5847 14.8963 43.5689 14.9626 43.5689C15.0288 43.5689 15.0868 43.5847 15.1365 43.6162C15.1866 43.6478 15.2254 43.692 15.2532 43.7491C15.2812 43.8061 15.2952 43.8729 15.2952 43.9493C15.2952 44.0252 15.2812 44.0914 15.2532 44.1482C15.2254 44.2049 15.1866 44.249 15.1365 44.2805C15.0868 44.3121 15.0288 44.3279 14.9626 44.3279ZM14.9626 44.2265C15.0129 44.2265 15.0543 44.2136 15.0868 44.1878C15.1193 44.162 15.1434 44.1281 15.159 44.086C15.1746 44.044 15.1824 43.9984 15.1824 43.9493C15.1824 43.9003 15.1746 43.8545 15.159 43.8122C15.1434 43.7698 15.1193 43.7355 15.0868 43.7094C15.0543 43.6833 15.0129 43.6702 14.9626 43.6702C14.9122 43.6702 14.8708 43.6833 14.8383 43.7094C14.8058 43.7355 14.7818 43.7698 14.7661 43.8122C14.7505 43.8545 14.7427 43.9003 14.7427 43.9493C14.7427 43.9984 14.7505 44.044 14.7661 44.086C14.7818 44.1281 14.8058 44.162 14.8383 44.1878C14.8708 44.2136 14.9122 44.2265 14.9626 44.2265ZM15.93 44.0124V43.5785H16.0428V44.3126H15.93V44.1883H15.9224C15.9052 44.2256 15.8784 44.2573 15.8421 44.2834C15.8058 44.3092 15.7599 44.3221 15.7044 44.3221C15.6586 44.3221 15.6178 44.3121 15.5821 44.292C15.5464 44.2716 15.5184 44.241 15.498 44.2002C15.4776 44.1591 15.4674 44.1074 15.4674 44.0449V43.5785H15.5802V44.0373C15.5802 44.0908 15.5952 44.1335 15.6251 44.1654C15.6554 44.1972 15.6939 44.2131 15.7408 44.2131C15.7688 44.2131 15.7973 44.206 15.8263 44.1916C15.8556 44.1773 15.8802 44.1553 15.8999 44.1257C15.92 44.0961 15.93 44.0583 15.93 44.0124ZM16.2494 44.3126V43.5785H16.3584V43.6893H16.366C16.3794 43.653 16.4036 43.6235 16.4387 43.6009C16.4737 43.5783 16.5132 43.567 16.5572 43.567C16.5655 43.567 16.5758 43.5672 16.5882 43.5675C16.6007 43.5678 16.6101 43.5683 16.6164 43.5689V43.6836C16.6126 43.6826 16.6039 43.6812 16.5902 43.6793C16.5768 43.6771 16.5626 43.676 16.5476 43.676C16.5119 43.676 16.4801 43.6834 16.452 43.6984C16.4243 43.7131 16.4023 43.7335 16.3861 43.7596C16.3702 43.7854 16.3622 43.8149 16.3622 43.848V44.3126H16.2494ZM17.026 44.3279C16.9572 44.3279 16.8979 44.3116 16.8482 44.2791C16.7985 44.2466 16.7603 44.2018 16.7335 44.1448C16.7068 44.0878 16.6934 44.0226 16.6934 43.9493C16.6934 43.8748 16.7071 43.809 16.7345 43.7519C16.7622 43.6946 16.8008 43.6498 16.8501 43.6177C16.8999 43.5852 16.9578 43.5689 17.0241 43.5689C17.0757 43.5689 17.1222 43.5785 17.1637 43.5976C17.2051 43.6167 17.239 43.6435 17.2655 43.6779C17.2919 43.7123 17.3083 43.7524 17.3147 43.7983H17.2019C17.1933 43.7649 17.1742 43.7352 17.1446 43.7094C17.1152 43.6833 17.0757 43.6702 17.026 43.6702C16.9821 43.6702 16.9435 43.6817 16.9104 43.7046C16.8775 43.7273 16.8519 43.7593 16.8334 43.8007C16.8153 43.8418 16.8062 43.8901 16.8062 43.9455C16.8062 44.0022 16.8151 44.0516 16.8329 44.0937C16.8511 44.1357 16.8766 44.1684 16.9094 44.1916C16.9425 44.2149 16.9814 44.2265 17.026 44.2265C17.0553 44.2265 17.0819 44.2214 17.1058 44.2112C17.1297 44.201 17.15 44.1864 17.1665 44.1673C17.1831 44.1482 17.1949 44.1252 17.2019 44.0984H17.3147C17.3083 44.1418 17.2925 44.1808 17.2674 44.2155C17.2425 44.2499 17.2095 44.2773 17.1684 44.2977C17.1277 44.3178 17.0802 44.3279 17.026 44.3279ZM17.7874 44.3279C17.7166 44.3279 17.6556 44.3122 17.6043 44.281C17.5533 44.2495 17.514 44.2055 17.4863 44.1491C17.4589 44.0924 17.4452 44.0264 17.4452 43.9512C17.4452 43.8761 17.4589 43.8098 17.4863 43.7524C17.514 43.6948 17.5525 43.6498 17.6019 43.6177C17.6516 43.5852 17.7096 43.5689 17.7759 43.5689C17.8141 43.5689 17.8519 43.5753 17.8892 43.588C17.9264 43.6008 17.9604 43.6215 17.991 43.6502C18.0215 43.6785 18.0459 43.7161 18.0641 43.7629C18.0822 43.8098 18.0913 43.8674 18.0913 43.936V43.9837H17.5255V43.8862H17.9766C17.9766 43.8448 17.9683 43.8079 17.9518 43.7754C17.9355 43.7429 17.9123 43.7172 17.882 43.6984C17.852 43.6796 17.8167 43.6702 17.7759 43.6702C17.731 43.6702 17.6921 43.6814 17.6593 43.7037C17.6268 43.7257 17.6018 43.7543 17.5842 43.7897C17.5667 43.8251 17.558 43.863 17.558 43.9035V43.9684C17.558 44.0239 17.5675 44.0709 17.5866 44.1094C17.6061 44.1477 17.633 44.1768 17.6674 44.1969C17.7018 44.2167 17.7418 44.2265 17.7874 44.2265C17.817 44.2265 17.8438 44.2224 17.8677 44.2141C17.8919 44.2055 17.9127 44.1928 17.9303 44.1759C17.9478 44.1587 17.9613 44.1373 17.9709 44.1118L18.0799 44.1424C18.0684 44.1794 18.0491 44.2119 18.022 44.2399C17.9949 44.2676 17.9615 44.2893 17.9217 44.3049C17.8818 44.3202 17.8371 44.3279 17.7874 44.3279ZM18.7829 43.7429L18.6816 43.7715C18.6752 43.7547 18.6658 43.7382 18.6534 43.7223C18.6413 43.7061 18.6247 43.6927 18.6037 43.6822C18.5826 43.6717 18.5557 43.6664 18.5229 43.6664C18.478 43.6664 18.4405 43.6768 18.4106 43.6975C18.3809 43.7179 18.3661 43.7438 18.3661 43.7754C18.3661 43.8034 18.3763 43.8255 18.3967 43.8418C18.4171 43.858 18.449 43.8716 18.4923 43.8824L18.6013 43.9092C18.6669 43.9251 18.7158 43.9495 18.748 43.9823C18.7802 44.0148 18.7963 44.0567 18.7963 44.108C18.7963 44.1501 18.7842 44.1877 18.7599 44.2208C18.736 44.2539 18.7026 44.2801 18.6596 44.2992C18.6166 44.3183 18.5665 44.3279 18.5095 44.3279C18.4346 44.3279 18.3727 44.3116 18.3236 44.2791C18.2745 44.2466 18.2435 44.1991 18.2304 44.1367L18.3375 44.1099C18.3477 44.1494 18.3669 44.1791 18.3953 44.1988C18.424 44.2186 18.4614 44.2284 18.5076 44.2284C18.5602 44.2284 18.6019 44.2173 18.6328 44.195C18.664 44.1724 18.6797 44.1453 18.6797 44.1137C18.6797 44.0883 18.6707 44.0669 18.6529 44.0497C18.635 44.0322 18.6076 44.0191 18.5707 44.0105L18.4483 43.9818C18.3811 43.9659 18.3317 43.9412 18.3002 43.9078C18.269 43.874 18.2533 43.8318 18.2533 43.7811C18.2533 43.7397 18.265 43.703 18.2882 43.6712C18.3118 43.6393 18.3438 43.6143 18.3843 43.5961C18.4251 43.578 18.4713 43.5689 18.5229 43.5689C18.5955 43.5689 18.6526 43.5848 18.694 43.6167C18.7357 43.6486 18.7654 43.6906 18.7829 43.7429Z" fill="#094C31"/>
</g>
<defs>
<filter id="filter0_b_148_1668" x="-4" y="-4" width="53.501" height="53.651" filterUnits="userSpaceOnUse" color-interpolation-filters="sRGB">
<feFlood flood-opacity="0" result="BackgroundImageFix"/>
<feGaussianBlur in="BackgroundImageFix" stdDeviation="2"/>
<feComposite in2="SourceAlpha" operator="in" result="effect1_backgroundBlur_148_1668"/>
<feBlend mode="normal" in="SourceGraphic" in2="effect1_backgroundBlur_148_1668" result="shape"/>
</filter>
<clipPath id="clip0_148_1668">
<rect width="45.5007" height="45.651" fill="white"/>
</clipPath>
</defs>
</svg>
