<svg width="46" height="42" viewBox="0 0 46 42" fill="none" xmlns="http://www.w3.org/2000/svg">
<g clip-path="url(#clip0_3355_3551)">
<path d="M17.7325 24.6902C17.56 25.5954 17.47 26.5405 17.47 27.5182C17.47 28.2208 17.5175 28.9084 17.61 29.5736H18.865V24.6902H17.7325ZM14.935 18.0315L17.09 13.1481H5.325V6.4869H18.42V1.60352H0V29.5736H16.475C16.3875 28.8984 16.345 28.2133 16.345 27.5182C16.345 26.5505 16.4275 25.6054 16.5875 24.6902H5.325V18.0315H14.935Z" fill="white"/>
<path d="M38.4127 29.5809C37.5227 32.979 34.9602 34.9844 31.5627 34.9844C31.3427 34.9844 31.1277 34.9769 30.9127 34.9593C30.8052 34.9518 30.6977 34.9418 30.5902 34.9268C30.3102 34.8993 30.0377 34.8518 29.7677 34.7918C29.6352 34.7643 29.5002 34.7318 29.3702 34.6943C26.3152 33.8516 24.0977 31.2287 24.0977 27.463C24.0977 25.3151 24.8377 23.5373 26.0502 22.2571C26.0977 22.2045 26.1477 22.152 26.2002 22.102C25.9627 21.7795 25.7252 21.4594 25.4852 21.1419L25.4652 21.1193C24.4752 19.8016 23.4502 18.4389 22.6402 17.0011C22.5752 16.8886 22.5127 16.7736 22.4527 16.6585C22.3977 16.7036 22.3427 16.7511 22.2852 16.7986C19.9802 18.7539 18.3402 21.4744 17.7327 24.69C17.5602 25.5952 17.4702 26.5403 17.4702 27.518C17.4702 28.2206 17.5177 28.9083 17.6102 29.5734C18.5702 36.6196 24.4402 41.5005 31.5627 41.5005C38.6852 41.5005 44.4827 36.6572 45.1502 29.5809H38.4127ZM37.9152 17.2887C37.7427 16.376 37.5002 15.4783 37.2002 14.6032C35.4777 13.878 33.5677 13.4805 31.5627 13.4805C28.4452 13.4805 25.5677 14.4156 23.2377 16.0634C23.3177 16.221 23.4002 16.376 23.4877 16.5285C24.4427 18.2313 25.7127 19.8191 26.9352 21.4694C28.2077 20.5192 29.8152 19.9991 31.5627 19.9991C31.6377 19.9991 31.7127 19.9991 31.7902 20.0041C32.0227 20.0066 32.2502 20.0242 32.4752 20.0517C34.8652 20.3242 36.7677 21.6845 37.7802 23.8048C38.3327 21.5994 38.3127 19.4015 37.9152 17.2887ZM38.6627 15.3208C38.5752 15.2708 38.4877 15.2233 38.3977 15.1733C38.5852 15.8084 38.7427 16.4535 38.8652 17.1061C39.4077 19.9791 39.2477 22.6921 38.3852 25.2326H38.6177L45.0977 25.1251C44.7452 20.8918 42.2477 17.3487 38.6627 15.3208Z" fill="white"/>
<path d="M37.78 23.8048C36.8725 27.438 34.415 31.0987 29.56 34.4693C29.6925 34.2817 34.845 26.9054 32.475 20.0517C32.1875 19.2165 31.785 18.3864 31.25 17.5787C31.2775 17.6637 31.57 18.5764 31.7875 20.0042C32.2175 22.8147 32.355 27.633 29.595 32.1214C29.595 32.1214 30.86 26.8379 27.305 21.9695C27.1825 21.802 27.0625 21.637 26.935 21.4694C25.7125 19.8166 24.4425 18.2313 23.485 16.526C23.4 16.3735 23.315 16.2185 23.235 16.061C21.7425 13.1929 21.21 9.95485 23.2775 5.51904C24.0525 3.86375 25.185 2.03591 26.7725 -0.00195312C26.7725 -0.00195312 28.76 1.66585 31.0775 4.38884C33.305 7.00181 35.8325 10.585 37.1975 14.6007C37.4975 15.4783 37.74 16.376 37.9125 17.2862C38.31 19.4016 38.33 21.597 37.78 23.8023V23.8048Z" fill="white"/>
</g>
<defs>
<clipPath id="clip0_3355_3551">
<rect width="45.15" height="41.5" fill="white"/>
</clipPath>
</defs>
</svg>
