<svg width="46" height="46" viewBox="0 0 46 46" fill="none" xmlns="http://www.w3.org/2000/svg">
<g clip-path="url(#clip0_875_3167)" filter="url(#filter0_b_875_3167)">
<path d="M36.357 13.9968C40.3329 19.9734 35.0123 27.4574 35.0123 27.4574C51.7108 15.8641 32.795 0 32.795 0C25.7338 9.07434 29.8577 12.8887 33.2201 17.4971C36.0497 21.3765 35.0437 25.5845 35.0437 25.5845C38.415 20.1002 36.357 13.9956 36.357 13.9956V13.9968Z" fill="white"/>
<path d="M19.0035 33.1795C18.6569 31.8381 17.5937 31.0059 16.2064 31.0059C14.4949 31.0059 13.1076 32.2082 13.1076 34.1047C13.1076 36.0012 14.4949 37.226 16.2064 37.226C17.6173 37.226 18.6805 36.3938 19.0506 34.9829H21.8477C21.5707 37.9191 19.1201 39.9311 16.2064 39.9311C12.9696 39.9311 10.3564 37.503 10.3564 34.1272C10.3564 30.7513 12.9696 28.3008 16.2064 28.3008C19.1426 28.3008 21.5942 30.3588 21.8253 33.1335L19.0046 33.1795H19.0035Z" fill="#CCCCCC"/>
<path d="M31.165 28.4164H33.9397V39.7462L31.396 38.6247L31.1874 38.4508C30.2397 39.4221 28.9679 39.9301 27.649 39.9301C24.5502 39.9301 22.0996 37.502 22.0996 34.1262C22.0996 30.7504 24.5502 28.2998 27.649 28.2998C28.9679 28.2998 30.2162 28.809 31.1639 29.7567V28.4153L31.165 28.4164ZM27.9507 30.9601C26.2168 30.9601 24.8059 32.1859 24.8059 34.1273C24.8059 36.0687 26.2156 37.2721 27.9507 37.2721C29.6857 37.2721 31.165 36.0462 31.165 34.1273C31.165 32.2084 29.7305 30.9601 27.9507 30.9601Z" fill="#CCCCCC"/>
<path d="M45.5008 39.747L42.7496 38.6255V33.7356C42.7496 31.7931 41.9175 30.9609 40.3911 30.9609C38.4261 30.9609 37.2923 32.5793 37.2923 32.5793V38.6255L34.5176 39.747V28.4173H37.0612L37.2923 29.9201C38.2175 28.8569 39.4658 28.3018 40.9686 28.3018C43.6043 28.3018 45.5008 30.3138 45.5008 33.0425V39.7481V39.747Z" fill="#CCCCCC"/>
<path d="M7.78121 21.2426H2.77468V24.7115H9.82689V27.2551H0L0 12.6875H9.59585V15.2311H2.77468L2.77468 18.6989H8.90162L7.78009 21.2426H7.78121Z" fill="white"/>
<path d="M18.4976 20.6882C18.1511 19.3469 17.0879 18.5147 15.7005 18.5147C13.9891 18.5147 12.6017 19.717 12.6017 21.6135C12.6017 23.51 13.9891 24.7347 15.7005 24.7347C17.1114 24.7347 18.1746 23.9026 18.5447 22.4917H21.3418C21.0648 25.4279 18.6143 27.4399 15.7005 27.4399C12.4638 27.4399 9.85059 25.0118 9.85059 21.6359C9.85059 18.2601 12.4638 15.8096 15.7005 15.8096C18.6367 15.8096 21.0884 17.8676 21.3194 20.6423L18.4987 20.6882H18.4976Z" fill="white"/>
<path d="M27.4691 15.8086C30.6598 15.8086 33.2954 18.2367 33.2954 21.635C33.2954 25.0332 30.6598 27.4389 27.4691 27.4389C24.2783 27.4389 21.6191 25.0108 21.6191 21.635C21.6191 18.2591 24.2312 15.8086 27.4691 15.8086ZM27.4691 24.7349C29.1334 24.7349 30.5208 23.5326 30.5208 21.6137C30.5208 19.6947 29.1334 18.5149 27.4691 18.5149C25.8047 18.5149 24.3703 19.7171 24.3703 21.6137C24.3703 23.5102 25.7576 24.7349 27.4691 24.7349Z" fill="white"/>
<path d="M0.0649981 43.4388L0.0649981 43.3337H0.799094V43.4388H0.491309L0.491309 44.3125H0.372783L0.372783 43.4388H0.0649981ZM1.32947 44.0124V43.5784H1.44226V44.3125H1.32947V44.1882H1.32183C1.30462 44.2255 1.27786 44.2572 1.24153 44.2833C1.20521 44.3092 1.15933 44.3221 1.10389 44.3221C1.05801 44.3221 1.01723 44.312 0.981542 44.2919C0.945857 44.2716 0.917819 44.241 0.897427 44.2002C0.877036 44.1591 0.86684 44.1073 0.86684 44.0449L0.86684 43.5784H0.979631L0.979631 44.0372C0.979631 44.0907 0.994606 44.1334 1.02456 44.1653C1.05482 44.1972 1.09338 44.2131 1.14021 44.2131C1.16825 44.2131 1.19677 44.2059 1.22576 44.1916C1.25508 44.1772 1.27961 44.1553 1.29936 44.1256C1.31944 44.096 1.32947 44.0582 1.32947 44.0124ZM1.64885 44.3125V43.5784H1.75782V43.6893H1.76546C1.77884 43.653 1.80306 43.6235 1.83811 43.6009C1.87315 43.5782 1.91266 43.5669 1.95663 43.5669C1.96492 43.5669 1.97527 43.5671 1.9877 43.5674C2.00012 43.5677 2.00952 43.5682 2.0159 43.5688V43.6835C2.01207 43.6826 2.00331 43.6812 1.98961 43.6792C1.97623 43.677 1.96205 43.6759 1.94707 43.6759C1.91139 43.6759 1.87953 43.6834 1.85149 43.6984C1.82377 43.713 1.80178 43.7334 1.78553 43.7595C1.7696 43.7853 1.76164 43.8148 1.76164 43.848V44.3125H1.64885ZM2.26239 43.8709V44.3125H2.1496V43.5784H2.25856V43.6931H2.26812C2.28533 43.6558 2.31145 43.6259 2.3465 43.6033C2.38155 43.5803 2.42679 43.5688 2.48223 43.5688C2.53194 43.5688 2.57543 43.579 2.61271 43.5994C2.64999 43.6195 2.67898 43.6501 2.69969 43.6912C2.7204 43.732 2.73075 43.7836 2.73075 43.846V44.3125H2.61796V43.8537C2.61796 43.796 2.60299 43.7511 2.57304 43.7189C2.54309 43.6864 2.50199 43.6702 2.44973 43.6702C2.41373 43.6702 2.38155 43.678 2.35319 43.6936C2.32515 43.7092 2.30301 43.732 2.28676 43.7619C2.27051 43.7919 2.26239 43.8282 2.26239 43.8709ZM2.93686 44.3125V43.5784H3.04965V44.3125H2.93686ZM2.99421 43.4561C2.97223 43.4561 2.95327 43.4486 2.93734 43.4336C2.92173 43.4186 2.91392 43.4006 2.91392 43.3796C2.91392 43.3586 2.92173 43.3406 2.93734 43.3256C2.95327 43.3106 2.97223 43.3031 2.99421 43.3031C3.0162 43.3031 3.035 43.3106 3.05061 43.3256C3.06654 43.3406 3.0745 43.3586 3.0745 43.3796C3.0745 43.4006 3.06654 43.4186 3.05061 43.4336C3.035 43.4486 3.0162 43.4561 2.99421 43.4561ZM3.36903 43.8709V44.3125H3.25624V43.5784H3.3652V43.6931H3.37476C3.39197 43.6558 3.41809 43.6259 3.45314 43.6033C3.48819 43.5803 3.53343 43.5688 3.58887 43.5688C3.63858 43.5688 3.68207 43.579 3.71935 43.5994C3.75662 43.6195 3.78562 43.6501 3.80633 43.6912C3.82704 43.732 3.83739 43.7836 3.83739 43.846V44.3125H3.7246V43.8537C3.7246 43.796 3.70963 43.7511 3.67968 43.7189C3.64973 43.6864 3.60863 43.6702 3.55637 43.6702C3.52037 43.6702 3.48819 43.678 3.45983 43.6936C3.43179 43.7092 3.40965 43.732 3.3934 43.7619C3.37715 43.7919 3.36903 43.8282 3.36903 43.8709ZM4.33982 44.6031C4.28533 44.6031 4.23849 44.5961 4.1993 44.5821C4.16011 44.5684 4.12746 44.5502 4.10133 44.5276C4.07552 44.5053 4.05497 44.4814 4.03968 44.4559L4.12953 44.3928C4.13972 44.4062 4.15263 44.4215 4.16824 44.4387C4.18385 44.4562 4.2052 44.4713 4.23228 44.4841C4.25968 44.4971 4.29553 44.5037 4.33982 44.5037C4.39908 44.5037 4.44799 44.4893 4.48654 44.4607C4.52509 44.432 4.54437 44.3871 4.54437 44.3259V44.1768H4.53481C4.52653 44.1902 4.51474 44.2067 4.49944 44.2265C4.48447 44.2459 4.4628 44.2633 4.43444 44.2786C4.40641 44.2935 4.36849 44.301 4.3207 44.301C4.26144 44.301 4.20823 44.287 4.16107 44.259C4.11423 44.2309 4.07711 44.1902 4.04971 44.1366C4.02263 44.0831 4.00909 44.0181 4.00909 43.9416C4.00909 43.8664 4.02231 43.801 4.04876 43.7452C4.0752 43.6891 4.112 43.6458 4.15916 43.6152C4.20631 43.5843 4.2608 43.5688 4.32261 43.5688C4.3704 43.5688 4.40832 43.5768 4.43636 43.5927C4.46471 43.6084 4.48638 43.6262 4.50135 43.6463C4.51665 43.666 4.52844 43.6823 4.53672 43.695H4.54819V43.5784H4.65716V44.3335C4.65716 44.3966 4.64282 44.4479 4.61415 44.4874C4.58579 44.5272 4.54755 44.5564 4.49944 44.5749C4.45165 44.5937 4.39844 44.6031 4.33982 44.6031ZM4.33599 44.1997C4.38124 44.1997 4.41947 44.1894 4.45069 44.1686C4.48192 44.1479 4.50566 44.1181 4.52191 44.0793C4.53815 44.0404 4.54628 43.9939 4.54628 43.9397C4.54628 43.8868 4.53831 43.8401 4.52238 43.7997C4.50645 43.7592 4.48287 43.7275 4.45165 43.7046C4.42043 43.6816 4.38187 43.6702 4.33599 43.6702C4.2882 43.6702 4.24837 43.6823 4.21651 43.7065C4.18497 43.7307 4.16123 43.7632 4.1453 43.804C4.12969 43.8448 4.12188 43.89 4.12188 43.9397C4.12188 43.9907 4.12985 44.0358 4.14578 44.075C4.16203 44.1138 4.18592 44.1444 4.21747 44.1667C4.24933 44.1887 4.28884 44.1997 4.33599 44.1997ZM5.43522 44.3125L5.16758 43.3337H5.28802L5.49257 44.1309H5.50213L5.71051 43.3337H5.84433L6.05271 44.1309H6.06226L6.26682 43.3337H6.38725L6.11961 44.3125H5.99727L5.78124 43.5325H5.7736L5.55757 44.3125H5.43522ZM6.66732 44.3297C6.6208 44.3297 6.57858 44.3209 6.54067 44.3034C6.50275 44.2856 6.47264 44.2599 6.45034 44.2265C6.42804 44.1927 6.41689 44.1519 6.41689 44.1041C6.41689 44.0621 6.42517 44.028 6.44174 44.0018C6.45831 43.9754 6.48045 43.9547 6.50817 43.9397C6.53589 43.9247 6.56648 43.9136 6.59993 43.9063C6.6337 43.8986 6.66764 43.8926 6.70173 43.8881C6.74634 43.8824 6.7825 43.8781 6.81022 43.8752C6.83826 43.872 6.85865 43.8668 6.87139 43.8594C6.88446 43.8521 6.89099 43.8394 6.89099 43.8212V43.8174C6.89099 43.7702 6.87808 43.7336 6.85228 43.7074C6.82679 43.6813 6.78808 43.6683 6.73614 43.6683C6.68229 43.6683 6.64008 43.68 6.60949 43.7036C6.5789 43.7272 6.5574 43.7524 6.54497 43.7791L6.43791 43.7409C6.45703 43.6963 6.48252 43.6616 6.51438 43.6367C6.54656 43.6115 6.58161 43.594 6.61953 43.5841C6.65776 43.5739 6.69536 43.5688 6.73232 43.5688C6.75589 43.5688 6.78298 43.5717 6.81356 43.5774C6.84447 43.5829 6.87426 43.5942 6.90294 43.6114C6.93193 43.6286 6.95599 43.6546 6.9751 43.6893C6.99422 43.724 7.00378 43.7705 7.00378 43.8288V44.3125H6.89099V44.2131H6.88525C6.87761 44.229 6.86486 44.2461 6.84702 44.2642C6.82918 44.2824 6.80544 44.2978 6.77581 44.3106C6.74618 44.3233 6.71001 44.3297 6.66732 44.3297ZM6.68452 44.2284C6.72913 44.2284 6.76673 44.2196 6.79732 44.2021C6.82822 44.1846 6.85148 44.162 6.86709 44.1342C6.88302 44.1065 6.89099 44.0774 6.89099 44.0468V43.9435C6.88621 43.9493 6.8757 43.9545 6.85945 43.9593C6.84351 43.9638 6.82503 43.9678 6.80401 43.9713C6.7833 43.9744 6.76306 43.9773 6.74331 43.9799C6.72387 43.9821 6.7081 43.984 6.69599 43.9856C6.66668 43.9894 6.63928 43.9956 6.61379 44.0042C6.58862 44.0125 6.56823 44.0251 6.55262 44.042C6.53732 44.0586 6.52968 44.0812 6.52968 44.1099C6.52968 44.149 6.54417 44.1787 6.57317 44.1988C6.60248 44.2185 6.6396 44.2284 6.68452 44.2284ZM7.72963 43.7428L7.62831 43.7715C7.62194 43.7546 7.61254 43.7382 7.60011 43.7223C7.58801 43.706 7.57144 43.6926 7.55041 43.6821C7.52938 43.6716 7.50246 43.6663 7.46964 43.6663C7.42471 43.6663 7.38728 43.6767 7.35733 43.6974C7.32769 43.7178 7.31288 43.7438 7.31288 43.7753C7.31288 43.8033 7.32307 43.8255 7.34347 43.8417C7.36386 43.858 7.39572 43.8715 7.43905 43.8824L7.54802 43.9091C7.61365 43.9251 7.66256 43.9494 7.69474 43.9823C7.72692 44.0148 7.74301 44.0566 7.74301 44.1079C7.74301 44.15 7.73091 44.1876 7.70669 44.2207C7.68279 44.2539 7.64934 44.28 7.60633 44.2991C7.56331 44.3182 7.51329 44.3278 7.45626 44.3278C7.38138 44.3278 7.31941 44.3115 7.27034 44.279C7.22128 44.2465 7.19021 44.1991 7.17715 44.1366L7.2842 44.1099C7.2944 44.1494 7.31368 44.179 7.34203 44.1988C7.37071 44.2185 7.40815 44.2284 7.45435 44.2284C7.50692 44.2284 7.54866 44.2172 7.57956 44.1949C7.61079 44.1723 7.6264 44.1452 7.6264 44.1137C7.6264 44.0882 7.61748 44.0668 7.59963 44.0496C7.58179 44.0321 7.55439 44.0191 7.51743 44.0105L7.39508 43.9818C7.32785 43.9658 7.27847 43.9412 7.24692 43.9077C7.2157 43.8739 7.20009 43.8317 7.20009 43.781C7.20009 43.7396 7.21172 43.703 7.23498 43.6711C7.25855 43.6393 7.29058 43.6142 7.33104 43.5961C7.37182 43.5779 7.41802 43.5688 7.46964 43.5688C7.54228 43.5688 7.59932 43.5848 7.64074 43.6166C7.68248 43.6485 7.71211 43.6906 7.72963 43.7428ZM8.23205 43.5784V43.674H7.85162V43.5784H8.23205ZM7.9625 43.4025H8.07529V44.1022C8.07529 44.1341 8.07991 44.158 8.08915 44.1739C8.09871 44.1895 8.11082 44.2 8.12547 44.2054C8.14045 44.2105 8.15622 44.2131 8.17279 44.2131C8.18522 44.2131 8.19541 44.2125 8.20338 44.2112C8.21134 44.2096 8.21771 44.2083 8.22249 44.2074L8.24543 44.3087C8.23779 44.3115 8.22711 44.3144 8.21341 44.3173C8.19971 44.3205 8.18235 44.3221 8.16132 44.3221C8.12946 44.3221 8.09823 44.3152 8.06765 44.3015C8.03738 44.2878 8.01221 44.2669 7.99213 44.2389C7.97238 44.2109 7.9625 44.1755 7.9625 44.1328V43.4025ZM8.70162 44.3278C8.63088 44.3278 8.56987 44.3122 8.51857 44.281C8.46759 44.2494 8.42824 44.2054 8.40052 44.149C8.37312 44.0923 8.35942 44.0264 8.35942 43.9512C8.35942 43.876 8.37312 43.8097 8.40052 43.7524C8.42824 43.6947 8.46679 43.6498 8.51618 43.6176C8.56588 43.5851 8.62387 43.5688 8.69014 43.5688C8.72838 43.5688 8.76614 43.5752 8.80341 43.588C8.84069 43.6007 8.87462 43.6214 8.90521 43.6501C8.9358 43.6785 8.96017 43.716 8.97833 43.7629C8.9965 43.8097 9.00558 43.8674 9.00558 43.9359V43.9837H8.43971V43.8862H8.89087C8.89087 43.8448 8.88259 43.8078 8.86602 43.7753C8.84977 43.7428 8.82651 43.7172 8.79624 43.6984C8.76629 43.6796 8.73093 43.6702 8.69014 43.6702C8.64522 43.6702 8.60635 43.6813 8.57353 43.7036C8.54103 43.7256 8.51602 43.7543 8.4985 43.7896C8.48097 43.825 8.47221 43.8629 8.47221 43.9034V43.9684C8.47221 44.0238 8.48177 44.0708 8.50089 44.1094C8.52032 44.1476 8.54724 44.1768 8.58166 44.1968C8.61607 44.2166 8.65605 44.2265 8.70162 44.2265C8.73125 44.2265 8.75801 44.2223 8.78191 44.214C8.80612 44.2054 8.82699 44.1927 8.84452 44.1758C8.86204 44.1586 8.87558 44.1373 8.88514 44.1118L8.99411 44.1424C8.98264 44.1793 8.96336 44.2118 8.93628 44.2399C8.90919 44.2676 8.87574 44.2892 8.83591 44.3049C8.79609 44.3201 8.75132 44.3278 8.70162 44.3278ZM9.55567 44.3125V43.5784H9.66846V44.3125H9.55567ZM9.61302 43.4561C9.59104 43.4561 9.57208 43.4486 9.55615 43.4336C9.54054 43.4186 9.53273 43.4006 9.53273 43.3796C9.53273 43.3586 9.54054 43.3406 9.55615 43.3256C9.57208 43.3106 9.59104 43.3031 9.61302 43.3031C9.63501 43.3031 9.6538 43.3106 9.66942 43.3256C9.68535 43.3406 9.69331 43.3586 9.69331 43.3796C9.69331 43.4006 9.68535 43.4186 9.66942 43.4336C9.6538 43.4486 9.63501 43.4561 9.61302 43.4561ZM9.98784 43.8709V44.3125H9.87504V43.5784H9.98401V43.6931H9.99357C10.0108 43.6558 10.0369 43.6259 10.072 43.6033C10.107 43.5803 10.1522 43.5688 10.2077 43.5688C10.2574 43.5688 10.3009 43.579 10.3382 43.5994C10.3754 43.6195 10.4044 43.6501 10.4251 43.6912C10.4458 43.732 10.4562 43.7836 10.4562 43.846V44.3125H10.3434V43.8537C10.3434 43.796 10.3284 43.7511 10.2985 43.7189C10.2685 43.6864 10.2274 43.6702 10.1752 43.6702C10.1392 43.6702 10.107 43.678 10.0786 43.6936C10.0506 43.7092 10.0285 43.732 10.0122 43.7619C9.99596 43.7919 9.98784 43.8282 9.98784 43.8709ZM10.9816 43.5784V43.674H10.6011V43.5784H10.9816ZM10.712 43.4025H10.8248V44.1022C10.8248 44.1341 10.8294 44.158 10.8387 44.1739C10.8482 44.1895 10.8603 44.2 10.875 44.2054C10.89 44.2105 10.9057 44.2131 10.9223 44.2131C10.9347 44.2131 10.9449 44.2125 10.9529 44.2112C10.9609 44.2096 10.9672 44.2083 10.972 44.2074L10.9949 44.3087C10.9873 44.3115 10.9766 44.3144 10.9629 44.3173C10.9492 44.3205 10.9319 44.3221 10.9108 44.3221C10.879 44.3221 10.8477 44.3152 10.8172 44.3015C10.7869 44.2878 10.7617 44.2669 10.7416 44.2389C10.7219 44.2109 10.712 44.1755 10.712 44.1328V43.4025ZM11.4416 44.3278C11.3753 44.3278 11.3171 44.312 11.2671 44.2805C11.2174 44.2489 11.1786 44.2048 11.1505 44.1481C11.1228 44.0914 11.1089 44.0251 11.1089 43.9493C11.1089 43.8728 11.1228 43.8061 11.1505 43.749C11.1786 43.692 11.2174 43.6477 11.2671 43.6162C11.3171 43.5846 11.3753 43.5688 11.4416 43.5688C11.5078 43.5688 11.5658 43.5846 11.6155 43.6162C11.6656 43.6477 11.7044 43.692 11.7321 43.749C11.7602 43.8061 11.7742 43.8728 11.7742 43.9493C11.7742 44.0251 11.7602 44.0914 11.7321 44.1481C11.7044 44.2048 11.6656 44.2489 11.6155 44.2805C11.5658 44.312 11.5078 44.3278 11.4416 44.3278ZM11.4416 44.2265C11.4919 44.2265 11.5333 44.2136 11.5658 44.1878C11.5983 44.162 11.6224 44.128 11.638 44.086C11.6536 44.0439 11.6614 43.9983 11.6614 43.9493C11.6614 43.9002 11.6536 43.8545 11.638 43.8121C11.6224 43.7697 11.5983 43.7355 11.5658 43.7094C11.5333 43.6832 11.4919 43.6702 11.4416 43.6702C11.3912 43.6702 11.3498 43.6832 11.3173 43.7094C11.2848 43.7355 11.2608 43.7697 11.2451 43.8121C11.2295 43.8545 11.2217 43.9002 11.2217 43.9493C11.2217 43.9983 11.2295 44.0439 11.2451 44.086C11.2608 44.128 11.2848 44.162 11.3173 44.1878C11.3498 44.2136 11.3912 44.2265 11.4416 44.2265ZM12.3402 44.3125V43.3337H12.6709C12.7474 43.3337 12.8102 43.3468 12.8592 43.3729C12.9083 43.3987 12.9446 43.4342 12.9682 43.4795C12.9918 43.5247 13.0036 43.5762 13.0036 43.6338C13.0036 43.6915 12.9918 43.7427 12.9682 43.7873C12.9446 43.8319 12.9084 43.8669 12.8597 43.8924C12.811 43.9176 12.7487 43.9302 12.6728 43.9302H12.4052V43.8231H12.669C12.7213 43.8231 12.7633 43.8155 12.7952 43.8002C12.8274 43.7849 12.8506 43.7632 12.865 43.7352C12.8796 43.7068 12.8869 43.673 12.8869 43.6338C12.8869 43.5947 12.8796 43.5604 12.865 43.5311C12.8503 43.5018 12.8269 43.4792 12.7947 43.4632C12.7625 43.447 12.72 43.4388 12.6671 43.4388H12.4587V44.3125H12.3402ZM12.8009 43.8728L13.0418 44.3125H12.9041L12.6671 43.8728H12.8009ZM13.4857 44.3278C13.4149 44.3278 13.3539 44.3122 13.3026 44.281C13.2516 44.2494 13.2123 44.2054 13.1846 44.149C13.1572 44.0923 13.1435 44.0264 13.1435 43.9512C13.1435 43.876 13.1572 43.8097 13.1846 43.7524C13.2123 43.6947 13.2508 43.6498 13.3002 43.6176C13.3499 43.5851 13.4079 43.5688 13.4742 43.5688C13.5124 43.5688 13.5502 43.5752 13.5875 43.588C13.6247 43.6007 13.6587 43.6214 13.6893 43.6501C13.7198 43.6785 13.7442 43.716 13.7624 43.7629C13.7805 43.8097 13.7896 43.8674 13.7896 43.9359V43.9837H13.2238V43.8862H13.6749C13.6749 43.8448 13.6666 43.8078 13.6501 43.7753C13.6338 43.7428 13.6106 43.7172 13.5803 43.6984C13.5503 43.6796 13.515 43.6702 13.4742 43.6702C13.4293 43.6702 13.3904 43.6813 13.3576 43.7036C13.3251 43.7256 13.3001 43.7543 13.2825 43.7896C13.265 43.825 13.2563 43.8629 13.2563 43.9034V43.9684C13.2563 44.0238 13.2658 44.0708 13.2849 44.1094C13.3044 44.1476 13.3313 44.1768 13.3657 44.1968C13.4001 44.2166 13.4401 44.2265 13.4857 44.2265C13.5153 44.2265 13.5421 44.2223 13.566 44.214C13.5902 44.2054 13.611 44.1927 13.6286 44.1758C13.6461 44.1586 13.6596 44.1373 13.6692 44.1118L13.7782 44.1424C13.7667 44.1793 13.7474 44.2118 13.7203 44.2399C13.6932 44.2676 13.6598 44.2892 13.62 44.3049C13.5801 44.3201 13.5354 44.3278 13.4857 44.3278ZM14.4812 43.7428L14.3799 43.7715C14.3735 43.7546 14.3641 43.7382 14.3517 43.7223C14.3396 43.706 14.323 43.6926 14.302 43.6821C14.2809 43.6716 14.254 43.6663 14.2212 43.6663C14.1763 43.6663 14.1388 43.6767 14.1089 43.6974C14.0792 43.7178 14.0644 43.7438 14.0644 43.7753C14.0644 43.8033 14.0746 43.8255 14.095 43.8417C14.1154 43.858 14.1473 43.8715 14.1906 43.8824L14.2996 43.9091C14.3652 43.9251 14.4141 43.9494 14.4463 43.9823C14.4785 44.0148 14.4946 44.0566 14.4946 44.1079C14.4946 44.15 14.4825 44.1876 14.4582 44.2207C14.4343 44.2539 14.4009 44.28 14.3579 44.2991C14.3149 44.3182 14.2648 44.3278 14.2078 44.3278C14.1329 44.3278 14.071 44.3115 14.0219 44.279C13.9728 44.2465 13.9418 44.1991 13.9287 44.1366L14.0358 44.1099C14.046 44.1494 14.0652 44.179 14.0936 44.1988C14.1223 44.2185 14.1597 44.2284 14.2059 44.2284C14.2585 44.2284 14.3002 44.2172 14.3311 44.1949C14.3623 44.1723 14.378 44.1452 14.378 44.1137C14.378 44.0882 14.369 44.0668 14.3512 44.0496C14.3333 44.0321 14.3059 44.0191 14.269 44.0105L14.1466 43.9818C14.0794 43.9658 14.03 43.9412 13.9985 43.9077C13.9673 43.8739 13.9516 43.8317 13.9516 43.781C13.9516 43.7396 13.9633 43.703 13.9865 43.6711C14.0101 43.6393 14.0421 43.6142 14.0826 43.5961C14.1234 43.5779 14.1696 43.5688 14.2212 43.5688C14.2938 43.5688 14.3509 43.5848 14.3923 43.6166C14.434 43.6485 14.4637 43.6906 14.4812 43.7428ZM14.9626 44.3278C14.8963 44.3278 14.8382 44.312 14.7881 44.2805C14.7384 44.2489 14.6996 44.2048 14.6715 44.1481C14.6438 44.0914 14.6299 44.0251 14.6299 43.9493C14.6299 43.8728 14.6438 43.8061 14.6715 43.749C14.6996 43.692 14.7384 43.6477 14.7881 43.6162C14.8382 43.5846 14.8963 43.5688 14.9626 43.5688C15.0288 43.5688 15.0868 43.5846 15.1365 43.6162C15.1866 43.6477 15.2254 43.692 15.2532 43.749C15.2812 43.8061 15.2952 43.8728 15.2952 43.9493C15.2952 44.0251 15.2812 44.0914 15.2532 44.1481C15.2254 44.2048 15.1866 44.2489 15.1365 44.2805C15.0868 44.312 15.0288 44.3278 14.9626 44.3278ZM14.9626 44.2265C15.0129 44.2265 15.0543 44.2136 15.0868 44.1878C15.1193 44.162 15.1434 44.128 15.159 44.086C15.1746 44.0439 15.1824 43.9983 15.1824 43.9493C15.1824 43.9002 15.1746 43.8545 15.159 43.8121C15.1434 43.7697 15.1193 43.7355 15.0868 43.7094C15.0543 43.6832 15.0129 43.6702 14.9626 43.6702C14.9122 43.6702 14.8708 43.6832 14.8383 43.7094C14.8058 43.7355 14.7818 43.7697 14.7661 43.8121C14.7505 43.8545 14.7427 43.9002 14.7427 43.9493C14.7427 43.9983 14.7505 44.0439 14.7661 44.086C14.7818 44.128 14.8058 44.162 14.8383 44.1878C14.8708 44.2136 14.9122 44.2265 14.9626 44.2265ZM15.93 44.0124V43.5784H16.0428V44.3125H15.93V44.1882H15.9224C15.9052 44.2255 15.8784 44.2572 15.8421 44.2833C15.8058 44.3092 15.7599 44.3221 15.7044 44.3221C15.6586 44.3221 15.6178 44.312 15.5821 44.2919C15.5464 44.2716 15.5184 44.241 15.498 44.2002C15.4776 44.1591 15.4674 44.1073 15.4674 44.0449V43.5784H15.5802V44.0372C15.5802 44.0907 15.5952 44.1334 15.6251 44.1653C15.6554 44.1972 15.6939 44.2131 15.7408 44.2131C15.7688 44.2131 15.7973 44.2059 15.8263 44.1916C15.8556 44.1772 15.8802 44.1553 15.8999 44.1256C15.92 44.096 15.93 44.0582 15.93 44.0124ZM16.2494 44.3125V43.5784H16.3584V43.6893H16.366C16.3794 43.653 16.4036 43.6235 16.4387 43.6009C16.4737 43.5782 16.5132 43.5669 16.5572 43.5669C16.5655 43.5669 16.5758 43.5671 16.5882 43.5674C16.6007 43.5677 16.6101 43.5682 16.6164 43.5688V43.6835C16.6126 43.6826 16.6039 43.6812 16.5902 43.6792C16.5768 43.677 16.5626 43.6759 16.5476 43.6759C16.5119 43.6759 16.4801 43.6834 16.452 43.6984C16.4243 43.713 16.4023 43.7334 16.3861 43.7595C16.3702 43.7853 16.3622 43.8148 16.3622 43.848V44.3125H16.2494ZM17.026 44.3278C16.9572 44.3278 16.8979 44.3115 16.8482 44.279C16.7985 44.2465 16.7603 44.2018 16.7335 44.1447C16.7068 44.0877 16.6934 44.0226 16.6934 43.9493C16.6934 43.8747 16.7071 43.8089 16.7345 43.7519C16.7622 43.6945 16.8008 43.6498 16.8501 43.6176C16.8999 43.5851 16.9578 43.5688 17.0241 43.5688C17.0757 43.5688 17.1222 43.5784 17.1637 43.5975C17.2051 43.6166 17.239 43.6434 17.2655 43.6778C17.2919 43.7122 17.3083 43.7524 17.3147 43.7983H17.2019C17.1933 43.7648 17.1742 43.7352 17.1446 43.7094C17.1152 43.6832 17.0757 43.6702 17.026 43.6702C16.9821 43.6702 16.9435 43.6816 16.9104 43.7046C16.8775 43.7272 16.8519 43.7592 16.8334 43.8006C16.8153 43.8417 16.8062 43.89 16.8062 43.9455C16.8062 44.0022 16.8151 44.0516 16.8329 44.0936C16.8511 44.1357 16.8766 44.1683 16.9094 44.1916C16.9425 44.2148 16.9814 44.2265 17.026 44.2265C17.0553 44.2265 17.0819 44.2214 17.1058 44.2112C17.1297 44.201 17.15 44.1863 17.1665 44.1672C17.1831 44.1481 17.1949 44.1252 17.2019 44.0984H17.3147C17.3083 44.1417 17.2925 44.1808 17.2674 44.2155C17.2425 44.2499 17.2095 44.2773 17.1684 44.2977C17.1277 44.3178 17.0802 44.3278 17.026 44.3278ZM17.7874 44.3278C17.7166 44.3278 17.6556 44.3122 17.6043 44.281C17.5533 44.2494 17.514 44.2054 17.4863 44.149C17.4589 44.0923 17.4452 44.0264 17.4452 43.9512C17.4452 43.876 17.4589 43.8097 17.4863 43.7524C17.514 43.6947 17.5525 43.6498 17.6019 43.6176C17.6516 43.5851 17.7096 43.5688 17.7759 43.5688C17.8141 43.5688 17.8519 43.5752 17.8892 43.588C17.9264 43.6007 17.9604 43.6214 17.991 43.6501C18.0215 43.6785 18.0459 43.716 18.0641 43.7629C18.0822 43.8097 18.0913 43.8674 18.0913 43.9359V43.9837H17.5255V43.8862H17.9766C17.9766 43.8448 17.9683 43.8078 17.9518 43.7753C17.9355 43.7428 17.9123 43.7172 17.882 43.6984C17.852 43.6796 17.8167 43.6702 17.7759 43.6702C17.731 43.6702 17.6921 43.6813 17.6593 43.7036C17.6268 43.7256 17.6018 43.7543 17.5842 43.7896C17.5667 43.825 17.558 43.8629 17.558 43.9034V43.9684C17.558 44.0238 17.5675 44.0708 17.5866 44.1094C17.6061 44.1476 17.633 44.1768 17.6674 44.1968C17.7018 44.2166 17.7418 44.2265 17.7874 44.2265C17.817 44.2265 17.8438 44.2223 17.8677 44.214C17.8919 44.2054 17.9127 44.1927 17.9303 44.1758C17.9478 44.1586 17.9613 44.1373 17.9709 44.1118L18.0799 44.1424C18.0684 44.1793 18.0491 44.2118 18.022 44.2399C17.9949 44.2676 17.9615 44.2892 17.9217 44.3049C17.8818 44.3201 17.8371 44.3278 17.7874 44.3278ZM18.7829 43.7428L18.6816 43.7715C18.6752 43.7546 18.6658 43.7382 18.6534 43.7223C18.6413 43.706 18.6247 43.6926 18.6037 43.6821C18.5826 43.6716 18.5557 43.6663 18.5229 43.6663C18.478 43.6663 18.4405 43.6767 18.4106 43.6974C18.3809 43.7178 18.3661 43.7438 18.3661 43.7753C18.3661 43.8033 18.3763 43.8255 18.3967 43.8417C18.4171 43.858 18.449 43.8715 18.4923 43.8824L18.6013 43.9091C18.6669 43.9251 18.7158 43.9494 18.748 43.9823C18.7802 44.0148 18.7963 44.0566 18.7963 44.1079C18.7963 44.15 18.7842 44.1876 18.7599 44.2207C18.736 44.2539 18.7026 44.28 18.6596 44.2991C18.6166 44.3182 18.5665 44.3278 18.5095 44.3278C18.4346 44.3278 18.3727 44.3115 18.3236 44.279C18.2745 44.2465 18.2435 44.1991 18.2304 44.1366L18.3375 44.1099C18.3477 44.1494 18.3669 44.179 18.3953 44.1988C18.424 44.2185 18.4614 44.2284 18.5076 44.2284C18.5602 44.2284 18.6019 44.2172 18.6328 44.1949C18.664 44.1723 18.6797 44.1452 18.6797 44.1137C18.6797 44.0882 18.6707 44.0668 18.6529 44.0496C18.635 44.0321 18.6076 44.0191 18.5707 44.0105L18.4483 43.9818C18.3811 43.9658 18.3317 43.9412 18.3002 43.9077C18.269 43.8739 18.2533 43.8317 18.2533 43.781C18.2533 43.7396 18.265 43.703 18.2882 43.6711C18.3118 43.6393 18.3438 43.6142 18.3843 43.5961C18.4251 43.5779 18.4713 43.5688 18.5229 43.5688C18.5955 43.5688 18.6526 43.5848 18.694 43.6166C18.7357 43.6485 18.7654 43.6906 18.7829 43.7428Z" fill="#CCCCCC"/>
</g>
<defs>
<filter id="filter0_b_875_3167" x="-4" y="-4" width="53.501" height="53.6514" filterUnits="userSpaceOnUse" color-interpolation-filters="sRGB">
<feFlood flood-opacity="0" result="BackgroundImageFix"/>
<feGaussianBlur in="BackgroundImageFix" stdDeviation="2"/>
<feComposite in2="SourceAlpha" operator="in" result="effect1_backgroundBlur_875_3167"/>
<feBlend mode="normal" in="SourceGraphic" in2="effect1_backgroundBlur_875_3167" result="shape"/>
</filter>
<clipPath id="clip0_875_3167">
<rect width="45.5007" height="45.651" fill="white"/>
</clipPath>
</defs>
</svg>
