<svg width="209" height="174" viewBox="0 0 209 174" fill="none" xmlns="http://www.w3.org/2000/svg">
<path d="M5.313 80.7932C2.88863 80.9476 1.20299 78.7717 1.01496 75.8101C0.826916 72.8284 2.41854 70.4913 5.42717 70.0615L5.60849 72.8687C4.16462 73.1977 3.49305 74.1849 3.59378 75.7497C3.6878 77.2271 4.2855 78.1606 5.14511 78.1069C7.69707 77.9457 5.40702 70.2965 10.4639 69.9742C13.0831 69.8063 14.6814 71.9217 14.856 74.6685C15.0373 77.5629 13.5599 79.6851 10.7997 79.9873L10.6251 77.1801C11.9212 76.8645 12.3578 75.9914 12.2839 74.7893C12.1899 73.3522 11.5653 72.5933 10.8333 72.6403C8.30148 72.8015 10.4035 80.4641 5.31972 80.7865L5.313 80.7932Z" fill="#094C31" stroke="white" stroke-width="0.671569" stroke-miterlimit="10"/>
<path d="M6.08461 102.441L5.46677 99.9356L10.8931 98.5924C12.6458 98.1559 13.2167 97.2426 12.9078 95.9867C12.5787 94.6704 11.531 93.9116 10.3289 93.9049H10.3491L4.33853 95.389L3.71397 92.8841L9.14025 91.5409C10.8931 91.1044 11.4639 90.1911 11.155 88.9352C10.7453 87.2899 9.05967 86.7325 9.05967 86.7325L2.59245 88.3375L1.97461 85.8326L12.1959 83.3008L12.7667 85.5975L11.5445 86.1214C12.6391 86.6922 13.3779 87.6391 13.7002 88.9084C14.0763 90.4328 13.5726 91.8633 12.4578 92.8236C14.0226 93.3407 15.0635 94.3951 15.4463 95.9599C16.0104 98.2365 14.6001 100.332 12.1422 100.943L6.09133 102.441H6.08461Z" fill="#094C31" stroke="white" stroke-width="0.671569" stroke-miterlimit="10"/>
<path d="M20.995 110.248L22.0561 112.598L12.4594 116.937L11.4856 114.781L12.5064 114.109C11.3177 113.679 10.4044 112.793 9.90069 111.678C8.71202 109.052 9.83354 106.05 12.6877 104.754C15.5687 103.451 18.5639 104.6 19.7459 107.219C20.2496 108.334 20.2966 109.59 19.8601 110.751L20.995 110.241V110.248ZM17.6103 108.502C16.9455 107.031 15.3673 106.306 13.7219 107.051C12.0967 107.783 11.5998 109.449 12.2646 110.919C12.9496 112.43 14.5345 113.169 16.1597 112.437C17.8051 111.692 18.2953 110.013 17.6103 108.502Z" fill="#094C31" stroke="white" stroke-width="0.671569" stroke-miterlimit="10"/>
<path d="M24.5812 121.484L24.2992 121.028C23.2582 119.322 21.586 119.308 21.586 119.308L15.8978 122.78L14.5547 120.578L23.547 115.098L24.776 117.119L23.6746 118.039C24.9237 118.234 26.0385 118.986 26.7571 120.161L24.5745 121.491L24.5812 121.484Z" fill="#094C31" stroke="white" stroke-width="0.671569" stroke-miterlimit="10"/>
<path d="M26.2468 123.962L28.2347 122.491L28.6175 123.008L30.5919 121.812L32.0022 123.713L30.1554 125.083L31.203 126.5L29.2152 127.971L28.1675 126.554L24.9373 128.945C24.0239 129.623 23.9098 130.187 24.5343 131.033L24.7895 131.382L22.8017 132.853L22.3383 132.229C20.9347 130.328 21.3108 128.421 23.3994 126.869L26.6296 124.479L26.2468 123.962Z" fill="#094C31" stroke="white" stroke-width="0.671569" stroke-miterlimit="10"/>
<path d="M40.8592 146.134C39.2138 147.921 36.494 147.518 34.3046 145.516C32.1019 143.495 31.6385 140.701 33.5122 138.31L35.5873 140.218C34.7747 141.453 34.9762 142.629 36.1313 143.696C37.226 144.697 38.3005 144.959 38.878 144.328C40.6107 142.447 33.6599 138.512 37.0917 134.778C38.8646 132.844 41.4837 133.267 43.5119 135.134C45.6474 137.095 46.0437 139.654 44.264 141.782L42.1889 139.875C42.9007 138.747 42.6187 137.82 41.7322 137.008C40.6711 136.034 39.6906 135.92 39.2004 136.457C37.4812 138.324 44.3043 142.4 40.8592 146.154V146.134Z" fill="#094C31" stroke="white" stroke-width="0.671569" stroke-miterlimit="10"/>
<path d="M47.649 142.934L49.7577 144.384L46.5409 149.058C45.5335 150.529 45.7283 151.604 46.8968 152.409C48.4011 153.444 50.1606 152.752 50.1606 152.752L53.9349 147.259L56.0637 148.723L50.1002 157.399L48.2399 156.123L48.7973 154.814C47.5012 155.149 46.2252 154.948 45.0567 154.149C43.0353 152.759 42.6458 150.22 44.0829 148.132L47.649 142.94V142.934Z" fill="#094C31" stroke="white" stroke-width="0.671569" stroke-miterlimit="10"/>
<path d="M62.5167 160.71C61.6638 162.376 59.77 162.779 57.5673 161.651C55.2503 160.469 54.4848 158.145 55.4048 156.197L57.7016 157.373C57.4061 158.185 57.8493 158.971 58.7492 159.428C59.4544 159.79 60.0722 159.817 60.2871 159.394C60.8176 158.36 55.3914 156.553 57.2046 153.014C58.0306 151.409 60.1394 150.818 62.3354 151.946C64.4576 153.034 65.1627 155.157 64.1621 157.252L61.8451 156.07C62.1205 155.197 61.8586 154.532 61.1131 154.149C60.3878 153.78 59.6961 153.76 59.4476 154.236C58.7425 155.613 64.2225 157.359 62.51 160.704L62.5167 160.71Z" fill="#094C31" stroke="white" stroke-width="0.671569" stroke-miterlimit="10"/>
<path d="M67.2913 157.146L68.1912 154.842L68.7889 155.077L69.8299 153.016L72.0326 153.882L71.1931 156.024L72.8318 156.669L71.9252 158.966L70.2865 158.321L68.8158 162.062C68.3994 163.123 68.6009 163.66 69.5814 164.05L69.9843 164.204L69.0777 166.501L68.3591 166.219C66.1564 165.352 65.4647 163.532 66.4116 161.115L67.8823 157.374L67.2846 157.139L67.2913 157.146Z" fill="#094C31" stroke="white" stroke-width="0.671569" stroke-miterlimit="10"/>
<path d="M83.1677 159.757L85.6593 160.428L82.926 170.596L80.6426 169.985L80.7702 168.769C79.6823 169.414 78.4198 169.562 77.2378 169.246C74.4575 168.501 72.839 165.727 73.6583 162.698C74.4776 159.649 77.2647 158.058 80.0449 158.81C81.2269 159.126 82.2276 159.884 82.8521 160.966L83.1745 159.764L83.1677 159.757ZM79.6689 161.268C78.1108 160.851 76.5528 161.61 76.0827 163.35C75.6193 165.076 76.5931 166.513 78.1444 166.929C79.7427 167.359 81.3209 166.607 81.7843 164.881C82.2544 163.135 81.2605 161.691 79.6622 161.261L79.6689 161.268Z" fill="#094C31" stroke="white" stroke-width="0.671569" stroke-miterlimit="10"/>
<path d="M97.4786 172.589L94.9401 172.293L95.5848 166.746C95.7929 164.953 95.1147 164.093 93.7044 163.932C91.8911 163.724 90.6689 165.094 90.6689 165.094L89.8966 171.709L87.3379 171.413L88.5534 160.957L90.9039 161.232L90.9576 162.643C91.9247 161.763 93.1402 161.38 94.5237 161.541C96.9548 161.823 98.4927 163.885 98.1972 166.403L97.4786 172.595V172.589Z" fill="#094C31" stroke="white" stroke-width="0.671569" stroke-miterlimit="10"/>
<path d="M109.977 162.047L112.556 161.973L112.858 172.503L110.495 172.57L110.266 171.375C109.413 172.301 108.245 172.805 107.016 172.845C104.135 172.926 101.798 170.737 101.704 167.6C101.616 164.444 103.826 162.12 106.707 162.04C107.929 162.006 109.104 162.443 110.011 163.302L109.977 162.053V162.047ZM107.056 164.491C105.444 164.538 104.168 165.713 104.215 167.52C104.269 169.306 105.612 170.408 107.217 170.361C108.869 170.314 110.172 169.138 110.118 167.352C110.065 165.545 108.701 164.444 107.049 164.491H107.056Z" fill="#094C31" stroke="white" stroke-width="0.671569" stroke-miterlimit="10"/>
<path d="M119.669 171.613L117.345 172.03L114.9 158.39L117.439 157.934L118.245 162.44C118.957 161.419 120.018 160.747 121.22 160.533C124.054 160.022 126.693 161.842 127.251 164.952C127.801 168.041 125.961 170.66 123.127 171.17C121.918 171.385 120.676 171.13 119.648 170.398L119.669 171.613ZM122.415 168.786C124 168.504 125.088 167.148 124.779 165.395C124.464 163.615 122.973 162.729 121.381 163.011C119.749 163.299 118.641 164.656 118.963 166.436C119.279 168.195 120.79 169.075 122.422 168.786H122.415Z" fill="#094C31" stroke="white" stroke-width="0.671569" stroke-miterlimit="10"/>
<path d="M128.035 155.692L130.513 154.98L134.334 168.304L131.856 169.016L128.035 155.692Z" fill="#094C31" stroke="white" stroke-width="0.671569" stroke-miterlimit="10"/>
<path d="M146.537 159.79C147.074 162.121 145.429 164.491 143.112 165.418C140.318 166.533 137.229 165.337 136.061 162.43C134.885 159.495 136.309 156.5 139.103 155.385C142.017 154.223 144.717 155.244 145.946 158.091L146.315 159.011L138.733 162.04C139.492 163.242 140.889 163.612 142.185 163.088C143.186 162.692 143.911 161.845 143.985 160.818L146.537 159.797V159.79ZM142.823 158.192C142.078 157.494 141.057 157.299 140.036 157.708C138.995 158.125 138.31 158.998 138.21 160.032L142.823 158.192Z" fill="#094C31" stroke="white" stroke-width="0.671569" stroke-miterlimit="10"/>
<path d="M165.327 148.386C166.704 150.387 165.696 152.952 163.252 154.631C160.787 156.324 157.96 156.149 156.052 153.785L158.376 152.193C159.397 153.268 160.592 153.335 161.888 152.442C163.111 151.602 163.608 150.615 163.117 149.903C161.674 147.795 156.274 153.684 153.406 149.5C151.922 147.338 152.923 144.88 155.193 143.322C157.584 141.683 160.162 141.865 161.841 144.081L159.518 145.673C158.584 144.726 157.611 144.793 156.617 145.471C155.428 146.284 155.099 147.217 155.515 147.815C156.952 149.903 162.453 144.175 165.334 148.372L165.327 148.386Z" fill="#094C31" stroke="white" stroke-width="0.671569" stroke-miterlimit="10"/>
<path d="M167.59 137.345C169.766 135.33 173.097 135.317 175.246 137.634C177.382 139.937 177.12 143.255 174.944 145.269C172.741 147.318 169.424 147.311 167.288 145.014C165.139 142.697 165.388 139.393 167.59 137.345ZM173.231 143.429C174.366 142.375 174.548 140.683 173.339 139.373C172.137 138.084 170.431 138.137 169.303 139.192C168.134 140.273 167.953 141.972 169.148 143.261C170.364 144.571 172.07 144.511 173.231 143.429Z" fill="#094C31" stroke="white" stroke-width="0.671569" stroke-miterlimit="10"/>
<path d="M170.902 129.422L172.608 127.488L183.017 136.642L181.312 138.576L170.902 129.422Z" fill="#094C31" stroke="white" stroke-width="0.671569" stroke-miterlimit="10"/>
<path d="M177.046 127.657L178.51 125.562L183.157 128.812C184.621 129.833 185.696 129.645 186.508 128.476C187.556 126.979 186.871 125.219 186.871 125.219L181.411 121.405L182.888 119.289L191.518 125.32L190.229 127.167L188.926 126.596C189.248 127.899 189.04 129.168 188.227 130.33C186.824 132.338 184.285 132.714 182.203 131.256L177.039 127.65L177.046 127.657Z" fill="#094C31" stroke="white" stroke-width="0.671569" stroke-miterlimit="10"/>
<path d="M186.461 118.153L184.306 116.938L184.621 116.374L182.721 115.057L183.883 112.996L185.884 114.124L186.75 112.586L188.906 113.801L188.04 115.339L191.538 117.314C192.532 117.871 193.096 117.744 193.614 116.83L193.822 116.454L195.977 117.663L195.595 118.335C194.433 120.396 192.539 120.833 190.269 119.557L186.77 117.582L186.455 118.147L186.461 118.153Z" fill="#094C31" stroke="white" stroke-width="0.671569" stroke-miterlimit="10"/>
<path d="M185.724 107.481C186.053 106.783 186.906 106.494 187.604 106.823C188.303 107.152 188.618 107.992 188.289 108.69C187.96 109.389 187.1 109.697 186.402 109.368C185.704 109.039 185.395 108.18 185.724 107.481ZM188.047 110.006L189.149 107.676L198.665 112.182L197.563 114.513L188.047 110.006Z" fill="#094C31" stroke="white" stroke-width="0.671569" stroke-miterlimit="10"/>
<path d="M192.156 99.9032C193.137 97.1027 196.078 95.538 199.06 96.5923C202.022 97.6333 203.338 100.696 202.351 103.489C201.35 106.33 198.422 107.875 195.46 106.834C192.479 105.786 191.156 102.744 192.156 99.9099V99.9032ZM199.98 102.65C200.49 101.193 199.866 99.601 198.18 99.01C196.515 98.4257 195.037 99.2719 194.52 100.729C193.99 102.227 194.621 103.818 196.28 104.403C197.965 104.994 199.443 104.148 199.973 102.65H199.98Z" fill="#094C31" stroke="white" stroke-width="0.671569" stroke-miterlimit="10"/>
<path d="M207.066 84.0703L206.576 86.582L201.089 85.5142C199.316 85.1717 198.41 85.7828 198.141 87.173C197.792 88.9661 199.068 90.2891 199.068 90.2891L205.609 91.5651L205.119 94.0969L194.783 92.0822L195.233 89.7585L196.643 89.8123C195.838 88.778 195.556 87.5423 195.824 86.1723C196.294 83.7681 198.463 82.3981 200.955 82.8817L207.073 84.0771L207.066 84.0703Z" fill="#094C31" stroke="white" stroke-width="0.671569" stroke-miterlimit="10"/>
<path d="M205.145 71.3182C207.012 71.4324 208.14 73.0106 207.986 75.4752C207.824 78.0675 205.998 79.6994 203.855 79.6322L204.017 77.0601C204.883 77.0064 205.42 76.2878 205.487 75.2805C205.534 74.488 205.313 73.9105 204.843 73.8836C203.687 73.8097 204.191 79.5046 200.222 79.2562C198.422 79.142 197.039 77.4429 197.193 74.9783C197.341 72.6009 199.007 71.11 201.324 71.1906L201.162 73.7829C200.256 73.8769 199.745 74.3873 199.698 75.22C199.645 76.0326 199.907 76.6773 200.444 76.7109C201.988 76.8049 201.397 71.0832 205.152 71.3182H205.145Z" fill="#094C31" stroke="white" stroke-width="0.671569" stroke-miterlimit="10"/>
<path d="M140.129 40.3308C151.445 57.3416 136.301 78.6371 136.301 78.6371C183.822 45.6496 129.989 0.5 129.989 0.5C109.889 26.3218 121.628 37.1811 131.197 50.2969C139.25 61.3375 136.389 73.3183 136.389 73.3183C145.985 57.711 140.129 40.3375 140.129 40.3375V40.3308Z" fill="#094C31" stroke="white" stroke-width="0.671569" stroke-miterlimit="10"/>
<path d="M90.7361 94.931C89.7489 91.1165 86.7201 88.7459 82.7713 88.7459C77.9024 88.7459 73.9535 92.1642 73.9535 97.5636C73.9535 102.963 77.9024 106.448 82.7713 106.448C86.7872 106.448 89.816 104.078 90.8637 100.062H98.8285C98.0427 108.423 91.0651 114.145 82.7713 114.145C73.5573 114.145 66.123 107.234 66.123 97.624C66.123 88.0139 73.5573 81.043 82.7713 81.043C91.1323 81.043 98.1032 86.8991 98.7613 94.7967L90.7293 94.931H90.7361Z" fill="#094C31" stroke="white" stroke-width="0.671569" stroke-miterlimit="10"/>
<path d="M125.35 81.3731H133.247V113.622L126.008 110.432L125.417 109.942C122.717 112.709 119.097 114.152 115.35 114.152C106.532 114.152 99.5547 107.242 99.5547 97.6318C99.5547 88.0217 106.532 81.0508 115.35 81.0508C119.104 81.0508 122.657 82.5014 125.356 85.1944V81.3798L125.35 81.3731ZM116.203 88.6126C111.267 88.6126 107.251 92.0981 107.251 97.6251C107.251 103.152 111.267 106.577 116.203 106.577C121.139 106.577 125.35 103.092 125.35 97.6251C125.35 92.1585 121.267 88.6126 116.203 88.6126Z" fill="#094C31" stroke="white" stroke-width="0.671569" stroke-miterlimit="10"/>
<path d="M166.154 113.621L158.324 110.431V96.5159C158.324 90.9889 155.953 88.6183 151.608 88.6183C146.014 88.6183 142.79 93.2252 142.79 93.2252V110.431L134.893 113.621V81.372H142.132L142.79 85.6499C145.423 82.6212 148.975 81.043 153.253 81.043C160.755 81.043 166.154 86.7715 166.154 94.5348V113.621Z" fill="#094C31" stroke="white" stroke-width="0.671569" stroke-miterlimit="10"/>
<path d="M58.7959 60.9538H44.552V70.8258H64.6252V78.0654H36.6543V36.6094H63.967V43.8489H44.552V53.721H61.9926L58.8027 60.9605L58.7959 60.9538Z" fill="#094C31" stroke="white" stroke-width="0.671569" stroke-miterlimit="10"/>
<path d="M89.2986 59.3763C88.3114 55.5618 85.2826 53.1912 81.3338 53.1912C76.4649 53.1912 72.516 56.6095 72.516 62.0089C72.516 67.4083 76.4649 70.8938 81.3338 70.8938C85.3497 70.8938 88.3785 68.5231 89.4262 64.5071H97.391C96.6052 72.8682 89.6276 78.5899 81.3338 78.5899C72.1198 78.5899 64.6855 71.6795 64.6855 62.0693C64.6855 52.4592 72.1198 45.4883 81.3338 45.4883C89.6948 45.4883 96.6657 51.3444 97.3238 59.242L89.2918 59.3763H89.2986Z" fill="#094C31" stroke="white" stroke-width="0.671569" stroke-miterlimit="10"/>
<path d="M114.832 45.4961C123.911 45.4961 131.413 52.4065 131.413 62.0771C131.413 71.7477 123.911 78.5978 114.832 78.5978C105.752 78.5978 98.1836 71.6873 98.1836 62.0771C98.1836 52.467 105.618 45.4961 114.832 45.4961ZM114.832 70.8948C119.566 70.8948 123.515 67.4698 123.515 62.01C123.515 56.5501 119.566 53.1923 114.832 53.1923C110.097 53.1923 106.014 56.6106 106.014 62.01C106.014 67.4094 109.963 70.8948 114.832 70.8948Z" fill="#094C31" stroke="white" stroke-width="0.671569" stroke-miterlimit="10"/>
</svg>
