<svg width="418" height="424" viewBox="0 0 418 424" fill="none" xmlns="http://www.w3.org/2000/svg">
<g opacity="0.5">
<path d="M290.418 365.576C262.043 404.563 246.745 538.768 258.141 607.378C270.732 683.144 349.46 671.635 358.493 653.161C367.527 634.686 293.674 575.568 303.752 505.854C314.944 428.474 371.146 428.368 369.615 395.326C368.111 362.816 323.217 320.516 290.418 365.576Z" stroke="url(#paint0_linear_3464_4631)" stroke-width="0.822164" stroke-miterlimit="10"/>
<path d="M290.418 365.576C262.043 404.563 246.745 538.768 258.141 607.378C270.732 683.144 349.46 671.635 358.493 653.161C367.527 634.686 293.674 575.568 303.752 505.854C314.944 428.474 371.146 428.368 369.615 395.326C368.111 362.816 323.217 320.516 290.418 365.576Z" stroke="black" stroke-opacity="0.1" stroke-width="0.822164" stroke-miterlimit="10"/>
<path d="M281.536 356.042C248.277 390.018 233.846 552.465 248.507 628.996C265.123 715.677 350.655 683.548 363.352 669.83C374.297 658.024 303.248 578.52 311.742 494.281C320.962 402.759 371.651 387.895 367.864 366.66C363.794 343.896 320.564 316.269 281.536 356.042Z" stroke="url(#paint1_linear_3464_4631)" stroke-width="0.822164" stroke-miterlimit="10"/>
<path d="M281.536 356.042C248.277 390.018 233.846 552.465 248.507 628.996C265.123 715.677 350.655 683.548 363.352 669.83C374.297 658.024 303.248 578.52 311.742 494.281C320.962 402.759 371.651 387.895 367.864 366.66C363.794 343.896 320.564 316.269 281.536 356.042Z" stroke="black" stroke-opacity="0.1" stroke-width="0.822164" stroke-miterlimit="10"/>
<path d="M272.653 346.529C234.563 375.388 220.972 566.141 238.872 650.592C259.549 748.273 351.168 695.185 368.209 686.522C380.596 680.151 312.884 581.579 319.723 482.666C327.023 377.171 373.297 346.232 366.112 338.142C360.751 323.808 318.051 312.107 272.653 346.529Z" stroke="url(#paint2_linear_3464_4631)" stroke-width="0.822164" stroke-miterlimit="10"/>
<path d="M272.653 346.529C234.563 375.388 220.972 566.141 238.872 650.592C259.549 748.273 351.168 695.185 368.209 686.522C380.596 680.151 312.884 581.579 319.723 482.666C327.023 377.171 373.297 346.232 366.112 338.142C360.751 323.808 318.051 312.107 272.653 346.529Z" stroke="black" stroke-opacity="0.1" stroke-width="0.822164" stroke-miterlimit="10"/>
<path d="M263.769 336.935C220.874 360.888 208.124 579.735 229.262 672.149C254.036 780.617 352.893 722.157 373.093 703.152C385.745 691.239 322.58 584.598 327.73 471.076C333.153 351.608 374.393 305.146 364.386 309.542C357.069 304.297 315.529 308.077 263.769 336.935Z" stroke="url(#paint3_linear_3464_4631)" stroke-width="0.822164" stroke-miterlimit="10"/>
<path d="M263.769 336.935C220.874 360.888 208.124 579.735 229.262 672.149C254.036 780.617 352.893 722.157 373.093 703.152C385.745 691.239 322.58 584.598 327.73 471.076C333.153 351.608 374.393 305.146 364.386 309.542C357.069 304.297 315.529 308.077 263.769 336.935Z" stroke="black" stroke-opacity="0.1" stroke-width="0.822164" stroke-miterlimit="10"/>
<path d="M254.885 327.461C207.204 346.572 195.295 593.407 219.6 693.827C248.479 813.167 352.317 734.98 377.923 719.882C392.292 711.388 332.25 587.759 335.692 459.563C339.231 326.123 376.392 269.49 362.607 281.02C353.777 288.389 313.024 304.145 254.885 327.461Z" stroke="url(#paint4_linear_3464_4631)" stroke-width="0.822164" stroke-miterlimit="10"/>
<path d="M254.885 327.461C207.204 346.572 195.295 593.407 219.6 693.827C248.479 813.167 352.317 734.98 377.923 719.882C392.292 711.388 332.25 587.759 335.692 459.563C339.231 326.123 376.392 269.49 362.607 281.02C353.777 288.389 313.024 304.145 254.885 327.461Z" stroke="black" stroke-opacity="0.1" stroke-width="0.822164" stroke-miterlimit="10"/>
<path d="M246.011 317.923C193.534 332.299 182.475 607.036 209.965 715.419C242.976 845.611 351.902 725.06 382.79 736.654C398.796 742.621 341.984 590.94 343.682 448.051C345.452 300.68 377.747 227.399 360.856 252.541C350.345 268.085 310.53 300.277 246.011 317.923Z" stroke="url(#paint5_linear_3464_4631)" stroke-width="0.822164" stroke-miterlimit="10"/>
<path d="M246.011 317.923C193.534 332.299 182.475 607.036 209.965 715.419C242.976 845.611 351.902 725.06 382.79 736.654C398.796 742.621 341.984 590.94 343.682 448.051C345.452 300.68 377.747 227.399 360.856 252.541C350.345 268.085 310.53 300.277 246.011 317.923Z" stroke="black" stroke-opacity="0.1" stroke-width="0.822164" stroke-miterlimit="10"/>
<path d="M237.128 308.414C179.865 318.055 169.663 620.567 200.321 737.041C237.482 878.04 352.283 733.813 387.639 753.243C404.936 762.756 351.708 593.981 351.655 436.397C351.602 275.011 378.818 185.4 359.096 223.878C346.726 248.022 308.035 296.459 237.128 308.414Z" stroke="url(#paint6_linear_3464_4631)" stroke-width="0.822164" stroke-miterlimit="10"/>
<path d="M237.128 308.414C179.865 318.055 169.663 620.567 200.321 737.041C237.482 878.04 352.283 733.813 387.639 753.243C404.936 762.756 351.708 593.981 351.655 436.397C351.602 275.011 378.818 185.4 359.096 223.878C346.726 248.022 308.035 296.459 237.128 308.414Z" stroke="black" stroke-opacity="0.1" stroke-width="0.822164" stroke-miterlimit="10"/>
<path d="M228.244 298.882C166.194 303.851 156.877 634.224 190.685 758.66C231.969 910.469 352.76 742.246 392.495 769.936C411.129 782.911 361.457 597.042 359.643 424.826C357.794 249.511 379.816 143.74 357.343 195.319C343.045 228.106 305.521 292.703 228.244 298.882Z" stroke="url(#paint7_linear_3464_4631)" stroke-width="0.822164" stroke-miterlimit="10"/>
<path d="M228.244 298.882C166.194 303.851 156.877 634.224 190.685 758.66C231.969 910.469 352.76 742.246 392.495 769.936C411.129 782.911 361.457 597.042 359.643 424.826C357.794 249.511 379.816 143.74 357.343 195.319C343.045 228.106 305.521 292.703 228.244 298.882Z" stroke="black" stroke-opacity="0.1" stroke-width="0.822164" stroke-miterlimit="10"/>
<path d="M219.362 289.346C152.525 289.665 144.049 647.813 181.05 780.276C226.475 942.893 353.318 750.547 397.354 786.647C417.368 803.061 371.217 600.162 367.625 413.273C363.989 223.985 380.8 102.267 355.592 166.757C339.33 208.314 303.036 288.964 219.362 289.346Z" stroke="url(#paint8_linear_3464_4631)" stroke-width="0.822164" stroke-miterlimit="10"/>
<path d="M219.362 289.346C152.525 289.665 144.049 647.813 181.05 780.276C226.475 942.893 353.318 750.547 397.354 786.647C417.368 803.061 371.217 600.162 367.625 413.273C363.989 223.985 380.8 102.267 355.592 166.757C339.33 208.314 303.036 288.964 219.362 289.346Z" stroke="black" stroke-opacity="0.1" stroke-width="0.822164" stroke-miterlimit="10"/>
<path d="M210.478 279.828C138.81 275.581 131.245 661.377 171.415 801.867C220.963 975.272 353.946 758.612 402.211 803.29C423.64 823.124 380.976 603.215 375.605 401.674C370.191 198.414 381.799 60.8327 353.831 138.149C335.604 188.582 300.531 285.264 210.478 279.828Z" stroke="url(#paint9_linear_3464_4631)" stroke-width="0.822164" stroke-miterlimit="10"/>
<path d="M210.478 279.828C138.81 275.581 131.245 661.377 171.415 801.867C220.963 975.272 353.946 758.612 402.211 803.29C423.64 823.124 380.976 603.215 375.605 401.674C370.191 198.414 381.799 60.8327 353.831 138.149C335.604 188.582 300.531 285.264 210.478 279.828Z" stroke="black" stroke-opacity="0.1" stroke-width="0.822164" stroke-miterlimit="10"/>
<path d="M201.595 270.299C125.167 261.359 118.425 674.952 161.779 823.49C215.503 1007.68 354.662 766.665 407.068 819.986C429.94 843.217 390.753 606.299 383.595 390.107C376.402 172.852 382.763 19.515 352.079 109.594C331.87 168.903 298.019 281.596 201.595 270.299Z" stroke="url(#paint10_linear_3464_4631)" stroke-width="0.822164" stroke-miterlimit="10"/>
<path d="M201.595 270.299C125.167 261.359 118.425 674.952 161.779 823.49C215.503 1007.68 354.662 766.665 407.068 819.986C429.94 843.217 390.753 606.299 383.595 390.107C376.402 172.852 382.763 19.515 352.079 109.594C331.87 168.903 298.019 281.596 201.595 270.299Z" stroke="black" stroke-opacity="0.1" stroke-width="0.822164" stroke-miterlimit="10"/>
<path d="M192.711 260.762C111.488 247.215 105.657 688.519 152.144 845.105C210.027 1040.06 355.344 774.647 411.926 836.611C436.249 863.282 400.521 609.397 391.576 378.468C382.613 147.241 383.745 -21.8318 350.327 80.9665C328.146 149.237 295.506 277.92 192.711 260.762Z" stroke="url(#paint11_linear_3464_4631)" stroke-width="0.822164" stroke-miterlimit="10"/>
<path d="M192.711 260.762C111.488 247.215 105.657 688.519 152.144 845.105C210.027 1040.06 355.344 774.647 411.926 836.611C436.249 863.282 400.521 609.397 391.576 378.468C382.613 147.241 383.745 -21.8318 350.327 80.9665C328.146 149.237 295.506 277.92 192.711 260.762Z" stroke="black" stroke-opacity="0.1" stroke-width="0.822164" stroke-miterlimit="10"/>
<path d="M183.829 251.246C97.8017 233.09 92.8646 702.169 142.51 866.697C204.551 1072.44 356.097 782.607 416.793 853.34C442.594 883.409 410.308 612.43 399.567 366.933C388.825 121.437 384.729 -63.0523 348.576 52.3807C324.413 129.591 292.994 274.286 183.829 251.246Z" stroke="url(#paint12_linear_3464_4631)" stroke-width="0.822164" stroke-miterlimit="10"/>
<path d="M183.829 251.246C97.8017 233.09 92.8646 702.169 142.51 866.697C204.551 1072.44 356.097 782.607 416.793 853.34C442.594 883.409 410.308 612.43 399.567 366.933C388.825 121.437 384.729 -63.0523 348.576 52.3807C324.413 129.591 292.994 274.286 183.829 251.246Z" stroke="black" stroke-opacity="0.1" stroke-width="0.822164" stroke-miterlimit="10"/>
<path d="M174.946 241.712C84.1135 218.97 80.07 715.633 132.865 888.315C199.074 1104.91 356.884 790.635 421.641 870.032C448.937 903.52 420.084 615.489 407.547 355.362C395.045 96.147 385.719 -104.268 346.815 23.8634C320.679 109.971 290.481 270.634 174.946 241.712Z" stroke="url(#paint13_linear_3464_4631)" stroke-width="0.822164" stroke-miterlimit="10"/>
<path d="M174.946 241.712C84.1135 218.97 80.07 715.633 132.865 888.315C199.074 1104.91 356.884 790.635 421.641 870.032C448.937 903.52 420.084 615.489 407.547 355.362C395.045 96.147 385.719 -104.268 346.815 23.8634C320.679 109.971 290.481 270.634 174.946 241.712Z" stroke="black" stroke-opacity="0.1" stroke-width="0.822164" stroke-miterlimit="10"/>
<path d="M166.061 232.182C70.4248 204.853 67.4165 728.952 123.255 909.937C193.799 1136.9 357.723 798.454 426.524 886.706C455.315 923.633 429.895 618.551 415.553 343.793C401.29 70.5845 386.736 -145.502 345.089 -4.71453C316.944 90.3542 287.949 267.029 166.061 232.182Z" stroke="url(#paint14_linear_3464_4631)" stroke-width="0.822164" stroke-miterlimit="10"/>
<path d="M166.061 232.182C70.4248 204.853 67.4165 728.952 123.255 909.937C193.799 1136.9 357.723 798.454 426.524 886.706C455.315 923.633 429.895 618.551 415.553 343.793C401.29 70.5845 386.736 -145.502 345.089 -4.71453C316.944 90.3542 287.949 267.029 166.061 232.182Z" stroke="black" stroke-opacity="0.1" stroke-width="0.822164" stroke-miterlimit="10"/>
<path d="M157.179 222.666C56.7382 190.75 54.6147 742.518 113.594 931.508C188.279 1169.34 358.512 806.223 431.356 903.351C461.66 943.697 439.656 621.564 423.508 332.132C407.494 44.9085 387.701 -186.786 343.311 -33.3846C313.211 70.7302 285.429 263.395 157.179 222.666Z" stroke="url(#paint15_linear_3464_4631)" stroke-width="0.822164" stroke-miterlimit="10"/>
<path d="M157.179 222.666C56.7382 190.75 54.6147 742.518 113.594 931.508C188.279 1169.34 358.512 806.223 431.356 903.351C461.66 943.697 439.656 621.564 423.508 332.132C407.494 44.9085 387.701 -186.786 343.311 -33.3846C313.211 70.7302 285.429 263.395 157.179 222.666Z" stroke="black" stroke-opacity="0.1" stroke-width="0.822164" stroke-miterlimit="10"/>
<path d="M148.296 213.13C43.0063 176.649 41.803 756.107 103.959 953.146C182.785 1201.59 359.344 814.248 436.214 920.062C468.066 963.87 449.654 624.599 431.489 320.621C413.926 19.3405 388.692 -227.919 341.559 -61.8618C309.477 51.1292 282.898 259.783 148.296 213.13Z" stroke="url(#paint16_linear_3464_4631)" stroke-width="0.822164" stroke-miterlimit="10"/>
<path d="M148.296 213.13C43.0063 176.649 41.803 756.107 103.959 953.146C182.785 1201.59 359.344 814.248 436.214 920.062C468.066 963.87 449.654 624.599 431.489 320.621C413.926 19.3405 388.692 -227.919 341.559 -61.8618C309.477 51.1292 282.898 259.783 148.296 213.13Z" stroke="black" stroke-opacity="0.1" stroke-width="0.822164" stroke-miterlimit="10"/>
<path d="M139.413 203.599C29.3197 163.019 28.9923 769.701 94.3248 974.766C177.291 1234.13 360.194 822.151 441.081 936.756C474.411 983.982 459.396 627.66 439.48 309.052C420.112 -6.22316 389.684 -269.09 339.8 -90.4408C305.744 31.5325 280.333 256.771 139.413 203.599Z" stroke="url(#paint17_linear_3464_4631)" stroke-width="0.822164" stroke-miterlimit="10"/>
<path d="M139.413 203.599C29.3197 163.019 28.9923 769.701 94.3248 974.766C177.291 1234.13 360.194 822.151 441.081 936.756C474.411 983.982 459.396 627.66 439.48 309.052C420.112 -6.22316 389.684 -269.09 339.8 -90.4408C305.744 31.5325 280.333 256.771 139.413 203.599Z" stroke="black" stroke-opacity="0.1" stroke-width="0.822164" stroke-miterlimit="10"/>
<path d="M130.528 194.081C15.6298 148.808 16.1961 783.265 84.6873 996.378C171.786 1266.53 361.05 830.024 445.936 953.441C480.788 1004.11 469.144 630.671 447.458 297.474C426.294 -31.7949 390.681 -310.291 338.046 -119.007C301.982 12.0339 277.809 253.029 130.528 194.081Z" stroke="url(#paint18_linear_3464_4631)" stroke-width="0.822164" stroke-miterlimit="10"/>
<path d="M130.528 194.081C15.6298 148.808 16.1961 783.265 84.6873 996.378C171.786 1266.53 361.05 830.024 445.936 953.441C480.788 1004.11 469.144 630.671 447.458 297.474C426.294 -31.7949 390.681 -310.291 338.046 -119.007C301.982 12.0339 277.809 253.029 130.528 194.081Z" stroke="black" stroke-opacity="0.1" stroke-width="0.822164" stroke-miterlimit="10"/>
<path d="M121.646 184.55C1.94293 134.606 3.37628 796.859 75.0527 1017.98C166.292 1298.87 361.927 837.927 450.794 970.115C487.177 1024.24 478.94 633.796 455.44 285.968C432.435 -57.294 391.532 -351.631 336.294 -147.521C298.169 -7.81668 275.288 249.274 121.646 184.55Z" stroke="url(#paint19_linear_3464_4631)" stroke-width="0.822164" stroke-miterlimit="10"/>
<path d="M121.646 184.55C1.94293 134.606 3.37628 796.859 75.0527 1017.98C166.292 1298.87 361.927 837.927 450.794 970.115C487.177 1024.24 478.94 633.796 455.44 285.968C432.435 -57.294 391.532 -351.631 336.294 -147.521C298.169 -7.81668 275.288 249.274 121.646 184.55Z" stroke="black" stroke-opacity="0.1" stroke-width="0.822164" stroke-miterlimit="10"/>
<path d="M112.763 175.014C-11.7444 120.334 -9.46168 810.469 65.4177 1039.59C160.798 1331.34 362.803 845.825 455.652 986.719C493.574 1044.31 488.646 636.767 463.429 274.245C438.664 -82.9478 392.602 -392.744 334.543 -176.169C294.489 -27.3123 272.785 245.62 112.763 175.014Z" stroke="url(#paint20_linear_3464_4631)" stroke-width="0.822164" stroke-miterlimit="10"/>
<path d="M112.763 175.014C-11.7444 120.334 -9.46168 810.469 65.4177 1039.59C160.798 1331.34 362.803 845.825 455.652 986.719C493.574 1044.31 488.646 636.767 463.429 274.245C438.664 -82.9478 392.602 -392.744 334.543 -176.169C294.489 -27.3123 272.785 245.62 112.763 175.014Z" stroke="black" stroke-opacity="0.1" stroke-width="0.822164" stroke-miterlimit="10"/>
<path d="M332.782 -204.73C290.808 -46.8268 270.237 241.777 103.879 165.501C-25.4409 106.192 -22.2468 824.017 55.7736 1061.21C155.303 1363.77 363.679 853.725 460.51 1003.47C538.813 1124.6 455.528 -666.525 332.782 -204.73Z" stroke="url(#paint21_linear_3464_4631)" stroke-width="0.822164" stroke-miterlimit="10"/>
<path d="M332.782 -204.73C290.808 -46.8268 270.237 241.777 103.879 165.501C-25.4409 106.192 -22.2468 824.017 55.7736 1061.21C155.303 1363.77 363.679 853.725 460.51 1003.47C538.813 1124.6 455.528 -666.525 332.782 -204.73Z" stroke="black" stroke-opacity="0.1" stroke-width="0.822164" stroke-miterlimit="10"/>
</g>
<defs>
<linearGradient id="paint0_linear_3464_4631" x1="254.348" y1="506.404" x2="332.407" y2="497.909" gradientUnits="userSpaceOnUse">
<stop stop-color="#228B22"/>
<stop offset="0.453125" stop-color="#4AC63F"/>
<stop offset="1" stop-color="#FFDD4C"/>
</linearGradient>
<linearGradient id="paint1_linear_3464_4631" x1="242.789" y1="511.524" x2="327.618" y2="502.36" gradientUnits="userSpaceOnUse">
<stop stop-color="#228B22"/>
<stop offset="0.453125" stop-color="#4AC63F"/>
<stop offset="1" stop-color="#FFDD4C"/>
</linearGradient>
<linearGradient id="paint2_linear_3464_4631" x1="231.072" y1="516.358" x2="324.937" y2="506.109" gradientUnits="userSpaceOnUse">
<stop stop-color="#228B22"/>
<stop offset="0.453125" stop-color="#4AC63F"/>
<stop offset="1" stop-color="#FFDD4C"/>
</linearGradient>
<linearGradient id="paint3_linear_3464_4631" x1="219.257" y1="521.763" x2="324.518" y2="510.19" gradientUnits="userSpaceOnUse">
<stop stop-color="#228B22"/>
<stop offset="0.453125" stop-color="#4AC63F"/>
<stop offset="1" stop-color="#FFDD4C"/>
</linearGradient>
<linearGradient id="paint4_linear_3464_4631" x1="207.349" y1="519.269" x2="324.329" y2="506.498" gradientUnits="userSpaceOnUse">
<stop stop-color="#228B22"/>
<stop offset="0.453125" stop-color="#4AC63F"/>
<stop offset="1" stop-color="#FFDD4C"/>
</linearGradient>
<linearGradient id="paint5_linear_3464_4631" x1="195.39" y1="512.038" x2="324.186" y2="498.002" gradientUnits="userSpaceOnUse">
<stop stop-color="#228B22"/>
<stop offset="0.453125" stop-color="#4AC63F"/>
<stop offset="1" stop-color="#FFDD4C"/>
</linearGradient>
<linearGradient id="paint6_linear_3464_4631" x1="183.383" y1="507.3" x2="324.046" y2="492.162" gradientUnits="userSpaceOnUse">
<stop stop-color="#228B22"/>
<stop offset="0.453125" stop-color="#4AC63F"/>
<stop offset="1" stop-color="#FFDD4C"/>
</linearGradient>
<linearGradient id="paint7_linear_3464_4631" x1="171.351" y1="502.606" x2="323.972" y2="486.351" gradientUnits="userSpaceOnUse">
<stop stop-color="#228B22"/>
<stop offset="0.453125" stop-color="#4AC63F"/>
<stop offset="1" stop-color="#FFDD4C"/>
</linearGradient>
<linearGradient id="paint8_linear_3464_4631" x1="159.271" y1="497.947" x2="323.964" y2="480.555" gradientUnits="userSpaceOnUse">
<stop stop-color="#228B22"/>
<stop offset="0.453125" stop-color="#4AC63F"/>
<stop offset="1" stop-color="#FFDD4C"/>
</linearGradient>
<linearGradient id="paint9_linear_3464_4631" x1="147.166" y1="493.271" x2="324.032" y2="474.723" gradientUnits="userSpaceOnUse">
<stop stop-color="#228B22"/>
<stop offset="0.453125" stop-color="#4AC63F"/>
<stop offset="1" stop-color="#FFDD4C"/>
</linearGradient>
<linearGradient id="paint10_linear_3464_4631" x1="135.054" y1="488.669" x2="324.192" y2="468.947" gradientUnits="userSpaceOnUse">
<stop stop-color="#228B22"/>
<stop offset="0.453125" stop-color="#4AC63F"/>
<stop offset="1" stop-color="#FFDD4C"/>
</linearGradient>
<linearGradient id="paint11_linear_3464_4631" x1="122.938" y1="484.05" x2="324.449" y2="463.135" gradientUnits="userSpaceOnUse">
<stop stop-color="#228B22"/>
<stop offset="0.453125" stop-color="#4AC63F"/>
<stop offset="1" stop-color="#FFDD4C"/>
</linearGradient>
<linearGradient id="paint12_linear_3464_4631" x1="110.797" y1="479.472" x2="324.815" y2="457.337" gradientUnits="userSpaceOnUse">
<stop stop-color="#228B22"/>
<stop offset="0.453125" stop-color="#4AC63F"/>
<stop offset="1" stop-color="#FFDD4C"/>
</linearGradient>
<linearGradient id="paint13_linear_3464_4631" x1="98.6406" y1="474.985" x2="325.281" y2="451.607" gradientUnits="userSpaceOnUse">
<stop stop-color="#228B22"/>
<stop offset="0.453125" stop-color="#4AC63F"/>
<stop offset="1" stop-color="#FFDD4C"/>
</linearGradient>
<linearGradient id="paint14_linear_3464_4631" x1="86.541" y1="470.361" x2="325.906" y2="445.715" gradientUnits="userSpaceOnUse">
<stop stop-color="#228B22"/>
<stop offset="0.453125" stop-color="#4AC63F"/>
<stop offset="1" stop-color="#FFDD4C"/>
</linearGradient>
<linearGradient id="paint15_linear_3464_4631" x1="74.3613" y1="465.796" x2="326.598" y2="439.86" gradientUnits="userSpaceOnUse">
<stop stop-color="#228B22"/>
<stop offset="0.453125" stop-color="#4AC63F"/>
<stop offset="1" stop-color="#FFDD4C"/>
</linearGradient>
<linearGradient id="paint16_linear_3464_4631" x1="62.1611" y1="461.318" x2="327.47" y2="434.045" gradientUnits="userSpaceOnUse">
<stop stop-color="#228B22"/>
<stop offset="0.453125" stop-color="#4AC63F"/>
<stop offset="1" stop-color="#FFDD4C"/>
</linearGradient>
<linearGradient id="paint17_linear_3464_4631" x1="49.9697" y1="456.864" x2="328.406" y2="428.249" gradientUnits="userSpaceOnUse">
<stop stop-color="#228B22"/>
<stop offset="0.453125" stop-color="#4AC63F"/>
<stop offset="1" stop-color="#FFDD4C"/>
</linearGradient>
<linearGradient id="paint18_linear_3464_4631" x1="37.7773" y1="452.382" x2="329.46" y2="422.399" gradientUnits="userSpaceOnUse">
<stop stop-color="#228B22"/>
<stop offset="0.453125" stop-color="#4AC63F"/>
<stop offset="1" stop-color="#FFDD4C"/>
</linearGradient>
<linearGradient id="paint19_linear_3464_4631" x1="25.5723" y1="447.883" x2="330.627" y2="416.507" gradientUnits="userSpaceOnUse">
<stop stop-color="#228B22"/>
<stop offset="0.453125" stop-color="#4AC63F"/>
<stop offset="1" stop-color="#FFDD4C"/>
</linearGradient>
<linearGradient id="paint20_linear_3464_4631" x1="13.3555" y1="443.423" x2="331.863" y2="410.639" gradientUnits="userSpaceOnUse">
<stop stop-color="#228B22"/>
<stop offset="0.453125" stop-color="#4AC63F"/>
<stop offset="1" stop-color="#FFDD4C"/>
</linearGradient>
<linearGradient id="paint21_linear_3464_4631" x1="1.15233" y1="439" x2="333.192" y2="404.789" gradientUnits="userSpaceOnUse">
<stop stop-color="#228B22"/>
<stop offset="0.453125" stop-color="#4AC63F"/>
<stop offset="1" stop-color="#FFDD4C"/>
</linearGradient>
</defs>
</svg>
