<svg width="32" height="33" viewBox="0 0 32 33" fill="none" xmlns="http://www.w3.org/2000/svg">
<rect y="0.650879" width="32" height="32" rx="16" fill="#4AC63F"/>
<path fill-rule="evenodd" clip-rule="evenodd" d="M18.0909 11.9161C18.4968 11.5415 19.1294 11.5668 19.504 11.9726L22.7348 15.4726C23.0884 15.8556 23.0884 16.4461 22.7348 16.8291L19.504 20.3292C19.1294 20.735 18.4968 20.7603 18.091 20.3857C17.6851 20.0111 17.6598 19.3784 18.0344 18.9726L19.716 17.1508L10 17.1508C9.44771 17.1508 9 16.7031 9 16.1508C9 15.5986 9.44771 15.1508 10 15.1508L19.716 15.1508L18.0344 13.3292C17.6598 12.9234 17.6851 12.2907 18.0909 11.9161Z" fill="#FCFCFD"/>
</svg>
