<svg width="51" height="45" viewBox="0 0 51 45" fill="none" xmlns="http://www.w3.org/2000/svg">
<g filter="url(#filter0_f_5270_2482)">
<ellipse cx="29.5998" cy="30.3985" rx="20.0115" ry="6.98038" transform="rotate(-12.9443 29.5998 30.3985)" fill="url(#paint0_radial_5270_2482)"/>
</g>
<ellipse cx="25.6767" cy="33.1541" rx="14.615" ry="4.98816" transform="rotate(-7.07465 25.6767 33.1541)" fill="url(#paint1_radial_5270_2482)"/>
<g filter="url(#filter1_f_5270_2482)">
<ellipse cx="26.2498" cy="33.0846" rx="14.0373" ry="4.98816" transform="rotate(-7.07465 26.2498 33.0846)" fill="url(#paint2_radial_5270_2482)"/>
</g>
<mask id="mask0_5270_2482" style="mask-type:alpha" maskUnits="userSpaceOnUse" x="0" y="0" width="39" height="39">
<circle cx="19.7804" cy="19.1134" r="19.1134" fill="url(#paint3_radial_5270_2482)"/>
</mask>
<g mask="url(#mask0_5270_2482)">
<circle cx="19.7804" cy="19.1134" r="19.1134" fill="url(#paint4_radial_5270_2482)"/>
<g filter="url(#filter2_f_5270_2482)">
<ellipse cx="11.2439" cy="8.68215" rx="16.3454" ry="15.8501" fill="#D7D96A" fill-opacity="0.13"/>
</g>
<g filter="url(#filter3_f_5270_2482)">
<ellipse cx="31.3474" cy="33.1001" rx="16.3454" ry="15.8501" fill="#1B2372" fill-opacity="0.43"/>
</g>
<g filter="url(#filter4_f_5270_2482)">
<path d="M39.069 20.9506C39.2432 21.5495 41.1209 30.4731 31.3479 37.9661C27.4658 40.9425 16.313 38.565 16.1388 37.9661C15.9646 37.3672 25.2001 36.2762 30.2698 33.0421C38.0896 28.0536 38.8948 20.3517 39.069 20.9506Z" fill="#51779F" fill-opacity="0.61"/>
</g>
<g filter="url(#filter5_f_5270_2482)">
<ellipse cx="11.2728" cy="7.63533" rx="1.48322" ry="3.10549" transform="rotate(45 11.2728 7.63533)" fill="#E3F7FF"/>
</g>
<g filter="url(#filter6_f_5270_2482)">
<ellipse cx="11.2726" cy="7.63421" rx="0.782743" ry="1.63887" transform="rotate(45 11.2726 7.63421)" fill="#E2F7FF"/>
</g>
<g filter="url(#filter7_f_5270_2482)">
<path d="M35.6891 7.34375C37.2722 15.9875 32.7056 35.198 8.88379 36.2469" stroke="#010E1B" stroke-width="1.16545"/>
</g>
<g filter="url(#filter8_f_5270_2482)">
<path d="M28.1563 -0.423898C12.1314 -5.90151 -6.5158 11.2597 3.47793 30.8102" stroke="#FCFFDD" stroke-width="1.16545"/>
</g>
<g filter="url(#filter9_f_5270_2482)">
<path d="M33.7656 6.32422C39.3015 11.2191 41.8946 19.7269 34.7854 31.09" stroke="#A1A0DB" stroke-opacity="0.65" stroke-width="1.16545"/>
</g>
</g>
<g clip-path="url(#clip0_5270_2482)">
<path d="M10.2097 28.2999C10.3423 28.2999 10.4497 28.1925 10.4497 28.0599V21.3142C10.4497 21.1816 10.3423 21.0742 10.2097 21.0742H8.2897C8.25818 21.0742 8.22697 21.0804 8.19784 21.0925C8.16872 21.1045 8.14226 21.1222 8.11998 21.1445C8.09769 21.1668 8.08001 21.1932 8.06795 21.2224C8.05589 21.2515 8.04969 21.2827 8.0497 21.3142V28.0599C8.0497 28.1925 8.15711 28.2999 8.2897 28.2999H10.2097ZM10.2097 29.2599H8.2897C7.62693 29.2599 7.0897 28.7227 7.0897 28.0599V21.3142C7.0897 20.6515 7.62693 20.1142 8.2897 20.1142H10.2097C10.8725 20.1142 11.4097 20.6515 11.4097 21.3142V28.0599C11.4097 28.7227 10.8725 29.2599 10.2097 29.2599ZM16.735 28.2999C16.8676 28.2999 16.975 28.1925 16.975 28.0599V19.9213C16.975 19.7887 16.8676 19.6813 16.735 19.6813H14.815C14.7835 19.6813 14.7523 19.6875 14.7232 19.6995C14.6941 19.7116 14.6676 19.7293 14.6453 19.7515C14.623 19.7738 14.6053 19.8003 14.5933 19.8294C14.5812 19.8585 14.575 19.8897 14.575 19.9213V28.0599C14.575 28.1925 14.6824 28.2999 14.815 28.2999H16.735ZM16.735 29.2599H14.815C14.1523 29.2599 13.615 28.7227 13.615 28.0599V19.9213C13.615 19.2585 14.1523 18.7213 14.815 18.7213H16.735C17.3978 18.7213 17.935 19.2585 17.935 19.9213V28.0599C17.935 28.7227 17.3978 29.2599 16.735 29.2599ZM23.2604 28.3144C23.3929 28.3144 23.5004 28.207 23.5004 28.0744V18.5426C23.5004 18.4101 23.3928 18.3026 23.2604 18.3026H21.3404C21.2079 18.3026 21.1004 18.4101 21.1004 18.5426V28.0744C21.1004 28.207 21.2078 28.3144 21.3404 28.3144H23.2604ZM23.2604 29.2744H21.3404C20.6776 29.2744 20.1404 28.7372 20.1404 28.0744V18.5426C20.1404 17.8799 20.6776 17.3426 21.3404 17.3426H23.2604C23.9231 17.3426 24.4604 17.8799 24.4604 18.5426V28.0744C24.4604 28.7372 23.9231 29.2744 23.2604 29.2744ZM29.7857 28.3144C29.9183 28.3144 30.0257 28.207 30.0257 28.0744V17.3426C30.0257 17.21 29.9183 17.1026 29.7857 17.1026H27.8657C27.8342 17.1026 27.803 17.1088 27.7738 17.1209C27.7447 17.1329 27.7183 17.1506 27.696 17.1729C27.6737 17.1952 27.656 17.2216 27.6439 17.2507C27.6319 17.2799 27.6257 17.3111 27.6257 17.3426V28.0744C27.6257 28.207 27.7331 28.3144 27.8657 28.3144H29.7857ZM29.7857 29.2744H27.8657C27.2029 29.2744 26.6657 28.7372 26.6657 28.0744V17.3426C26.6657 16.6798 27.2029 16.1426 27.8657 16.1426H29.7857C30.4484 16.1426 30.9857 16.6798 30.9857 17.3426V28.0744C30.9857 28.7372 30.4484 29.2744 29.7857 29.2744ZM29.6403 9.54236C22.876 13.3533 15.3266 15.6015 7.45103 16.0778C7.18642 16.0938 6.98488 16.3213 7.00089 16.5859C7.0169 16.8506 7.24438 17.0521 7.50899 17.0361C15.5306 16.5509 23.2213 14.2606 30.1115 10.3788C30.3424 10.2486 30.4242 9.95592 30.294 9.72494C30.1639 9.49396 29.8712 9.41224 29.6403 9.54236Z" fill="white"/>
<path d="M28.1219 9.63969L30.5216 9.6433C30.7867 9.6437 31.0019 9.42913 31.0023 9.16402C31.0027 8.89892 30.7882 8.6837 30.5231 8.6833L28.1233 8.67969C27.8582 8.67929 27.643 8.89386 27.6426 9.15896C27.6422 9.42406 27.8568 9.63929 28.1219 9.63969Z" fill="white"/>
<path d="M30.0424 9.16214L30.0352 11.5487C30.0344 11.8138 30.2486 12.0294 30.5137 12.0302C30.7788 12.031 30.9944 11.8167 30.9952 11.5516L31.0024 9.16505C31.0031 8.89995 30.7889 8.68439 30.5238 8.6836C30.2587 8.6828 30.0432 8.89704 30.0424 9.16214Z" fill="white"/>
</g>
<defs>
<filter id="filter0_f_5270_2482" x="8.63466" y="20.8515" width="41.9299" height="19.094" filterUnits="userSpaceOnUse" color-interpolation-filters="sRGB">
<feFlood flood-opacity="0" result="BackgroundImageFix"/>
<feBlend mode="normal" in="SourceGraphic" in2="BackgroundImageFix" result="shape"/>
<feGaussianBlur stdDeviation="0.69927" result="effect1_foregroundBlur_5270_2482"/>
</filter>
<filter id="filter1_f_5270_2482" x="6.12878" y="21.663" width="40.2424" height="22.8421" filterUnits="userSpaceOnUse" color-interpolation-filters="sRGB">
<feFlood flood-opacity="0" result="BackgroundImageFix"/>
<feBlend mode="normal" in="SourceGraphic" in2="BackgroundImageFix" result="shape"/>
<feGaussianBlur stdDeviation="3.08844" result="effect1_foregroundBlur_5270_2482"/>
</filter>
<filter id="filter2_f_5270_2482" x="-17.2805" y="-19.3469" width="57.0483" height="56.0571" filterUnits="userSpaceOnUse" color-interpolation-filters="sRGB">
<feFlood flood-opacity="0" result="BackgroundImageFix"/>
<feBlend mode="normal" in="SourceGraphic" in2="BackgroundImageFix" result="shape"/>
<feGaussianBlur stdDeviation="6.08948" result="effect1_foregroundBlur_5270_2482"/>
</filter>
<filter id="filter3_f_5270_2482" x="2.823" y="5.07105" width="57.0483" height="56.0571" filterUnits="userSpaceOnUse" color-interpolation-filters="sRGB">
<feFlood flood-opacity="0" result="BackgroundImageFix"/>
<feBlend mode="normal" in="SourceGraphic" in2="BackgroundImageFix" result="shape"/>
<feGaussianBlur stdDeviation="6.08948" result="effect1_foregroundBlur_5270_2482"/>
</filter>
<filter id="filter4_f_5270_2482" x="13.2231" y="18.0043" width="29.0157" height="24.3429" filterUnits="userSpaceOnUse" color-interpolation-filters="sRGB">
<feFlood flood-opacity="0" result="BackgroundImageFix"/>
<feBlend mode="normal" in="SourceGraphic" in2="BackgroundImageFix" result="shape"/>
<feGaussianBlur stdDeviation="1.45681" result="effect1_foregroundBlur_5270_2482"/>
</filter>
<filter id="filter5_f_5270_2482" x="5.05115" y="1.41541" width="12.4436" height="12.4426" filterUnits="userSpaceOnUse" color-interpolation-filters="sRGB">
<feFlood flood-opacity="0" result="BackgroundImageFix"/>
<feBlend mode="normal" in="SourceGraphic" in2="BackgroundImageFix" result="shape"/>
<feGaussianBlur stdDeviation="1.89386" result="effect1_foregroundBlur_5270_2482"/>
</filter>
<filter id="filter6_f_5270_2482" x="9.75519" y="6.11847" width="3.03454" height="3.03259" filterUnits="userSpaceOnUse" color-interpolation-filters="sRGB">
<feFlood flood-opacity="0" result="BackgroundImageFix"/>
<feBlend mode="normal" in="SourceGraphic" in2="BackgroundImageFix" result="shape"/>
<feGaussianBlur stdDeviation="0.116545" result="effect1_foregroundBlur_5270_2482"/>
</filter>
<filter id="filter7_f_5270_2482" x="2.56497" y="0.944851" width="40.2822" height="42.1767" filterUnits="userSpaceOnUse" color-interpolation-filters="sRGB">
<feFlood flood-opacity="0" result="BackgroundImageFix"/>
<feBlend mode="normal" in="SourceGraphic" in2="BackgroundImageFix" result="shape"/>
<feGaussianBlur stdDeviation="3.14672" result="effect1_foregroundBlur_5270_2482"/>
</filter>
<filter id="filter8_f_5270_2482" x="-3.82027" y="-5.94332" width="36.0693" height="40.9218" filterUnits="userSpaceOnUse" color-interpolation-filters="sRGB">
<feFlood flood-opacity="0" result="BackgroundImageFix"/>
<feBlend mode="normal" in="SourceGraphic" in2="BackgroundImageFix" result="shape"/>
<feGaussianBlur stdDeviation="1.95213" result="effect1_foregroundBlur_5270_2482"/>
</filter>
<filter id="filter9_f_5270_2482" x="28.7764" y="1.28319" width="15.5215" height="34.7188" filterUnits="userSpaceOnUse" color-interpolation-filters="sRGB">
<feFlood flood-opacity="0" result="BackgroundImageFix"/>
<feBlend mode="normal" in="SourceGraphic" in2="BackgroundImageFix" result="shape"/>
<feGaussianBlur stdDeviation="2.30176" result="effect1_foregroundBlur_5270_2482"/>
</filter>
<radialGradient id="paint0_radial_5270_2482" cx="0" cy="0" r="1" gradientUnits="userSpaceOnUse" gradientTransform="translate(18.9247 33.8553) rotate(-11.8288) scale(27.8342 85.8467)">
<stop stop-color="#093041"/>
<stop offset="1" stop-color="#4E6A76" stop-opacity="0"/>
</radialGradient>
<radialGradient id="paint1_radial_5270_2482" cx="0" cy="0" r="1" gradientUnits="userSpaceOnUse" gradientTransform="translate(17.8803 35.6243) rotate(-8.58869) scale(18.0524 54.6236)">
<stop stop-color="#000D12"/>
<stop offset="1" stop-color="#082430" stop-opacity="0"/>
</radialGradient>
<radialGradient id="paint2_radial_5270_2482" cx="0" cy="0" r="1" gradientUnits="userSpaceOnUse" gradientTransform="translate(18.7617 35.5549) rotate(-8.40541) scale(20.6654 64.9821)">
<stop stop-color="#228B22"/>
<stop offset="0.0001" stop-color="#082430" stop-opacity="0"/>
<stop offset="1" stop-color="#4AC63F" stop-opacity="0.81"/>
</radialGradient>
<radialGradient id="paint3_radial_5270_2482" cx="0" cy="0" r="1" gradientUnits="userSpaceOnUse" gradientTransform="translate(11.36 8.18729) rotate(49.1614) scale(36.6247 37.882)">
<stop stop-color="#B9EBFF"/>
<stop offset="0.156338" stop-color="#7DCCED"/>
<stop offset="0.519012" stop-color="#4290AF"/>
<stop offset="0.710329" stop-color="#156282"/>
<stop offset="1" stop-color="#1B7398"/>
</radialGradient>
<radialGradient id="paint4_radial_5270_2482" cx="0" cy="0" r="1" gradientUnits="userSpaceOnUse" gradientTransform="translate(11.36 8.18729) rotate(49.1614) scale(36.6247 37.882)">
<stop stop-color="#D8FFB9"/>
<stop offset="0.156338" stop-color="#A1FD92"/>
<stop offset="0.519012" stop-color="#4AC63F"/>
<stop offset="0.710329" stop-color="#4AC63F"/>
<stop offset="1" stop-color="#228B22"/>
</radialGradient>
<clipPath id="clip0_5270_2482">
<rect width="24" height="24" fill="white" transform="translate(7 7)"/>
</clipPath>
</defs>
</svg>
