<svg width="51" height="45" viewBox="0 0 51 45" fill="none" xmlns="http://www.w3.org/2000/svg">
<g filter="url(#filter0_f_5270_2516)">
<ellipse cx="29.2658" cy="30.3985" rx="20.0115" ry="6.98038" transform="rotate(-12.9443 29.2658 30.3985)" fill="url(#paint0_radial_5270_2516)"/>
</g>
<ellipse cx="25.3427" cy="33.1541" rx="14.615" ry="4.98816" transform="rotate(-7.07465 25.3427 33.1541)" fill="url(#paint1_radial_5270_2516)"/>
<g filter="url(#filter1_f_5270_2516)">
<ellipse cx="25.9158" cy="33.0846" rx="14.0373" ry="4.98816" transform="rotate(-7.07465 25.9158 33.0846)" fill="url(#paint2_radial_5270_2516)"/>
</g>
<mask id="mask0_5270_2516" style="mask-type:alpha" maskUnits="userSpaceOnUse" x="0" y="0" width="39" height="39">
<circle cx="19.4464" cy="19.1134" r="19.1134" fill="url(#paint3_radial_5270_2516)"/>
</mask>
<g mask="url(#mask0_5270_2516)">
<circle cx="19.4464" cy="19.1134" r="19.1134" fill="url(#paint4_radial_5270_2516)"/>
<g filter="url(#filter2_f_5270_2516)">
<ellipse cx="10.9099" cy="8.68215" rx="16.3454" ry="15.8501" fill="#D7D96A" fill-opacity="0.13"/>
</g>
<g filter="url(#filter3_f_5270_2516)">
<ellipse cx="31.0134" cy="33.1001" rx="16.3454" ry="15.8501" fill="#1B2372" fill-opacity="0.43"/>
</g>
<g filter="url(#filter4_f_5270_2516)">
<path d="M38.735 20.9506C38.9092 21.5495 40.7869 30.4731 31.0139 37.9661C27.1319 40.9425 15.979 38.565 15.8048 37.9661C15.6306 37.3672 24.8661 36.2762 29.9359 33.0421C37.7556 28.0536 38.5608 20.3517 38.735 20.9506Z" fill="#51779F" fill-opacity="0.61"/>
</g>
<g filter="url(#filter5_f_5270_2516)">
<ellipse cx="10.9388" cy="7.63533" rx="1.48322" ry="3.10549" transform="rotate(45 10.9388 7.63533)" fill="#E3F7FF"/>
</g>
<g filter="url(#filter6_f_5270_2516)">
<ellipse cx="10.9386" cy="7.63421" rx="0.782743" ry="1.63887" transform="rotate(45 10.9386 7.63421)" fill="#E2F7FF"/>
</g>
<g filter="url(#filter7_f_5270_2516)">
<path d="M35.3552 7.34375C36.9382 15.9875 32.3716 35.198 8.5498 36.2469" stroke="#010E1B" stroke-width="1.16545"/>
</g>
<g filter="url(#filter8_f_5270_2516)">
<path d="M27.8224 -0.423898C11.7974 -5.90151 -6.84979 11.2597 3.14394 30.8102" stroke="#FCFFDD" stroke-width="1.16545"/>
</g>
<g filter="url(#filter9_f_5270_2516)">
<path d="M33.4316 6.32422C38.9675 11.2191 41.5607 19.7269 34.4514 31.09" stroke="#A1A0DB" stroke-opacity="0.65" stroke-width="1.16545"/>
</g>
</g>
<path d="M20 16.502L19.4641 17.0267C19.6052 17.1708 19.7983 17.252 20 17.252C20.2017 17.252 20.3948 17.1708 20.5359 17.0267L20 16.502ZM18.5145 21.3727C17.9329 20.8779 17.3491 20.3048 16.9164 19.7122C16.4748 19.1074 16.25 18.5633 16.25 18.1106H14.75C14.75 19.0263 15.1846 19.8842 15.7049 20.5968C16.234 21.3214 16.9145 21.9808 17.5426 22.5152L18.5145 21.3727ZM16.25 18.1106C16.25 17.0029 16.7445 16.4196 17.2533 16.2293C17.7705 16.0359 18.5951 16.1392 19.4641 17.0267L20.5359 15.9773C19.38 14.7968 17.9546 14.3657 16.728 14.8243C15.493 15.2861 14.75 16.5412 14.75 18.1106H16.25ZM22.4574 22.5152C23.0855 21.9808 23.766 21.3214 24.2951 20.5968C24.8154 19.8842 25.25 19.0263 25.25 18.1106H23.75C23.75 18.5633 23.5252 19.1075 23.0837 19.7122C22.6509 20.3049 22.0671 20.8779 21.4855 21.3727L22.4574 22.5152ZM25.25 18.1106C25.25 16.5412 24.507 15.2861 23.272 14.8243C22.0454 14.3657 20.62 14.7968 19.4641 15.9773L20.5359 17.0267C21.4049 16.1392 22.2295 16.0359 22.7467 16.2293C23.2555 16.4196 23.75 17.0029 23.75 18.1106H25.25ZM17.5426 22.5152C18.3221 23.1783 18.9428 23.7452 20 23.7452V22.2452C19.586 22.2452 19.3828 22.1113 18.5145 21.3727L17.5426 22.5152ZM21.4855 21.3727C20.6172 22.1113 20.414 22.2452 20 22.2452V23.7452C21.0572 23.7452 21.6779 23.1783 22.4574 22.5152L21.4855 21.3727Z" fill="white"/>
<path d="M25 10.3378C23.5291 9.48697 21.8214 9 20 9C14.4771 9 10 13.4771 10 19C10 20.5997 10.3756 22.1116 11.0435 23.4525C11.2209 23.8088 11.28 24.2161 11.1771 24.6006L10.5815 26.8267C10.323 27.793 11.207 28.677 12.1733 28.4185L14.3994 27.8229C14.7839 27.72 15.1912 27.7791 15.5475 27.9565C16.8884 28.6244 18.4003 29 20 29C25.5228 29 30 24.5228 30 19C30 17.1786 29.513 15.4709 28.6622 14" stroke="white" stroke-width="1.5" stroke-linecap="round"/>
<defs>
<filter id="filter0_f_5270_2516" x="8.30068" y="20.8515" width="41.9299" height="19.094" filterUnits="userSpaceOnUse" color-interpolation-filters="sRGB">
<feFlood flood-opacity="0" result="BackgroundImageFix"/>
<feBlend mode="normal" in="SourceGraphic" in2="BackgroundImageFix" result="shape"/>
<feGaussianBlur stdDeviation="0.69927" result="effect1_foregroundBlur_5270_2516"/>
</filter>
<filter id="filter1_f_5270_2516" x="5.79479" y="21.663" width="40.2424" height="22.8421" filterUnits="userSpaceOnUse" color-interpolation-filters="sRGB">
<feFlood flood-opacity="0" result="BackgroundImageFix"/>
<feBlend mode="normal" in="SourceGraphic" in2="BackgroundImageFix" result="shape"/>
<feGaussianBlur stdDeviation="3.08844" result="effect1_foregroundBlur_5270_2516"/>
</filter>
<filter id="filter2_f_5270_2516" x="-17.6145" y="-19.3469" width="57.0483" height="56.0571" filterUnits="userSpaceOnUse" color-interpolation-filters="sRGB">
<feFlood flood-opacity="0" result="BackgroundImageFix"/>
<feBlend mode="normal" in="SourceGraphic" in2="BackgroundImageFix" result="shape"/>
<feGaussianBlur stdDeviation="6.08948" result="effect1_foregroundBlur_5270_2516"/>
</filter>
<filter id="filter3_f_5270_2516" x="2.48902" y="5.07105" width="57.0483" height="56.0571" filterUnits="userSpaceOnUse" color-interpolation-filters="sRGB">
<feFlood flood-opacity="0" result="BackgroundImageFix"/>
<feBlend mode="normal" in="SourceGraphic" in2="BackgroundImageFix" result="shape"/>
<feGaussianBlur stdDeviation="6.08948" result="effect1_foregroundBlur_5270_2516"/>
</filter>
<filter id="filter4_f_5270_2516" x="12.8891" y="18.0043" width="29.0157" height="24.3429" filterUnits="userSpaceOnUse" color-interpolation-filters="sRGB">
<feFlood flood-opacity="0" result="BackgroundImageFix"/>
<feBlend mode="normal" in="SourceGraphic" in2="BackgroundImageFix" result="shape"/>
<feGaussianBlur stdDeviation="1.45681" result="effect1_foregroundBlur_5270_2516"/>
</filter>
<filter id="filter5_f_5270_2516" x="4.71717" y="1.41541" width="12.4436" height="12.4426" filterUnits="userSpaceOnUse" color-interpolation-filters="sRGB">
<feFlood flood-opacity="0" result="BackgroundImageFix"/>
<feBlend mode="normal" in="SourceGraphic" in2="BackgroundImageFix" result="shape"/>
<feGaussianBlur stdDeviation="1.89386" result="effect1_foregroundBlur_5270_2516"/>
</filter>
<filter id="filter6_f_5270_2516" x="9.42121" y="6.11847" width="3.03454" height="3.03259" filterUnits="userSpaceOnUse" color-interpolation-filters="sRGB">
<feFlood flood-opacity="0" result="BackgroundImageFix"/>
<feBlend mode="normal" in="SourceGraphic" in2="BackgroundImageFix" result="shape"/>
<feGaussianBlur stdDeviation="0.116545" result="effect1_foregroundBlur_5270_2516"/>
</filter>
<filter id="filter7_f_5270_2516" x="2.23098" y="0.944851" width="40.2822" height="42.1767" filterUnits="userSpaceOnUse" color-interpolation-filters="sRGB">
<feFlood flood-opacity="0" result="BackgroundImageFix"/>
<feBlend mode="normal" in="SourceGraphic" in2="BackgroundImageFix" result="shape"/>
<feGaussianBlur stdDeviation="3.14672" result="effect1_foregroundBlur_5270_2516"/>
</filter>
<filter id="filter8_f_5270_2516" x="-4.15426" y="-5.94332" width="36.0693" height="40.9218" filterUnits="userSpaceOnUse" color-interpolation-filters="sRGB">
<feFlood flood-opacity="0" result="BackgroundImageFix"/>
<feBlend mode="normal" in="SourceGraphic" in2="BackgroundImageFix" result="shape"/>
<feGaussianBlur stdDeviation="1.95213" result="effect1_foregroundBlur_5270_2516"/>
</filter>
<filter id="filter9_f_5270_2516" x="28.4424" y="1.28319" width="15.5215" height="34.7188" filterUnits="userSpaceOnUse" color-interpolation-filters="sRGB">
<feFlood flood-opacity="0" result="BackgroundImageFix"/>
<feBlend mode="normal" in="SourceGraphic" in2="BackgroundImageFix" result="shape"/>
<feGaussianBlur stdDeviation="2.30176" result="effect1_foregroundBlur_5270_2516"/>
</filter>
<radialGradient id="paint0_radial_5270_2516" cx="0" cy="0" r="1" gradientUnits="userSpaceOnUse" gradientTransform="translate(18.5907 33.8553) rotate(-11.8288) scale(27.8342 85.8467)">
<stop stop-color="#093041"/>
<stop offset="1" stop-color="#4E6A76" stop-opacity="0"/>
</radialGradient>
<radialGradient id="paint1_radial_5270_2516" cx="0" cy="0" r="1" gradientUnits="userSpaceOnUse" gradientTransform="translate(17.5463 35.6243) rotate(-8.58869) scale(18.0524 54.6236)">
<stop stop-color="#000D12"/>
<stop offset="1" stop-color="#082430" stop-opacity="0"/>
</radialGradient>
<radialGradient id="paint2_radial_5270_2516" cx="0" cy="0" r="1" gradientUnits="userSpaceOnUse" gradientTransform="translate(18.4277 35.5549) rotate(-8.40541) scale(20.6654 64.9821)">
<stop stop-color="#228B22"/>
<stop offset="0.0001" stop-color="#082430" stop-opacity="0"/>
<stop offset="1" stop-color="#4AC63F" stop-opacity="0.81"/>
</radialGradient>
<radialGradient id="paint3_radial_5270_2516" cx="0" cy="0" r="1" gradientUnits="userSpaceOnUse" gradientTransform="translate(11.026 8.18729) rotate(49.1614) scale(36.6247 37.882)">
<stop stop-color="#B9EBFF"/>
<stop offset="0.156338" stop-color="#7DCCED"/>
<stop offset="0.519012" stop-color="#4290AF"/>
<stop offset="0.710329" stop-color="#156282"/>
<stop offset="1" stop-color="#1B7398"/>
</radialGradient>
<radialGradient id="paint4_radial_5270_2516" cx="0" cy="0" r="1" gradientUnits="userSpaceOnUse" gradientTransform="translate(11.026 8.18729) rotate(49.1614) scale(36.6247 37.882)">
<stop stop-color="#D8FFB9"/>
<stop offset="0.156338" stop-color="#A1FD92"/>
<stop offset="0.519012" stop-color="#4AC63F"/>
<stop offset="0.710329" stop-color="#4AC63F"/>
<stop offset="1" stop-color="#228B22"/>
</radialGradient>
</defs>
</svg>
