<svg width="50" height="45" viewBox="0 0 50 45" fill="none" xmlns="http://www.w3.org/2000/svg">
<g filter="url(#filter0_f_5270_2499)">
<ellipse cx="28.9328" cy="30.3985" rx="20.0115" ry="6.98038" transform="rotate(-12.9443 28.9328 30.3985)" fill="url(#paint0_radial_5270_2499)"/>
</g>
<ellipse cx="25.0097" cy="33.1541" rx="14.615" ry="4.98816" transform="rotate(-7.07465 25.0097 33.1541)" fill="url(#paint1_radial_5270_2499)"/>
<g filter="url(#filter1_f_5270_2499)">
<ellipse cx="25.5828" cy="33.0846" rx="14.0373" ry="4.98816" transform="rotate(-7.07465 25.5828 33.0846)" fill="url(#paint2_radial_5270_2499)"/>
</g>
<mask id="mask0_5270_2499" style="mask-type:alpha" maskUnits="userSpaceOnUse" x="0" y="0" width="39" height="39">
<circle cx="19.1134" cy="19.1134" r="19.1134" fill="url(#paint3_radial_5270_2499)"/>
</mask>
<g mask="url(#mask0_5270_2499)">
<circle cx="19.1134" cy="19.1134" r="19.1134" fill="url(#paint4_radial_5270_2499)"/>
<g filter="url(#filter2_f_5270_2499)">
<ellipse cx="10.5769" cy="8.68215" rx="16.3454" ry="15.8501" fill="#D7D96A" fill-opacity="0.13"/>
</g>
<g filter="url(#filter3_f_5270_2499)">
<ellipse cx="30.6804" cy="33.1001" rx="16.3454" ry="15.8501" fill="#1B2372" fill-opacity="0.43"/>
</g>
<g filter="url(#filter4_f_5270_2499)">
<path d="M38.402 20.9506C38.5762 21.5495 40.4539 30.4731 30.6809 37.9661C26.7988 40.9425 15.646 38.565 15.4718 37.9661C15.2976 37.3672 24.5331 36.2762 29.6029 33.0421C37.4226 28.0536 38.2278 20.3517 38.402 20.9506Z" fill="#51779F" fill-opacity="0.61"/>
</g>
<g filter="url(#filter5_f_5270_2499)">
<ellipse cx="10.6058" cy="7.63533" rx="1.48322" ry="3.10549" transform="rotate(45 10.6058 7.63533)" fill="#E3F7FF"/>
</g>
<g filter="url(#filter6_f_5270_2499)">
<ellipse cx="10.6056" cy="7.63421" rx="0.782743" ry="1.63887" transform="rotate(45 10.6056 7.63421)" fill="#E2F7FF"/>
</g>
<g filter="url(#filter7_f_5270_2499)">
<path d="M35.0221 7.34375C36.6052 15.9875 32.0386 35.198 8.2168 36.2469" stroke="#010E1B" stroke-width="1.16545"/>
</g>
<g filter="url(#filter8_f_5270_2499)">
<path d="M27.4893 -0.423898C11.4644 -5.90151 -7.1828 11.2597 2.81094 30.8102" stroke="#FCFFDD" stroke-width="1.16545"/>
</g>
<g filter="url(#filter9_f_5270_2499)">
<path d="M33.0986 6.32422C38.6345 11.2191 41.2276 19.7269 34.1184 31.09" stroke="#A1A0DB" stroke-opacity="0.65" stroke-width="1.16545"/>
</g>
</g>
<path d="M26.0575 12.3198L19.3075 9.31984C19.2108 9.27638 19.106 9.25391 19 9.25391C18.894 9.25391 18.7892 9.27638 18.6925 9.31984L11.9425 12.3198C11.8109 12.379 11.6992 12.4748 11.6207 12.5959C11.5422 12.7169 11.5003 12.8581 11.5 13.0023V19.4223C11.5052 20.3354 11.7021 21.2372 12.0781 22.0692C12.4541 22.9013 13.0007 23.6451 13.6825 24.2523L18.505 28.5348C18.6419 28.6551 18.8178 28.7214 19 28.7214C19.1822 28.7214 19.3581 28.6551 19.495 28.5348L24.3175 24.2523C24.9993 23.6451 25.5459 22.9013 25.9219 22.0692C26.2979 21.2372 26.4948 20.3354 26.5 19.4223V13.0023C26.4997 12.8581 26.4578 12.7169 26.3793 12.5959C26.3008 12.4748 26.1891 12.379 26.0575 12.3198ZM25 19.4223C25.0014 20.1307 24.8524 20.8313 24.5628 21.4778C24.2732 22.1243 23.8496 22.7019 23.32 23.1723L19 26.9973L14.68 23.1573C14.1504 22.6869 13.7268 22.1093 13.4372 21.4628C13.1476 20.8163 12.9986 20.1157 13 19.4073V13.4898L19 10.8198L25 13.4898V19.4223Z" fill="white"/>
<path d="M16.75 17.5024C16.7513 17.9666 16.8962 18.4191 17.1647 18.7977C17.4333 19.1764 17.8123 19.4627 18.25 19.6174V21.2524C18.25 21.4513 18.329 21.6421 18.4697 21.7827C18.6103 21.9234 18.8011 22.0024 19 22.0024C19.1989 22.0024 19.3897 21.9234 19.5303 21.7827C19.671 21.6421 19.75 21.4513 19.75 21.2524V19.6174C20.1392 19.4798 20.483 19.2378 20.7438 18.9179C21.0047 18.598 21.1725 18.2125 21.2289 17.8036C21.2853 17.3947 21.2282 16.9782 21.0637 16.5996C20.8992 16.221 20.6338 15.895 20.2965 15.6572C19.9591 15.4193 19.5628 15.2789 19.151 15.2512C18.7391 15.2235 18.3276 15.3096 17.9615 15.5001C17.5953 15.6906 17.2886 15.9782 17.0749 16.3314C16.8613 16.6845 16.7488 17.0896 16.75 17.5024ZM19.75 17.5024C19.75 17.6507 19.706 17.7958 19.6236 17.9191C19.5412 18.0424 19.4241 18.1386 19.287 18.1953C19.15 18.2521 18.9992 18.2669 18.8537 18.238C18.7082 18.2091 18.5746 18.1376 18.4697 18.0327C18.3648 17.9279 18.2934 17.7942 18.2644 17.6487C18.2355 17.5032 18.2503 17.3524 18.3071 17.2154C18.3639 17.0784 18.46 16.9612 18.5833 16.8788C18.7067 16.7964 18.8517 16.7524 19 16.7524C19.1989 16.7524 19.3897 16.8314 19.5303 16.9721C19.671 17.1127 19.75 17.3035 19.75 17.5024Z" fill="white"/>
<defs>
<filter id="filter0_f_5270_2499" x="7.96767" y="20.8515" width="41.9299" height="19.094" filterUnits="userSpaceOnUse" color-interpolation-filters="sRGB">
<feFlood flood-opacity="0" result="BackgroundImageFix"/>
<feBlend mode="normal" in="SourceGraphic" in2="BackgroundImageFix" result="shape"/>
<feGaussianBlur stdDeviation="0.69927" result="effect1_foregroundBlur_5270_2499"/>
</filter>
<filter id="filter1_f_5270_2499" x="5.46179" y="21.663" width="40.2424" height="22.8421" filterUnits="userSpaceOnUse" color-interpolation-filters="sRGB">
<feFlood flood-opacity="0" result="BackgroundImageFix"/>
<feBlend mode="normal" in="SourceGraphic" in2="BackgroundImageFix" result="shape"/>
<feGaussianBlur stdDeviation="3.08844" result="effect1_foregroundBlur_5270_2499"/>
</filter>
<filter id="filter2_f_5270_2499" x="-17.9475" y="-19.3469" width="57.0483" height="56.0571" filterUnits="userSpaceOnUse" color-interpolation-filters="sRGB">
<feFlood flood-opacity="0" result="BackgroundImageFix"/>
<feBlend mode="normal" in="SourceGraphic" in2="BackgroundImageFix" result="shape"/>
<feGaussianBlur stdDeviation="6.08948" result="effect1_foregroundBlur_5270_2499"/>
</filter>
<filter id="filter3_f_5270_2499" x="2.15601" y="5.07105" width="57.0483" height="56.0571" filterUnits="userSpaceOnUse" color-interpolation-filters="sRGB">
<feFlood flood-opacity="0" result="BackgroundImageFix"/>
<feBlend mode="normal" in="SourceGraphic" in2="BackgroundImageFix" result="shape"/>
<feGaussianBlur stdDeviation="6.08948" result="effect1_foregroundBlur_5270_2499"/>
</filter>
<filter id="filter4_f_5270_2499" x="12.5561" y="18.0043" width="29.0157" height="24.3429" filterUnits="userSpaceOnUse" color-interpolation-filters="sRGB">
<feFlood flood-opacity="0" result="BackgroundImageFix"/>
<feBlend mode="normal" in="SourceGraphic" in2="BackgroundImageFix" result="shape"/>
<feGaussianBlur stdDeviation="1.45681" result="effect1_foregroundBlur_5270_2499"/>
</filter>
<filter id="filter5_f_5270_2499" x="4.38416" y="1.41541" width="12.4436" height="12.4426" filterUnits="userSpaceOnUse" color-interpolation-filters="sRGB">
<feFlood flood-opacity="0" result="BackgroundImageFix"/>
<feBlend mode="normal" in="SourceGraphic" in2="BackgroundImageFix" result="shape"/>
<feGaussianBlur stdDeviation="1.89386" result="effect1_foregroundBlur_5270_2499"/>
</filter>
<filter id="filter6_f_5270_2499" x="9.0882" y="6.11847" width="3.03454" height="3.03259" filterUnits="userSpaceOnUse" color-interpolation-filters="sRGB">
<feFlood flood-opacity="0" result="BackgroundImageFix"/>
<feBlend mode="normal" in="SourceGraphic" in2="BackgroundImageFix" result="shape"/>
<feGaussianBlur stdDeviation="0.116545" result="effect1_foregroundBlur_5270_2499"/>
</filter>
<filter id="filter7_f_5270_2499" x="1.89798" y="0.944851" width="40.2822" height="42.1767" filterUnits="userSpaceOnUse" color-interpolation-filters="sRGB">
<feFlood flood-opacity="0" result="BackgroundImageFix"/>
<feBlend mode="normal" in="SourceGraphic" in2="BackgroundImageFix" result="shape"/>
<feGaussianBlur stdDeviation="3.14672" result="effect1_foregroundBlur_5270_2499"/>
</filter>
<filter id="filter8_f_5270_2499" x="-4.48727" y="-5.94332" width="36.0693" height="40.9218" filterUnits="userSpaceOnUse" color-interpolation-filters="sRGB">
<feFlood flood-opacity="0" result="BackgroundImageFix"/>
<feBlend mode="normal" in="SourceGraphic" in2="BackgroundImageFix" result="shape"/>
<feGaussianBlur stdDeviation="1.95213" result="effect1_foregroundBlur_5270_2499"/>
</filter>
<filter id="filter9_f_5270_2499" x="28.1094" y="1.28319" width="15.5215" height="34.7188" filterUnits="userSpaceOnUse" color-interpolation-filters="sRGB">
<feFlood flood-opacity="0" result="BackgroundImageFix"/>
<feBlend mode="normal" in="SourceGraphic" in2="BackgroundImageFix" result="shape"/>
<feGaussianBlur stdDeviation="2.30176" result="effect1_foregroundBlur_5270_2499"/>
</filter>
<radialGradient id="paint0_radial_5270_2499" cx="0" cy="0" r="1" gradientUnits="userSpaceOnUse" gradientTransform="translate(18.2577 33.8553) rotate(-11.8288) scale(27.8342 85.8467)">
<stop stop-color="#093041"/>
<stop offset="1" stop-color="#4E6A76" stop-opacity="0"/>
</radialGradient>
<radialGradient id="paint1_radial_5270_2499" cx="0" cy="0" r="1" gradientUnits="userSpaceOnUse" gradientTransform="translate(17.2133 35.6243) rotate(-8.58869) scale(18.0524 54.6236)">
<stop stop-color="#000D12"/>
<stop offset="1" stop-color="#082430" stop-opacity="0"/>
</radialGradient>
<radialGradient id="paint2_radial_5270_2499" cx="0" cy="0" r="1" gradientUnits="userSpaceOnUse" gradientTransform="translate(18.0947 35.5549) rotate(-8.40541) scale(20.6654 64.9821)">
<stop stop-color="#228B22"/>
<stop offset="0.0001" stop-color="#082430" stop-opacity="0"/>
<stop offset="1" stop-color="#4AC63F" stop-opacity="0.81"/>
</radialGradient>
<radialGradient id="paint3_radial_5270_2499" cx="0" cy="0" r="1" gradientUnits="userSpaceOnUse" gradientTransform="translate(10.693 8.18729) rotate(49.1614) scale(36.6247 37.882)">
<stop stop-color="#B9EBFF"/>
<stop offset="0.156338" stop-color="#7DCCED"/>
<stop offset="0.519012" stop-color="#4290AF"/>
<stop offset="0.710329" stop-color="#156282"/>
<stop offset="1" stop-color="#1B7398"/>
</radialGradient>
<radialGradient id="paint4_radial_5270_2499" cx="0" cy="0" r="1" gradientUnits="userSpaceOnUse" gradientTransform="translate(10.693 8.18729) rotate(49.1614) scale(36.6247 37.882)">
<stop stop-color="#D8FFB9"/>
<stop offset="0.156338" stop-color="#A1FD92"/>
<stop offset="0.519012" stop-color="#4AC63F"/>
<stop offset="0.710329" stop-color="#4AC63F"/>
<stop offset="1" stop-color="#228B22"/>
</radialGradient>
</defs>
</svg>
