<svg width="50" height="45" viewBox="0 0 50 45" fill="none" xmlns="http://www.w3.org/2000/svg">
<g filter="url(#filter0_f_5975_2643)">
<ellipse cx="28.9338" cy="30.3985" rx="20.0115" ry="6.98038" transform="rotate(-12.9443 28.9338 30.3985)" fill="url(#paint0_radial_5975_2643)"/>
</g>
<ellipse cx="25.0107" cy="33.1541" rx="14.615" ry="4.98816" transform="rotate(-7.07465 25.0107 33.1541)" fill="url(#paint1_radial_5975_2643)"/>
<g filter="url(#filter1_f_5975_2643)">
<ellipse cx="25.5838" cy="33.0846" rx="14.0373" ry="4.98816" transform="rotate(-7.07465 25.5838 33.0846)" fill="url(#paint2_radial_5975_2643)"/>
</g>
<mask id="mask0_5975_2643" style="mask-type:alpha" maskUnits="userSpaceOnUse" x="0" y="0" width="39" height="39">
<circle cx="19.1134" cy="19.1134" r="19.1134" fill="url(#paint3_radial_5975_2643)"/>
</mask>
<g mask="url(#mask0_5975_2643)">
<circle cx="19.1134" cy="19.1134" r="19.1134" fill="url(#paint4_radial_5975_2643)"/>
<g filter="url(#filter2_f_5975_2643)">
<ellipse cx="10.5759" cy="8.68215" rx="16.3454" ry="15.8501" fill="#D7D96A" fill-opacity="0.13"/>
</g>
<g filter="url(#filter3_f_5975_2643)">
<ellipse cx="30.6814" cy="33.1001" rx="16.3454" ry="15.8501" fill="#1B2372" fill-opacity="0.43"/>
</g>
<g filter="url(#filter4_f_5975_2643)">
<path d="M38.401 20.9506C38.5752 21.5495 40.453 30.4731 30.6799 37.9661C26.7979 40.9425 15.645 38.565 15.4708 37.9661C15.2966 37.3672 24.5322 36.2762 29.6019 33.0421C37.4216 28.0536 38.2268 20.3517 38.401 20.9506Z" fill="#51779F" fill-opacity="0.61"/>
</g>
<g filter="url(#filter5_f_5975_2643)">
<ellipse cx="10.6048" cy="7.63533" rx="1.48322" ry="3.10549" transform="rotate(45 10.6048 7.63533)" fill="#E3F7FF"/>
</g>
<g filter="url(#filter6_f_5975_2643)">
<ellipse cx="10.6056" cy="7.63421" rx="0.782743" ry="1.63887" transform="rotate(45 10.6056 7.63421)" fill="#E2F7FF"/>
</g>
<g filter="url(#filter7_f_5975_2643)">
<path d="M35.0221 7.34375C36.6052 15.9875 32.0386 35.198 8.2168 36.2469" stroke="#010E1B" stroke-width="1.16545"/>
</g>
<g filter="url(#filter8_f_5975_2643)">
<path d="M27.4893 -0.423898C11.4644 -5.90151 -7.1828 11.2597 2.81094 30.8102" stroke="#FCFFDD" stroke-width="1.16545"/>
</g>
<g filter="url(#filter9_f_5975_2643)">
<path d="M33.0996 6.32422C38.6355 11.2191 41.2286 19.7269 34.1194 31.09" stroke="#A1A0DB" stroke-opacity="0.65" stroke-width="1.16545"/>
</g>
</g>
<g clip-path="url(#clip0_5975_2643)">
<path d="M27.5424 23.0407C27.6914 23.703 27.2775 24.3156 26.6648 24.4481L18.916 26.2197C17.9888 26.4681 16.9126 26.3356 16.035 25.7892L12.4587 23.5374C12.0116 23.256 11.4818 23.1566 11.0016 23.2725L7.97164 25.3753L7.95508 20.673L12.2103 18.2556C13.1375 17.792 14.1144 18.206 14.9588 18.7358L20.0916 21.981C20.6214 22.3287 20.787 23.0573 20.4393 23.5871C20.0916 24.1169 19.3796 24.2659 18.8332 23.9348L14.7105 21.3187C14.5449 21.2028 14.3131 21.2525 14.1972 21.4346C14.0813 21.6168 14.1144 21.8486 14.3131 21.9645L18.4193 24.5805C18.8498 24.8786 19.3796 24.9614 19.8763 24.8455C20.3731 24.713 20.8036 24.3984 21.085 23.9679C21.234 23.7692 21.3334 23.5209 21.3665 23.2891L26.135 22.1963C26.7642 22.0638 27.3768 22.4446 27.5424 23.0407ZM17.7901 14.5137V17.3947C17.0947 17.6761 16.6808 18.0238 16.6808 18.4047C16.6808 19.3153 19.0319 19.0835 21.8632 19.0835C24.6945 19.0835 26.9298 19.2988 26.9298 18.4047C26.9298 18.0404 26.5655 17.7093 25.9529 17.4443V14.5137H28.3371L26.847 12.7421H27.8404L26.3337 10.9539H27.3271L25.5224 8.81798L24.2475 10.3247L25.3568 11.6824H24.2475L25.9198 13.6527H22.7904V14.5137H25.0588V17.1297C24.3137 16.9311 23.3865 16.7986 22.3765 16.7655V13.2553H25.0588L23.3865 11.285H24.4958L22.7904 9.21535H23.8998L21.8798 6.84766L19.8598 9.21535H20.9691L19.2472 11.2353H20.4062L18.7008 13.2553H21.3831V16.782C20.3896 16.8152 19.4624 16.9311 18.7008 17.1132V14.5137H20.9691V13.6527H17.8398L19.5618 11.6327H18.4027L19.5286 10.3247L18.2537 8.81798L16.4821 10.9373H17.4424L15.9357 12.7586H16.9457L15.4224 14.5137H17.7901Z" fill="white"/>
</g>
<defs>
<filter id="filter0_f_5975_2643" x="7.96865" y="20.8515" width="41.9299" height="19.094" filterUnits="userSpaceOnUse" color-interpolation-filters="sRGB">
<feFlood flood-opacity="0" result="BackgroundImageFix"/>
<feBlend mode="normal" in="SourceGraphic" in2="BackgroundImageFix" result="shape"/>
<feGaussianBlur stdDeviation="0.69927" result="effect1_foregroundBlur_5975_2643"/>
</filter>
<filter id="filter1_f_5975_2643" x="5.46179" y="21.663" width="40.2424" height="22.8421" filterUnits="userSpaceOnUse" color-interpolation-filters="sRGB">
<feFlood flood-opacity="0" result="BackgroundImageFix"/>
<feBlend mode="normal" in="SourceGraphic" in2="BackgroundImageFix" result="shape"/>
<feGaussianBlur stdDeviation="3.08844" result="effect1_foregroundBlur_5975_2643"/>
</filter>
<filter id="filter2_f_5975_2643" x="-17.9485" y="-19.3469" width="57.0493" height="56.0571" filterUnits="userSpaceOnUse" color-interpolation-filters="sRGB">
<feFlood flood-opacity="0" result="BackgroundImageFix"/>
<feBlend mode="normal" in="SourceGraphic" in2="BackgroundImageFix" result="shape"/>
<feGaussianBlur stdDeviation="6.08948" result="effect1_foregroundBlur_5975_2643"/>
</filter>
<filter id="filter3_f_5975_2643" x="2.15698" y="5.07105" width="57.0493" height="56.0571" filterUnits="userSpaceOnUse" color-interpolation-filters="sRGB">
<feFlood flood-opacity="0" result="BackgroundImageFix"/>
<feBlend mode="normal" in="SourceGraphic" in2="BackgroundImageFix" result="shape"/>
<feGaussianBlur stdDeviation="6.08948" result="effect1_foregroundBlur_5975_2643"/>
</filter>
<filter id="filter4_f_5975_2643" x="12.5551" y="18.0043" width="29.0148" height="24.3429" filterUnits="userSpaceOnUse" color-interpolation-filters="sRGB">
<feFlood flood-opacity="0" result="BackgroundImageFix"/>
<feBlend mode="normal" in="SourceGraphic" in2="BackgroundImageFix" result="shape"/>
<feGaussianBlur stdDeviation="1.45681" result="effect1_foregroundBlur_5975_2643"/>
</filter>
<filter id="filter5_f_5975_2643" x="4.38221" y="1.41541" width="12.4446" height="12.4426" filterUnits="userSpaceOnUse" color-interpolation-filters="sRGB">
<feFlood flood-opacity="0" result="BackgroundImageFix"/>
<feBlend mode="normal" in="SourceGraphic" in2="BackgroundImageFix" result="shape"/>
<feGaussianBlur stdDeviation="1.89386" result="effect1_foregroundBlur_5975_2643"/>
</filter>
<filter id="filter6_f_5975_2643" x="9.08722" y="6.11847" width="3.03649" height="3.03259" filterUnits="userSpaceOnUse" color-interpolation-filters="sRGB">
<feFlood flood-opacity="0" result="BackgroundImageFix"/>
<feBlend mode="normal" in="SourceGraphic" in2="BackgroundImageFix" result="shape"/>
<feGaussianBlur stdDeviation="0.116545" result="effect1_foregroundBlur_5975_2643"/>
</filter>
<filter id="filter7_f_5975_2643" x="1.89798" y="0.944851" width="40.2822" height="42.1767" filterUnits="userSpaceOnUse" color-interpolation-filters="sRGB">
<feFlood flood-opacity="0" result="BackgroundImageFix"/>
<feBlend mode="normal" in="SourceGraphic" in2="BackgroundImageFix" result="shape"/>
<feGaussianBlur stdDeviation="3.14672" result="effect1_foregroundBlur_5975_2643"/>
</filter>
<filter id="filter8_f_5975_2643" x="-4.48629" y="-5.94332" width="36.0683" height="40.9218" filterUnits="userSpaceOnUse" color-interpolation-filters="sRGB">
<feFlood flood-opacity="0" result="BackgroundImageFix"/>
<feBlend mode="normal" in="SourceGraphic" in2="BackgroundImageFix" result="shape"/>
<feGaussianBlur stdDeviation="1.95213" result="effect1_foregroundBlur_5975_2643"/>
</filter>
<filter id="filter9_f_5975_2643" x="28.1094" y="1.28319" width="15.5235" height="34.7188" filterUnits="userSpaceOnUse" color-interpolation-filters="sRGB">
<feFlood flood-opacity="0" result="BackgroundImageFix"/>
<feBlend mode="normal" in="SourceGraphic" in2="BackgroundImageFix" result="shape"/>
<feGaussianBlur stdDeviation="2.30176" result="effect1_foregroundBlur_5975_2643"/>
</filter>
<radialGradient id="paint0_radial_5975_2643" cx="0" cy="0" r="1" gradientUnits="userSpaceOnUse" gradientTransform="translate(18.2587 33.8553) rotate(-11.8288) scale(27.8342 85.8467)">
<stop stop-color="#093041"/>
<stop offset="1" stop-color="#4E6A76" stop-opacity="0"/>
</radialGradient>
<radialGradient id="paint1_radial_5975_2643" cx="0" cy="0" r="1" gradientUnits="userSpaceOnUse" gradientTransform="translate(17.2143 35.6243) rotate(-8.58869) scale(18.0524 54.6236)">
<stop stop-color="#000D12"/>
<stop offset="1" stop-color="#082430" stop-opacity="0"/>
</radialGradient>
<radialGradient id="paint2_radial_5975_2643" cx="0" cy="0" r="1" gradientUnits="userSpaceOnUse" gradientTransform="translate(18.0956 35.5549) rotate(-8.40541) scale(20.6654 64.9821)">
<stop stop-color="#228B22"/>
<stop offset="0.0001" stop-color="#082430" stop-opacity="0"/>
<stop offset="1" stop-color="#4AC63F" stop-opacity="0.81"/>
</radialGradient>
<radialGradient id="paint3_radial_5975_2643" cx="0" cy="0" r="1" gradientUnits="userSpaceOnUse" gradientTransform="translate(10.693 8.18729) rotate(49.1614) scale(36.6247 37.882)">
<stop stop-color="#B9EBFF"/>
<stop offset="0.156338" stop-color="#7DCCED"/>
<stop offset="0.519012" stop-color="#4290AF"/>
<stop offset="0.710329" stop-color="#156282"/>
<stop offset="1" stop-color="#1B7398"/>
</radialGradient>
<radialGradient id="paint4_radial_5975_2643" cx="0" cy="0" r="1" gradientUnits="userSpaceOnUse" gradientTransform="translate(10.693 8.18729) rotate(49.1614) scale(36.6247 37.882)">
<stop stop-color="#D8FFB9"/>
<stop offset="0.156338" stop-color="#A1FD92"/>
<stop offset="0.519012" stop-color="#4AC63F"/>
<stop offset="0.710329" stop-color="#4AC63F"/>
<stop offset="1" stop-color="#228B22"/>
</radialGradient>
<clipPath id="clip0_5975_2643">
<rect width="21.1934" height="21.1934" fill="white" transform="translate(7.80664 6.56641)"/>
</clipPath>
</defs>
</svg>
