<svg width="50" height="46" viewBox="0 0 50 46" fill="none" xmlns="http://www.w3.org/2000/svg">
<g filter="url(#filter0_f_5975_2793)">
<ellipse cx="28.9338" cy="31.0821" rx="20.0115" ry="6.98038" transform="rotate(-12.9443 28.9338 31.0821)" fill="url(#paint0_radial_5975_2793)"/>
</g>
<ellipse cx="25.0107" cy="33.8377" rx="14.615" ry="4.98816" transform="rotate(-7.07465 25.0107 33.8377)" fill="url(#paint1_radial_5975_2793)"/>
<g filter="url(#filter1_f_5975_2793)">
<ellipse cx="25.5838" cy="33.7682" rx="14.0373" ry="4.98816" transform="rotate(-7.07465 25.5838 33.7682)" fill="url(#paint2_radial_5975_2793)"/>
</g>
<mask id="mask0_5975_2793" style="mask-type:alpha" maskUnits="userSpaceOnUse" x="0" y="0" width="39" height="39">
<circle cx="19.1134" cy="19.797" r="19.1134" fill="url(#paint3_radial_5975_2793)"/>
</mask>
<g mask="url(#mask0_5975_2793)">
<circle cx="19.1134" cy="19.797" r="19.1134" fill="url(#paint4_radial_5975_2793)"/>
<g filter="url(#filter2_f_5975_2793)">
<ellipse cx="10.5759" cy="9.36575" rx="16.3454" ry="15.8501" fill="#D7D96A" fill-opacity="0.13"/>
</g>
<g filter="url(#filter3_f_5975_2793)">
<ellipse cx="30.6814" cy="33.7837" rx="16.3454" ry="15.8501" fill="#1B2372" fill-opacity="0.43"/>
</g>
<g filter="url(#filter4_f_5975_2793)">
<path d="M38.401 21.6342C38.5752 22.2331 40.453 31.1567 30.6799 38.6497C26.7979 41.6261 15.645 39.2486 15.4708 38.6497C15.2966 38.0508 24.5322 36.9598 29.6019 33.7257C37.4216 28.7372 38.2268 21.0353 38.401 21.6342Z" fill="#51779F" fill-opacity="0.61"/>
</g>
<g filter="url(#filter5_f_5975_2793)">
<ellipse cx="10.6048" cy="8.31893" rx="1.48322" ry="3.10549" transform="rotate(45 10.6048 8.31893)" fill="#E3F7FF"/>
</g>
<g filter="url(#filter6_f_5975_2793)">
<ellipse cx="10.6056" cy="8.31781" rx="0.782743" ry="1.63887" transform="rotate(45 10.6056 8.31781)" fill="#E2F7FF"/>
</g>
<g filter="url(#filter7_f_5975_2793)">
<path d="M35.0221 8.02734C36.6052 16.6711 32.0386 35.8816 8.2168 36.9305" stroke="#010E1B" stroke-width="1.16545"/>
</g>
<g filter="url(#filter8_f_5975_2793)">
<path d="M27.4893 0.259696C11.4644 -5.21792 -7.1828 11.9433 2.81094 31.4938" stroke="#FCFFDD" stroke-width="1.16545"/>
</g>
<g filter="url(#filter9_f_5975_2793)">
<path d="M33.0996 7.00781C38.6355 11.9027 41.2286 20.4105 34.1194 31.7736" stroke="#A1A0DB" stroke-opacity="0.65" stroke-width="1.16545"/>
</g>
</g>
<g clip-path="url(#clip0_5975_2793)">
<path d="M30.6404 12.6577C28.4693 12.1937 26.2852 11.8365 23.4445 12.5502C22.7369 12.7279 21.9912 12.8897 21.339 12.8696C20.9745 12.8585 20.6113 12.7736 20.2599 12.6915L20.1975 12.6768C17.9178 12.1455 15.3585 11.7571 12.0959 12.5059C11.8639 12.5591 11.7122 12.7823 11.7481 13.0176L11.9356 14.2448C11.969 14.463 12.1542 14.6257 12.3749 14.6307C12.3971 14.6311 12.4154 14.6334 12.4294 14.636C12.4938 16.1831 12.803 17.2408 13.4015 17.9633C14.0416 18.736 15.0124 19.1123 16.3693 19.1138C16.371 19.1138 16.3727 19.1138 16.3744 19.1138C18.0429 19.1138 19.1772 18.2269 19.8352 17.4824C20.5729 16.6476 21.015 15.6508 21.1259 15.0334C21.1549 14.8717 21.1952 14.8317 21.1953 14.8316C21.2019 14.8272 21.2342 14.8128 21.3709 14.8092C21.5117 14.8054 21.5176 14.8052 21.5983 15.0353C21.6121 15.0748 21.6256 15.1127 21.6395 15.148C22.1878 16.5338 22.6691 17.5199 23.3738 18.1524C24.119 18.8215 25.034 19.025 26.1787 19.1248C26.385 19.1428 26.5825 19.1519 26.7713 19.1519C27.9079 19.1519 28.73 18.8249 29.2741 18.1596C29.288 18.1426 29.3005 18.125 29.3138 18.1078C29.3382 18.4032 29.3506 18.6999 29.3506 18.9971C29.3506 24.9086 24.5414 29.7178 18.63 29.7178C12.7187 29.7178 7.90924 24.9085 7.90924 18.9971C7.90924 13.0858 12.7185 8.27643 18.6299 8.27643C20.9985 8.27643 23.2434 9.03318 25.122 10.4649C25.3217 10.6172 25.607 10.5786 25.7592 10.379C25.9114 10.1793 25.8729 9.89405 25.6731 9.74184C23.6349 8.1883 21.1993 7.36719 18.6299 7.36719C12.2171 7.36719 7 12.5843 7 18.9971C7 25.4099 12.2171 30.6271 18.6299 30.6271C25.0427 30.6271 30.2598 25.4099 30.2598 18.9971C30.2598 18.1492 30.1672 17.304 29.9862 16.4828C30.0311 16.2721 30.0681 16.063 30.1037 15.8608C30.1643 15.5167 30.2214 15.1917 30.307 14.919C30.3301 14.8454 30.3467 14.8067 30.3566 14.7872C30.3669 14.7858 30.3818 14.7844 30.402 14.784C30.6274 14.779 30.8151 14.6096 30.8431 14.3859L30.9965 13.1587C31.0258 12.9245 30.8711 12.707 30.6404 12.6577ZM29.9806 13.9552C29.6063 14.115 29.4944 14.4717 29.4395 14.6468C29.3361 14.9759 29.274 15.3292 29.2081 15.7033C29.1686 15.9283 29.1298 16.1484 29.0836 16.3593C29.0793 16.3746 29.0758 16.3901 29.073 16.4059C28.8155 17.5457 28.32 18.3991 26.2575 18.219C24.1211 18.0328 23.557 17.5235 22.4848 14.8135C22.4751 14.7889 22.4658 14.7624 22.4562 14.7349C22.3681 14.4832 22.1638 13.8997 21.389 13.8997C21.375 13.8997 21.3606 13.8999 21.3462 13.9003C21.0877 13.9073 20.4009 13.9258 20.2309 14.8728C20.0775 15.7272 18.8305 18.2047 16.3742 18.2047C16.373 18.2047 16.3715 18.2047 16.3703 18.2047C14.2643 18.2024 13.4422 17.2187 13.3369 14.5752C13.3223 14.2083 13.1132 13.9256 12.787 13.7972L12.7116 13.3032C15.6005 12.7184 17.9157 13.0788 19.9912 13.5625L20.0531 13.5769C20.4294 13.6649 20.856 13.7646 21.3113 13.7786C22.0752 13.8018 22.8949 13.6259 23.6661 13.4321C26.143 12.8099 28.113 13.0659 30.0425 13.4614L29.9806 13.9552Z" fill="white"/>
<path d="M24.8013 21.9085C24.5535 21.8674 24.3195 22.035 24.2784 22.2827C24.131 23.1716 23.5468 23.9182 22.7539 24.231C21.9401 24.5519 21.0139 24.4065 20.3367 23.8512C20.1425 23.692 19.856 23.7203 19.6968 23.9144C19.5376 24.1086 19.566 24.395 19.7601 24.5542C20.3645 25.0498 21.113 25.3083 21.87 25.3083C22.2805 25.3083 22.6936 25.2322 23.0875 25.0768C24.176 24.6475 24.976 23.6338 25.1754 22.4314C25.2165 22.1838 25.0491 21.9497 24.8013 21.9085Z" fill="white"/>
<path d="M26.5601 11.5538C26.8112 11.5538 27.0148 11.3503 27.0148 11.0992C27.0148 10.8481 26.8112 10.6445 26.5601 10.6445C26.309 10.6445 26.1055 10.8481 26.1055 11.0992C26.1055 11.3503 26.309 11.5538 26.5601 11.5538Z" fill="white"/>
</g>
<defs>
<filter id="filter0_f_5975_2793" x="7.96865" y="21.5351" width="41.9299" height="19.094" filterUnits="userSpaceOnUse" color-interpolation-filters="sRGB">
<feFlood flood-opacity="0" result="BackgroundImageFix"/>
<feBlend mode="normal" in="SourceGraphic" in2="BackgroundImageFix" result="shape"/>
<feGaussianBlur stdDeviation="0.69927" result="effect1_foregroundBlur_5975_2793"/>
</filter>
<filter id="filter1_f_5975_2793" x="5.46179" y="22.3466" width="40.2424" height="22.8421" filterUnits="userSpaceOnUse" color-interpolation-filters="sRGB">
<feFlood flood-opacity="0" result="BackgroundImageFix"/>
<feBlend mode="normal" in="SourceGraphic" in2="BackgroundImageFix" result="shape"/>
<feGaussianBlur stdDeviation="3.08844" result="effect1_foregroundBlur_5975_2793"/>
</filter>
<filter id="filter2_f_5975_2793" x="-17.9485" y="-18.6633" width="57.0493" height="56.0571" filterUnits="userSpaceOnUse" color-interpolation-filters="sRGB">
<feFlood flood-opacity="0" result="BackgroundImageFix"/>
<feBlend mode="normal" in="SourceGraphic" in2="BackgroundImageFix" result="shape"/>
<feGaussianBlur stdDeviation="6.08948" result="effect1_foregroundBlur_5975_2793"/>
</filter>
<filter id="filter3_f_5975_2793" x="2.15698" y="5.75464" width="57.0493" height="56.0571" filterUnits="userSpaceOnUse" color-interpolation-filters="sRGB">
<feFlood flood-opacity="0" result="BackgroundImageFix"/>
<feBlend mode="normal" in="SourceGraphic" in2="BackgroundImageFix" result="shape"/>
<feGaussianBlur stdDeviation="6.08948" result="effect1_foregroundBlur_5975_2793"/>
</filter>
<filter id="filter4_f_5975_2793" x="12.5551" y="18.6879" width="29.0148" height="24.3429" filterUnits="userSpaceOnUse" color-interpolation-filters="sRGB">
<feFlood flood-opacity="0" result="BackgroundImageFix"/>
<feBlend mode="normal" in="SourceGraphic" in2="BackgroundImageFix" result="shape"/>
<feGaussianBlur stdDeviation="1.45681" result="effect1_foregroundBlur_5975_2793"/>
</filter>
<filter id="filter5_f_5975_2793" x="4.38221" y="2.09901" width="12.4446" height="12.4426" filterUnits="userSpaceOnUse" color-interpolation-filters="sRGB">
<feFlood flood-opacity="0" result="BackgroundImageFix"/>
<feBlend mode="normal" in="SourceGraphic" in2="BackgroundImageFix" result="shape"/>
<feGaussianBlur stdDeviation="1.89386" result="effect1_foregroundBlur_5975_2793"/>
</filter>
<filter id="filter6_f_5975_2793" x="9.08722" y="6.80207" width="3.03649" height="3.03259" filterUnits="userSpaceOnUse" color-interpolation-filters="sRGB">
<feFlood flood-opacity="0" result="BackgroundImageFix"/>
<feBlend mode="normal" in="SourceGraphic" in2="BackgroundImageFix" result="shape"/>
<feGaussianBlur stdDeviation="0.116545" result="effect1_foregroundBlur_5975_2793"/>
</filter>
<filter id="filter7_f_5975_2793" x="1.89798" y="1.62844" width="40.2822" height="42.1767" filterUnits="userSpaceOnUse" color-interpolation-filters="sRGB">
<feFlood flood-opacity="0" result="BackgroundImageFix"/>
<feBlend mode="normal" in="SourceGraphic" in2="BackgroundImageFix" result="shape"/>
<feGaussianBlur stdDeviation="3.14672" result="effect1_foregroundBlur_5975_2793"/>
</filter>
<filter id="filter8_f_5975_2793" x="-4.48629" y="-5.25973" width="36.0683" height="40.9218" filterUnits="userSpaceOnUse" color-interpolation-filters="sRGB">
<feFlood flood-opacity="0" result="BackgroundImageFix"/>
<feBlend mode="normal" in="SourceGraphic" in2="BackgroundImageFix" result="shape"/>
<feGaussianBlur stdDeviation="1.95213" result="effect1_foregroundBlur_5975_2793"/>
</filter>
<filter id="filter9_f_5975_2793" x="28.1094" y="1.96678" width="15.5235" height="34.7188" filterUnits="userSpaceOnUse" color-interpolation-filters="sRGB">
<feFlood flood-opacity="0" result="BackgroundImageFix"/>
<feBlend mode="normal" in="SourceGraphic" in2="BackgroundImageFix" result="shape"/>
<feGaussianBlur stdDeviation="2.30176" result="effect1_foregroundBlur_5975_2793"/>
</filter>
<radialGradient id="paint0_radial_5975_2793" cx="0" cy="0" r="1" gradientUnits="userSpaceOnUse" gradientTransform="translate(18.2587 34.5389) rotate(-11.8288) scale(27.8342 85.8467)">
<stop stop-color="#093041"/>
<stop offset="1" stop-color="#4E6A76" stop-opacity="0"/>
</radialGradient>
<radialGradient id="paint1_radial_5975_2793" cx="0" cy="0" r="1" gradientUnits="userSpaceOnUse" gradientTransform="translate(17.2143 36.3079) rotate(-8.58869) scale(18.0524 54.6236)">
<stop stop-color="#000D12"/>
<stop offset="1" stop-color="#082430" stop-opacity="0"/>
</radialGradient>
<radialGradient id="paint2_radial_5975_2793" cx="0" cy="0" r="1" gradientUnits="userSpaceOnUse" gradientTransform="translate(18.0956 36.2385) rotate(-8.40541) scale(20.6654 64.9821)">
<stop stop-color="#228B22"/>
<stop offset="0.0001" stop-color="#082430" stop-opacity="0"/>
<stop offset="1" stop-color="#4AC63F" stop-opacity="0.81"/>
</radialGradient>
<radialGradient id="paint3_radial_5975_2793" cx="0" cy="0" r="1" gradientUnits="userSpaceOnUse" gradientTransform="translate(10.693 8.87088) rotate(49.1614) scale(36.6247 37.882)">
<stop stop-color="#B9EBFF"/>
<stop offset="0.156338" stop-color="#7DCCED"/>
<stop offset="0.519012" stop-color="#4290AF"/>
<stop offset="0.710329" stop-color="#156282"/>
<stop offset="1" stop-color="#1B7398"/>
</radialGradient>
<radialGradient id="paint4_radial_5975_2793" cx="0" cy="0" r="1" gradientUnits="userSpaceOnUse" gradientTransform="translate(10.693 8.87088) rotate(49.1614) scale(36.6247 37.882)">
<stop stop-color="#D8FFB9"/>
<stop offset="0.156338" stop-color="#A1FD92"/>
<stop offset="0.519012" stop-color="#4AC63F"/>
<stop offset="0.710329" stop-color="#4AC63F"/>
<stop offset="1" stop-color="#228B22"/>
</radialGradient>
<clipPath id="clip0_5975_2793">
<rect width="24" height="24" fill="white" transform="translate(7 7)"/>
</clipPath>
</defs>
</svg>
