<svg width="50" height="45" viewBox="0 0 50 45" fill="none" xmlns="http://www.w3.org/2000/svg">
<g filter="url(#filter0_f_5975_2668)">
<ellipse cx="28.9338" cy="30.3985" rx="20.0115" ry="6.98038" transform="rotate(-12.9443 28.9338 30.3985)" fill="url(#paint0_radial_5975_2668)"/>
</g>
<ellipse cx="25.0107" cy="33.1541" rx="14.615" ry="4.98816" transform="rotate(-7.07465 25.0107 33.1541)" fill="url(#paint1_radial_5975_2668)"/>
<g filter="url(#filter1_f_5975_2668)">
<ellipse cx="25.5838" cy="33.0846" rx="14.0373" ry="4.98816" transform="rotate(-7.07465 25.5838 33.0846)" fill="url(#paint2_radial_5975_2668)"/>
</g>
<mask id="mask0_5975_2668" style="mask-type:alpha" maskUnits="userSpaceOnUse" x="0" y="0" width="39" height="39">
<circle cx="19.1134" cy="19.1134" r="19.1134" fill="url(#paint3_radial_5975_2668)"/>
</mask>
<g mask="url(#mask0_5975_2668)">
<circle cx="19.1134" cy="19.1134" r="19.1134" fill="url(#paint4_radial_5975_2668)"/>
<g filter="url(#filter2_f_5975_2668)">
<ellipse cx="10.5759" cy="8.68215" rx="16.3454" ry="15.8501" fill="#D7D96A" fill-opacity="0.13"/>
</g>
<g filter="url(#filter3_f_5975_2668)">
<ellipse cx="30.6814" cy="33.1001" rx="16.3454" ry="15.8501" fill="#1B2372" fill-opacity="0.43"/>
</g>
<g filter="url(#filter4_f_5975_2668)">
<path d="M38.401 20.9506C38.5752 21.5495 40.453 30.4731 30.6799 37.9661C26.7979 40.9425 15.645 38.565 15.4708 37.9661C15.2966 37.3672 24.5322 36.2762 29.6019 33.0421C37.4216 28.0536 38.2268 20.3517 38.401 20.9506Z" fill="#51779F" fill-opacity="0.61"/>
</g>
<g filter="url(#filter5_f_5975_2668)">
<ellipse cx="10.6048" cy="7.63533" rx="1.48322" ry="3.10549" transform="rotate(45 10.6048 7.63533)" fill="#E3F7FF"/>
</g>
<g filter="url(#filter6_f_5975_2668)">
<ellipse cx="10.6056" cy="7.63421" rx="0.782743" ry="1.63887" transform="rotate(45 10.6056 7.63421)" fill="#E2F7FF"/>
</g>
<g filter="url(#filter7_f_5975_2668)">
<path d="M35.0221 7.34375C36.6052 15.9875 32.0386 35.198 8.2168 36.2469" stroke="#010E1B" stroke-width="1.16545"/>
</g>
<g filter="url(#filter8_f_5975_2668)">
<path d="M27.4893 -0.423898C11.4644 -5.90151 -7.1828 11.2597 2.81094 30.8102" stroke="#FCFFDD" stroke-width="1.16545"/>
</g>
<g filter="url(#filter9_f_5975_2668)">
<path d="M33.0996 6.32422C38.6355 11.2191 41.2286 19.7269 34.1194 31.09" stroke="#A1A0DB" stroke-opacity="0.65" stroke-width="1.16545"/>
</g>
</g>
<path d="M25.7279 17.6276H23.8112H25.7279ZM23.8112 17.6276H21.8945H23.8112ZM23.8112 17.6276V15.7109V17.6276ZM23.8112 17.6276V19.5443V17.6276Z" fill="white"/>
<path d="M25.7279 17.6276H23.8112M23.8112 17.6276H21.8945M23.8112 17.6276V15.7109M23.8112 17.6276V19.5443" stroke="#FFDD4C" stroke-width="1.4375" stroke-linecap="round"/>
<path d="M18.6263 13.5253L18.4706 13.6918C16.6091 12.1257 14.6844 11.8027 13.1799 12.3918L13.3382 12.7961L13.1799 12.3918C11.5389 13.0343 10.3022 14.7991 10.1694 17.4517H9.68974C9.82393 14.6518 11.1361 12.6774 13.0051 11.9456L12.8323 11.5041L13.0052 11.9456C14.7221 11.2733 16.832 11.6793 18.8001 13.3434C18.7418 13.403 18.6839 13.4637 18.6263 13.5253ZM11.1228 21.2026L10.7124 21.4508C10.1671 20.4627 9.79129 19.4364 9.69993 18.41H10.1812C10.271 19.3319 10.6118 20.2728 11.1228 21.2026ZM20.532 13.6918L20.3763 13.5253C20.3187 13.4637 20.2608 13.403 20.2026 13.3434C22.1706 11.6793 24.2806 11.2733 25.9975 11.9456L26.1722 11.4994L25.9975 11.9456C27.8665 12.6774 29.1787 14.6518 29.3129 17.4516H28.8332C28.7004 14.7991 27.4636 13.0343 25.8228 12.3918L25.6481 12.838L25.8228 12.3918C24.3183 11.8027 22.3935 12.1257 20.532 13.6918ZM21.8892 27.6877L22.1916 28.0604C21.3343 28.7509 20.726 29.1946 19.9805 29.3256V28.8387C20.2299 28.7852 20.4698 28.6854 20.7333 28.5302C21.0523 28.3421 21.418 28.0651 21.8892 27.6877ZM19.0221 28.8387V29.3256C18.2766 29.1946 17.6683 28.7509 16.811 28.0604L17.1134 27.6877C17.5846 28.0651 17.9503 28.3421 18.2693 28.5302C18.5328 28.6854 18.7727 28.7852 19.0221 28.8387ZM16.3704 27.0825L16.0685 27.4546C15.3768 26.8789 14.6377 26.2223 13.917 25.5074L14.2603 25.1731C14.9658 25.8725 15.6904 26.5163 16.3704 27.0825ZM22.9342 27.4546L22.6322 27.0825C23.949 25.9862 25.4305 24.6003 26.6177 23.0861C27.8005 21.5775 28.6696 19.9688 28.8214 18.41H29.3027C29.1504 20.1204 28.2078 21.8346 26.9947 23.3818C25.778 24.9337 24.2669 26.3454 22.9342 27.4546Z" fill="white" stroke="white" stroke-width="0.958333"/>
<defs>
<filter id="filter0_f_5975_2668" x="7.96865" y="20.8515" width="41.9299" height="19.094" filterUnits="userSpaceOnUse" color-interpolation-filters="sRGB">
<feFlood flood-opacity="0" result="BackgroundImageFix"/>
<feBlend mode="normal" in="SourceGraphic" in2="BackgroundImageFix" result="shape"/>
<feGaussianBlur stdDeviation="0.69927" result="effect1_foregroundBlur_5975_2668"/>
</filter>
<filter id="filter1_f_5975_2668" x="5.46179" y="21.663" width="40.2424" height="22.8421" filterUnits="userSpaceOnUse" color-interpolation-filters="sRGB">
<feFlood flood-opacity="0" result="BackgroundImageFix"/>
<feBlend mode="normal" in="SourceGraphic" in2="BackgroundImageFix" result="shape"/>
<feGaussianBlur stdDeviation="3.08844" result="effect1_foregroundBlur_5975_2668"/>
</filter>
<filter id="filter2_f_5975_2668" x="-17.9485" y="-19.3469" width="57.0493" height="56.0571" filterUnits="userSpaceOnUse" color-interpolation-filters="sRGB">
<feFlood flood-opacity="0" result="BackgroundImageFix"/>
<feBlend mode="normal" in="SourceGraphic" in2="BackgroundImageFix" result="shape"/>
<feGaussianBlur stdDeviation="6.08948" result="effect1_foregroundBlur_5975_2668"/>
</filter>
<filter id="filter3_f_5975_2668" x="2.15698" y="5.07105" width="57.0493" height="56.0571" filterUnits="userSpaceOnUse" color-interpolation-filters="sRGB">
<feFlood flood-opacity="0" result="BackgroundImageFix"/>
<feBlend mode="normal" in="SourceGraphic" in2="BackgroundImageFix" result="shape"/>
<feGaussianBlur stdDeviation="6.08948" result="effect1_foregroundBlur_5975_2668"/>
</filter>
<filter id="filter4_f_5975_2668" x="12.5551" y="18.0043" width="29.0148" height="24.3429" filterUnits="userSpaceOnUse" color-interpolation-filters="sRGB">
<feFlood flood-opacity="0" result="BackgroundImageFix"/>
<feBlend mode="normal" in="SourceGraphic" in2="BackgroundImageFix" result="shape"/>
<feGaussianBlur stdDeviation="1.45681" result="effect1_foregroundBlur_5975_2668"/>
</filter>
<filter id="filter5_f_5975_2668" x="4.38221" y="1.41541" width="12.4446" height="12.4426" filterUnits="userSpaceOnUse" color-interpolation-filters="sRGB">
<feFlood flood-opacity="0" result="BackgroundImageFix"/>
<feBlend mode="normal" in="SourceGraphic" in2="BackgroundImageFix" result="shape"/>
<feGaussianBlur stdDeviation="1.89386" result="effect1_foregroundBlur_5975_2668"/>
</filter>
<filter id="filter6_f_5975_2668" x="9.08722" y="6.11847" width="3.03649" height="3.03259" filterUnits="userSpaceOnUse" color-interpolation-filters="sRGB">
<feFlood flood-opacity="0" result="BackgroundImageFix"/>
<feBlend mode="normal" in="SourceGraphic" in2="BackgroundImageFix" result="shape"/>
<feGaussianBlur stdDeviation="0.116545" result="effect1_foregroundBlur_5975_2668"/>
</filter>
<filter id="filter7_f_5975_2668" x="1.89798" y="0.944851" width="40.2822" height="42.1767" filterUnits="userSpaceOnUse" color-interpolation-filters="sRGB">
<feFlood flood-opacity="0" result="BackgroundImageFix"/>
<feBlend mode="normal" in="SourceGraphic" in2="BackgroundImageFix" result="shape"/>
<feGaussianBlur stdDeviation="3.14672" result="effect1_foregroundBlur_5975_2668"/>
</filter>
<filter id="filter8_f_5975_2668" x="-4.48629" y="-5.94332" width="36.0683" height="40.9218" filterUnits="userSpaceOnUse" color-interpolation-filters="sRGB">
<feFlood flood-opacity="0" result="BackgroundImageFix"/>
<feBlend mode="normal" in="SourceGraphic" in2="BackgroundImageFix" result="shape"/>
<feGaussianBlur stdDeviation="1.95213" result="effect1_foregroundBlur_5975_2668"/>
</filter>
<filter id="filter9_f_5975_2668" x="28.1094" y="1.28319" width="15.5235" height="34.7188" filterUnits="userSpaceOnUse" color-interpolation-filters="sRGB">
<feFlood flood-opacity="0" result="BackgroundImageFix"/>
<feBlend mode="normal" in="SourceGraphic" in2="BackgroundImageFix" result="shape"/>
<feGaussianBlur stdDeviation="2.30176" result="effect1_foregroundBlur_5975_2668"/>
</filter>
<radialGradient id="paint0_radial_5975_2668" cx="0" cy="0" r="1" gradientUnits="userSpaceOnUse" gradientTransform="translate(18.2587 33.8553) rotate(-11.8288) scale(27.8342 85.8467)">
<stop stop-color="#093041"/>
<stop offset="1" stop-color="#4E6A76" stop-opacity="0"/>
</radialGradient>
<radialGradient id="paint1_radial_5975_2668" cx="0" cy="0" r="1" gradientUnits="userSpaceOnUse" gradientTransform="translate(17.2143 35.6243) rotate(-8.58869) scale(18.0524 54.6236)">
<stop stop-color="#000D12"/>
<stop offset="1" stop-color="#082430" stop-opacity="0"/>
</radialGradient>
<radialGradient id="paint2_radial_5975_2668" cx="0" cy="0" r="1" gradientUnits="userSpaceOnUse" gradientTransform="translate(18.0956 35.5549) rotate(-8.40541) scale(20.6654 64.9821)">
<stop stop-color="#228B22"/>
<stop offset="0.0001" stop-color="#082430" stop-opacity="0"/>
<stop offset="1" stop-color="#4AC63F" stop-opacity="0.81"/>
</radialGradient>
<radialGradient id="paint3_radial_5975_2668" cx="0" cy="0" r="1" gradientUnits="userSpaceOnUse" gradientTransform="translate(10.693 8.18729) rotate(49.1614) scale(36.6247 37.882)">
<stop stop-color="#B9EBFF"/>
<stop offset="0.156338" stop-color="#7DCCED"/>
<stop offset="0.519012" stop-color="#4290AF"/>
<stop offset="0.710329" stop-color="#156282"/>
<stop offset="1" stop-color="#1B7398"/>
</radialGradient>
<radialGradient id="paint4_radial_5975_2668" cx="0" cy="0" r="1" gradientUnits="userSpaceOnUse" gradientTransform="translate(10.693 8.18729) rotate(49.1614) scale(36.6247 37.882)">
<stop stop-color="#D8FFB9"/>
<stop offset="0.156338" stop-color="#A1FD92"/>
<stop offset="0.519012" stop-color="#4AC63F"/>
<stop offset="0.710329" stop-color="#4AC63F"/>
<stop offset="1" stop-color="#228B22"/>
</radialGradient>
</defs>
</svg>
