<svg width="50" height="45" viewBox="0 0 50 45" fill="none" xmlns="http://www.w3.org/2000/svg">
<g filter="url(#filter0_f_5975_2693)">
<ellipse cx="28.9338" cy="30.3985" rx="20.0115" ry="6.98038" transform="rotate(-12.9443 28.9338 30.3985)" fill="url(#paint0_radial_5975_2693)"/>
</g>
<ellipse cx="25.0107" cy="33.1541" rx="14.615" ry="4.98816" transform="rotate(-7.07465 25.0107 33.1541)" fill="url(#paint1_radial_5975_2693)"/>
<g filter="url(#filter1_f_5975_2693)">
<ellipse cx="25.5838" cy="33.0846" rx="14.0373" ry="4.98816" transform="rotate(-7.07465 25.5838 33.0846)" fill="url(#paint2_radial_5975_2693)"/>
</g>
<mask id="mask0_5975_2693" style="mask-type:alpha" maskUnits="userSpaceOnUse" x="0" y="0" width="39" height="39">
<circle cx="19.1134" cy="19.1134" r="19.1134" fill="url(#paint3_radial_5975_2693)"/>
</mask>
<g mask="url(#mask0_5975_2693)">
<circle cx="19.1134" cy="19.1134" r="19.1134" fill="url(#paint4_radial_5975_2693)"/>
<g filter="url(#filter2_f_5975_2693)">
<ellipse cx="10.5759" cy="8.68215" rx="16.3454" ry="15.8501" fill="#D7D96A" fill-opacity="0.13"/>
</g>
<g filter="url(#filter3_f_5975_2693)">
<ellipse cx="30.6814" cy="33.1001" rx="16.3454" ry="15.8501" fill="#1B2372" fill-opacity="0.43"/>
</g>
<g filter="url(#filter4_f_5975_2693)">
<path d="M38.401 20.9506C38.5752 21.5495 40.453 30.4731 30.6799 37.9661C26.7979 40.9425 15.645 38.565 15.4708 37.9661C15.2966 37.3672 24.5322 36.2762 29.6019 33.0421C37.4216 28.0536 38.2268 20.3517 38.401 20.9506Z" fill="#51779F" fill-opacity="0.61"/>
</g>
<g filter="url(#filter5_f_5975_2693)">
<ellipse cx="10.6048" cy="7.63533" rx="1.48322" ry="3.10549" transform="rotate(45 10.6048 7.63533)" fill="#E3F7FF"/>
</g>
<g filter="url(#filter6_f_5975_2693)">
<ellipse cx="10.6056" cy="7.63421" rx="0.782743" ry="1.63887" transform="rotate(45 10.6056 7.63421)" fill="#E2F7FF"/>
</g>
<g filter="url(#filter7_f_5975_2693)">
<path d="M35.0221 7.34375C36.6052 15.9875 32.0386 35.198 8.2168 36.2469" stroke="#010E1B" stroke-width="1.16545"/>
</g>
<g filter="url(#filter8_f_5975_2693)">
<path d="M27.4893 -0.423898C11.4644 -5.90151 -7.1828 11.2597 2.81094 30.8102" stroke="#FCFFDD" stroke-width="1.16545"/>
</g>
<g filter="url(#filter9_f_5975_2693)">
<path d="M33.0996 6.32422C38.6355 11.2191 41.2286 19.7269 34.1194 31.09" stroke="#A1A0DB" stroke-opacity="0.65" stroke-width="1.16545"/>
</g>
</g>
<path d="M22.2129 22.4258C23.0413 22.4258 23.7129 23.0974 23.7129 23.9258V25.6418L23.7061 25.7347C23.4398 27.5572 21.8028 28.4335 19.0559 28.4335C16.3188 28.4335 14.6557 27.5672 14.2967 25.7657L14.2843 25.6401V23.9258C14.2843 23.0974 14.9559 22.4258 15.7843 22.4258H22.2129ZM22.6362 17.2828L27.7843 17.2829C28.6127 17.2829 29.2843 17.9545 29.2843 18.7829V20.4989L29.2776 20.5919C29.0112 22.4143 27.3742 23.2907 24.6273 23.2907L24.4831 23.2893C24.2186 22.3439 23.3795 21.6386 22.3661 21.5735L22.2129 21.5686L21.4224 21.5693C22.2967 20.8621 22.8557 19.7807 22.8557 18.5686C22.8557 18.1178 22.7784 17.685 22.6362 17.2828ZM10.2129 17.2829L15.361 17.2828C15.2188 17.685 15.1415 18.1178 15.1415 18.5686C15.1415 19.7094 15.6367 20.7345 16.4238 21.4406L16.5748 21.5693L15.7843 21.5686C14.7024 21.5686 13.7908 22.2975 13.5136 23.291L13.4844 23.2907C10.7474 23.2907 9.08429 22.4244 8.72529 20.6228L8.71289 20.4972V18.7829C8.71289 17.9545 9.38446 17.2829 10.2129 17.2829ZM18.9986 15.5686C20.6555 15.5686 21.9986 16.9118 21.9986 18.5686C21.9986 20.2255 20.6555 21.5686 18.9986 21.5686C17.3418 21.5686 15.9986 20.2255 15.9986 18.5686C15.9986 16.9118 17.3418 15.5686 18.9986 15.5686ZM24.57 10.4258C26.2269 10.4258 27.57 11.7689 27.57 13.4258C27.57 15.0826 26.2269 16.4258 24.57 16.4258C22.9132 16.4258 21.57 15.0826 21.57 13.4258C21.57 11.7689 22.9132 10.4258 24.57 10.4258ZM13.4272 10.4258C15.084 10.4258 16.4272 11.7689 16.4272 13.4258C16.4272 15.0826 15.084 16.4258 13.4272 16.4258C11.7703 16.4258 10.4272 15.0826 10.4272 13.4258C10.4272 11.7689 11.7703 10.4258 13.4272 10.4258Z" fill="white"/>
<defs>
<filter id="filter0_f_5975_2693" x="7.96865" y="20.8515" width="41.9299" height="19.094" filterUnits="userSpaceOnUse" color-interpolation-filters="sRGB">
<feFlood flood-opacity="0" result="BackgroundImageFix"/>
<feBlend mode="normal" in="SourceGraphic" in2="BackgroundImageFix" result="shape"/>
<feGaussianBlur stdDeviation="0.69927" result="effect1_foregroundBlur_5975_2693"/>
</filter>
<filter id="filter1_f_5975_2693" x="5.46179" y="21.663" width="40.2424" height="22.8421" filterUnits="userSpaceOnUse" color-interpolation-filters="sRGB">
<feFlood flood-opacity="0" result="BackgroundImageFix"/>
<feBlend mode="normal" in="SourceGraphic" in2="BackgroundImageFix" result="shape"/>
<feGaussianBlur stdDeviation="3.08844" result="effect1_foregroundBlur_5975_2693"/>
</filter>
<filter id="filter2_f_5975_2693" x="-17.9485" y="-19.3469" width="57.0493" height="56.0571" filterUnits="userSpaceOnUse" color-interpolation-filters="sRGB">
<feFlood flood-opacity="0" result="BackgroundImageFix"/>
<feBlend mode="normal" in="SourceGraphic" in2="BackgroundImageFix" result="shape"/>
<feGaussianBlur stdDeviation="6.08948" result="effect1_foregroundBlur_5975_2693"/>
</filter>
<filter id="filter3_f_5975_2693" x="2.15698" y="5.07105" width="57.0493" height="56.0571" filterUnits="userSpaceOnUse" color-interpolation-filters="sRGB">
<feFlood flood-opacity="0" result="BackgroundImageFix"/>
<feBlend mode="normal" in="SourceGraphic" in2="BackgroundImageFix" result="shape"/>
<feGaussianBlur stdDeviation="6.08948" result="effect1_foregroundBlur_5975_2693"/>
</filter>
<filter id="filter4_f_5975_2693" x="12.5551" y="18.0043" width="29.0148" height="24.3429" filterUnits="userSpaceOnUse" color-interpolation-filters="sRGB">
<feFlood flood-opacity="0" result="BackgroundImageFix"/>
<feBlend mode="normal" in="SourceGraphic" in2="BackgroundImageFix" result="shape"/>
<feGaussianBlur stdDeviation="1.45681" result="effect1_foregroundBlur_5975_2693"/>
</filter>
<filter id="filter5_f_5975_2693" x="4.38221" y="1.41541" width="12.4446" height="12.4426" filterUnits="userSpaceOnUse" color-interpolation-filters="sRGB">
<feFlood flood-opacity="0" result="BackgroundImageFix"/>
<feBlend mode="normal" in="SourceGraphic" in2="BackgroundImageFix" result="shape"/>
<feGaussianBlur stdDeviation="1.89386" result="effect1_foregroundBlur_5975_2693"/>
</filter>
<filter id="filter6_f_5975_2693" x="9.08722" y="6.11847" width="3.03649" height="3.03259" filterUnits="userSpaceOnUse" color-interpolation-filters="sRGB">
<feFlood flood-opacity="0" result="BackgroundImageFix"/>
<feBlend mode="normal" in="SourceGraphic" in2="BackgroundImageFix" result="shape"/>
<feGaussianBlur stdDeviation="0.116545" result="effect1_foregroundBlur_5975_2693"/>
</filter>
<filter id="filter7_f_5975_2693" x="1.89798" y="0.944851" width="40.2822" height="42.1767" filterUnits="userSpaceOnUse" color-interpolation-filters="sRGB">
<feFlood flood-opacity="0" result="BackgroundImageFix"/>
<feBlend mode="normal" in="SourceGraphic" in2="BackgroundImageFix" result="shape"/>
<feGaussianBlur stdDeviation="3.14672" result="effect1_foregroundBlur_5975_2693"/>
</filter>
<filter id="filter8_f_5975_2693" x="-4.48629" y="-5.94332" width="36.0683" height="40.9218" filterUnits="userSpaceOnUse" color-interpolation-filters="sRGB">
<feFlood flood-opacity="0" result="BackgroundImageFix"/>
<feBlend mode="normal" in="SourceGraphic" in2="BackgroundImageFix" result="shape"/>
<feGaussianBlur stdDeviation="1.95213" result="effect1_foregroundBlur_5975_2693"/>
</filter>
<filter id="filter9_f_5975_2693" x="28.1094" y="1.28319" width="15.5235" height="34.7188" filterUnits="userSpaceOnUse" color-interpolation-filters="sRGB">
<feFlood flood-opacity="0" result="BackgroundImageFix"/>
<feBlend mode="normal" in="SourceGraphic" in2="BackgroundImageFix" result="shape"/>
<feGaussianBlur stdDeviation="2.30176" result="effect1_foregroundBlur_5975_2693"/>
</filter>
<radialGradient id="paint0_radial_5975_2693" cx="0" cy="0" r="1" gradientUnits="userSpaceOnUse" gradientTransform="translate(18.2587 33.8553) rotate(-11.8288) scale(27.8342 85.8467)">
<stop stop-color="#093041"/>
<stop offset="1" stop-color="#4E6A76" stop-opacity="0"/>
</radialGradient>
<radialGradient id="paint1_radial_5975_2693" cx="0" cy="0" r="1" gradientUnits="userSpaceOnUse" gradientTransform="translate(17.2143 35.6243) rotate(-8.58869) scale(18.0524 54.6236)">
<stop stop-color="#000D12"/>
<stop offset="1" stop-color="#082430" stop-opacity="0"/>
</radialGradient>
<radialGradient id="paint2_radial_5975_2693" cx="0" cy="0" r="1" gradientUnits="userSpaceOnUse" gradientTransform="translate(18.0956 35.5549) rotate(-8.40541) scale(20.6654 64.9821)">
<stop stop-color="#228B22"/>
<stop offset="0.0001" stop-color="#082430" stop-opacity="0"/>
<stop offset="1" stop-color="#4AC63F" stop-opacity="0.81"/>
</radialGradient>
<radialGradient id="paint3_radial_5975_2693" cx="0" cy="0" r="1" gradientUnits="userSpaceOnUse" gradientTransform="translate(10.693 8.18729) rotate(49.1614) scale(36.6247 37.882)">
<stop stop-color="#B9EBFF"/>
<stop offset="0.156338" stop-color="#7DCCED"/>
<stop offset="0.519012" stop-color="#4290AF"/>
<stop offset="0.710329" stop-color="#156282"/>
<stop offset="1" stop-color="#1B7398"/>
</radialGradient>
<radialGradient id="paint4_radial_5975_2693" cx="0" cy="0" r="1" gradientUnits="userSpaceOnUse" gradientTransform="translate(10.693 8.18729) rotate(49.1614) scale(36.6247 37.882)">
<stop stop-color="#D8FFB9"/>
<stop offset="0.156338" stop-color="#A1FD92"/>
<stop offset="0.519012" stop-color="#4AC63F"/>
<stop offset="0.710329" stop-color="#4AC63F"/>
<stop offset="1" stop-color="#228B22"/>
</radialGradient>
</defs>
</svg>
