<svg width="95" height="95" viewBox="0 0 95 95" fill="none" xmlns="http://www.w3.org/2000/svg">
<g filter="url(#filter0_d_5547_2388)">
<g filter="url(#filter1_i_5547_2388)">
<circle cx="47.5" cy="31.5" r="23.5" fill="#4AC63F"/>
<circle cx="47.5" cy="31.5" r="23.5" fill="url(#paint0_radial_5547_2388)"/>
<circle cx="47.5" cy="31.5" r="23.5" fill="url(#paint1_radial_5547_2388)" fill-opacity="0.45" style="mix-blend-mode:lighten"/>
<circle cx="47.5" cy="31.5" r="23.5" fill="url(#paint2_radial_5547_2388)" fill-opacity="0.15" style="mix-blend-mode:lighten"/>
<circle cx="47.5" cy="31.5" r="23.5" fill="url(#paint3_radial_5547_2388)" fill-opacity="0.56" style="mix-blend-mode:multiply"/>
</g>
<path d="M58.5007 30.832H55.0007V24.9987C55.0007 24.6893 54.8777 24.3925 54.6589 24.1737C54.4402 23.9549 54.1434 23.832 53.834 23.832H50.334V21.4987C50.334 21.1893 50.2111 20.8925 49.9923 20.6737C49.7735 20.4549 49.4767 20.332 49.1673 20.332H42.1673C41.8579 20.332 41.5612 20.4549 41.3424 20.6737C41.1236 20.8925 41.0007 21.1893 41.0007 21.4987V30.832H37.5007C37.1912 30.832 36.8945 30.9549 36.6757 31.1737C36.4569 31.3925 36.334 31.6893 36.334 31.9987C36.334 32.3081 36.4569 32.6049 36.6757 32.8237C36.8945 33.0424 37.1912 33.1654 37.5007 33.1654H41.0007V42.4987C41.0007 42.8081 41.1236 43.1049 41.3424 43.3237C41.5612 43.5425 41.8579 43.6654 42.1673 43.6654H49.1673C49.4767 43.6654 49.7735 43.5425 49.9923 43.3237C50.2111 43.1049 50.334 42.8081 50.334 42.4987V40.1654H53.834C54.1434 40.1654 54.4402 40.0425 54.6589 39.8237C54.8777 39.6049 55.0007 39.3081 55.0007 38.9987V33.1654H58.5007C58.8101 33.1654 59.1068 33.0424 59.3256 32.8237C59.5444 32.6049 59.6673 32.3081 59.6673 31.9987C59.6673 31.6893 59.5444 31.3925 59.3256 31.1737C59.1068 30.9549 58.8101 30.832 58.5007 30.832ZM48.0007 41.332H43.334V22.6654H48.0007V41.332ZM52.6673 37.832H50.334V26.1654H52.6673V37.832Z" fill="white"/>
</g>
<defs>
<filter id="filter0_d_5547_2388" x="0" y="0" width="95" height="95" filterUnits="userSpaceOnUse" color-interpolation-filters="sRGB">
<feFlood flood-opacity="0" result="BackgroundImageFix"/>
<feColorMatrix in="SourceAlpha" type="matrix" values="0 0 0 0 0 0 0 0 0 0 0 0 0 0 0 0 0 0 127 0" result="hardAlpha"/>
<feMorphology radius="8" operator="erode" in="SourceAlpha" result="effect1_dropShadow_5547_2388"/>
<feOffset dy="16"/>
<feGaussianBlur stdDeviation="16"/>
<feComposite in2="hardAlpha" operator="out"/>
<feColorMatrix type="matrix" values="0 0 0 0 0.290196 0 0 0 0 0.776471 0 0 0 0 0.247059 0 0 0 0.25 0"/>
<feBlend mode="normal" in2="BackgroundImageFix" result="effect1_dropShadow_5547_2388"/>
<feBlend mode="normal" in="SourceGraphic" in2="effect1_dropShadow_5547_2388" result="shape"/>
</filter>
<filter id="filter1_i_5547_2388" x="24" y="6.50046" width="47.9997" height="48.4995" filterUnits="userSpaceOnUse" color-interpolation-filters="sRGB">
<feFlood flood-opacity="0" result="BackgroundImageFix"/>
<feBlend mode="normal" in="SourceGraphic" in2="BackgroundImageFix" result="shape"/>
<feColorMatrix in="SourceAlpha" type="matrix" values="0 0 0 0 0 0 0 0 0 0 0 0 0 0 0 0 0 0 127 0" result="hardAlpha"/>
<feOffset dx="0.999692" dy="-1.49954"/>
<feGaussianBlur stdDeviation="3.99877"/>
<feComposite in2="hardAlpha" operator="arithmetic" k2="-1" k3="1"/>
<feColorMatrix type="matrix" values="0 0 0 0 0 0 0 0 0 0 0 0 0 0 0 0 0 0 0.25 0"/>
<feBlend mode="normal" in2="shape" result="effect1_innerShadow_5547_2388"/>
</filter>
<radialGradient id="paint0_radial_5547_2388" cx="0" cy="0" r="1" gradientUnits="userSpaceOnUse" gradientTransform="translate(54.2748 22.1847) rotate(123.232) scale(22.0201 22.0201)">
<stop stop-color="#4AC63F"/>
<stop offset="1" stop-color="#228B22"/>
</radialGradient>
<radialGradient id="paint1_radial_5547_2388" cx="0" cy="0" r="1" gradientUnits="userSpaceOnUse" gradientTransform="translate(54.4865 20.7027) rotate(123.69) scale(19.8468)">
<stop stop-color="white"/>
<stop offset="1" stop-color="white" stop-opacity="0"/>
</radialGradient>
<radialGradient id="paint2_radial_5547_2388" cx="0" cy="0" r="1" gradientUnits="userSpaceOnUse" gradientTransform="translate(49.6171 25.5721) rotate(111.949) scale(30.5863)">
<stop offset="0.596475" stop-color="white" stop-opacity="0"/>
<stop offset="0.742517" stop-color="white"/>
<stop offset="0.832316" stop-color="white"/>
<stop offset="1" stop-color="white" stop-opacity="0"/>
</radialGradient>
<radialGradient id="paint3_radial_5547_2388" cx="0" cy="0" r="1" gradientUnits="userSpaceOnUse" gradientTransform="translate(51.9459 18.1622) rotate(106.798) scale(35.1626)">
<stop offset="0.238216" stop-color="#219125" stop-opacity="0"/>
<stop offset="0.640216" stop-color="#4AC63F" stop-opacity="0.81"/>
<stop offset="0.791876" stop-color="#3A8B1D" stop-opacity="0.99"/>
<stop offset="0.868482" stop-color="#258A1D" stop-opacity="0.81"/>
<stop offset="1" stop-color="#4AC63F" stop-opacity="0.6"/>
</radialGradient>
</defs>
</svg>
