<svg width="30" height="31" viewBox="0 0 30 31" fill="none" xmlns="http://www.w3.org/2000/svg">
<g clip-path="url(#clip0_5419_36211)">
<path d="M7.24717 4.98655C7.35582 4.94152 7.44868 4.86529 7.51401 4.7675C7.57934 4.66971 7.61421 4.55474 7.61421 4.43713C7.61421 4.31952 7.57934 4.20456 7.51401 4.10676C7.44868 4.00897 7.35582 3.93274 7.24717 3.88772C6.6111 3.62434 6.47516 3.4884 6.21178 2.85233C6.16696 2.74346 6.09081 2.65037 5.99299 2.58486C5.89517 2.51935 5.7801 2.48438 5.66237 2.48438C5.54464 2.48438 5.42956 2.51935 5.33174 2.58486C5.23393 2.65037 5.15777 2.74346 5.11295 2.85233C4.84901 3.4884 4.71647 3.62434 4.077 3.88772C3.96835 3.93274 3.87549 4.00897 3.81016 4.10676C3.74483 4.20456 3.70996 4.31952 3.70996 4.43713C3.70996 4.55474 3.74483 4.66971 3.81016 4.7675C3.87549 4.86529 3.96835 4.94152 4.077 4.98655C4.70004 5.24483 4.85467 5.39946 5.11295 6.0225C5.15798 6.13115 5.23421 6.22401 5.332 6.28934C5.42979 6.35467 5.54476 6.38954 5.66237 6.38954C5.77997 6.38954 5.89494 6.35467 5.99273 6.28934C6.09053 6.22401 6.16675 6.13115 6.21178 6.0225C6.4695 5.39946 6.62469 5.24483 7.24717 4.98655ZM5.66123 5.58127C5.38936 4.98428 5.11409 4.70901 4.51766 4.43713C5.12201 4.16412 5.38879 3.89621 5.66237 3.29356C5.93537 3.89621 6.20272 4.16412 6.80594 4.43713C6.21178 4.70901 5.93368 4.98428 5.66237 5.58127H5.66123Z" fill="#4AC63F"/>
<path d="M27.1407 16.379C26.5047 16.115 26.3687 15.9797 26.1053 15.3436C26.0603 15.235 25.9841 15.1421 25.8863 15.0768C25.7885 15.0114 25.6735 14.9766 25.5559 14.9766C25.4383 14.9766 25.3233 15.0114 25.2256 15.0768C25.1278 15.1421 25.0515 15.235 25.0065 15.3436C24.7426 15.9802 24.6072 16.1156 23.9706 16.3796C23.8619 16.4246 23.769 16.5008 23.7037 16.5986C23.6384 16.6964 23.6035 16.8114 23.6035 16.929C23.6035 17.0466 23.6384 17.1615 23.7037 17.2593C23.769 17.3571 23.8619 17.4334 23.9706 17.4784C24.5936 17.7367 24.7482 17.8913 25.0065 18.5138C25.0515 18.6224 25.1278 18.7153 25.2256 18.7806C25.3233 18.8459 25.4383 18.8808 25.5559 18.8808C25.6735 18.8808 25.7885 18.8459 25.8863 18.7806C25.9841 18.7153 26.0603 18.6224 26.1053 18.5138C26.3631 17.8907 26.5182 17.7361 27.1407 17.4778C27.2496 17.433 27.3427 17.3568 27.4082 17.259C27.4737 17.1612 27.5087 17.0461 27.5087 16.9284C27.5087 16.8107 27.4737 16.6956 27.4082 16.5978C27.3427 16.5 27.2496 16.4238 27.1407 16.379ZM25.5548 18.072C25.2829 17.4755 25.0076 17.2003 24.4112 16.9284C25.0144 16.6554 25.2812 16.388 25.5548 15.7848C25.8278 16.388 26.0951 16.6554 26.6984 16.9284C26.1031 17.2031 25.8272 17.4755 25.5559 18.072H25.5548Z" fill="#4AC63F"/>
<path d="M22.9047 21.1377H20.4289C20.3238 21.1377 20.2229 21.1795 20.1486 21.2539C20.0742 21.3282 20.0324 21.4291 20.0324 21.5342V22.2745L18.3179 22.7276L14.3344 21.0222C14.3219 21.0171 14.3095 21.0126 14.2964 21.0086C14.0476 20.9304 13.7809 20.9294 13.5315 21.0058C13.282 21.0822 13.0616 21.2323 12.8992 21.4365C12.7368 21.6406 12.6401 21.8892 12.6218 22.1494C12.6035 22.4096 12.6644 22.6693 12.7966 22.8942H12.57C12.1987 22.8947 11.8287 22.8496 11.4684 22.7599L8.55026 22.0315C8.10665 21.9212 7.63799 21.9776 7.23322 22.19C6.82844 22.4024 6.51573 22.756 6.35441 23.1837C6.1931 23.6114 6.19441 24.0835 6.35811 24.5103C6.5218 24.9371 6.83648 25.2889 7.24243 25.4991L10.2336 27.0425C10.6644 27.265 11.1421 27.3815 11.627 27.3824H20.0324V27.8225C20.0324 27.9276 20.0742 28.0285 20.1486 28.1028C20.2229 28.1772 20.3238 28.2189 20.4289 28.2189H22.9024C23.0076 28.2189 23.1084 28.1772 23.1828 28.1028C23.2571 28.0285 23.2989 27.9276 23.2989 27.8225V21.5354C23.2992 21.4304 23.2579 21.3296 23.184 21.2551C23.1101 21.1805 23.0096 21.1383 22.9047 21.1377ZM20.0324 26.5877H11.627C11.2688 26.5874 10.9158 26.5018 10.5973 26.3379L7.60606 24.7933C7.37261 24.6725 7.19164 24.4702 7.09752 24.2247C7.00339 23.9793 7.00265 23.7079 7.09543 23.4619C7.18822 23.216 7.36808 23.0127 7.60086 22.8906C7.83365 22.7685 8.10317 22.7361 8.35825 22.7996L11.2764 23.5285C11.699 23.6339 12.1328 23.6872 12.5683 23.6871H13.9277L14.7467 24.0836C14.7998 24.1091 14.8578 24.1226 14.9167 24.1233C15.0065 24.1235 15.0938 24.0932 15.1641 24.0374C15.2345 23.9816 15.2839 23.9035 15.3041 23.816C15.3243 23.7284 15.3141 23.6366 15.2754 23.5556C15.2366 23.4746 15.1714 23.4091 15.0906 23.3699L13.6876 22.6903C13.5759 22.6356 13.4887 22.5412 13.4429 22.4256C13.3971 22.3101 13.3961 22.1816 13.44 22.0653C13.4839 21.949 13.5695 21.8532 13.6803 21.7967C13.791 21.7402 13.9188 21.727 14.0387 21.7597L18.1293 23.5115C18.2106 23.5463 18.3011 23.5528 18.3865 23.5302L20.029 23.0941L20.0324 26.5877ZM22.5059 27.4243H20.8254V21.9301H22.5059V27.4243Z" fill="#4AC63F"/>
<path d="M7.0557 11.2296C7.05272 12.2906 7.25882 13.3418 7.66222 14.3231C8.06562 15.3045 8.65842 16.1967 9.40675 16.9489C10.1551 17.7011 11.0443 18.2984 12.0235 18.7068C13.0028 19.1153 14.0529 19.3267 15.114 19.3292H15.136C16.2151 19.3328 17.2839 19.1185 18.2781 18.699C19.2723 18.2795 20.1715 17.6635 20.9219 16.888C21.8776 15.9082 22.5689 14.7019 22.9309 13.3819L22.9819 13.3604L22.953 13.2947C23.2648 12.1015 23.2992 10.8527 23.0538 9.64415C22.8084 8.43556 22.2896 7.29918 21.5371 6.32207C20.7846 5.34497 19.8185 4.55306 18.7127 4.00702C17.6069 3.46099 16.3908 3.17531 15.1576 3.17188C15.0216 3.17188 14.888 3.17187 14.7611 3.18037C13.9584 3.21641 13.1657 3.37259 12.4094 3.64369C11.2667 4.05581 10.2309 4.71869 9.37796 5.58363C7.89335 7.08821 7.05935 9.11586 7.0557 11.2296ZM8.79173 14.8393C7.9073 13.272 7.6324 11.4334 8.01972 9.67592C8.47284 10.5765 8.89085 11.587 8.83874 11.9761L8.82345 12.0894L8.88009 12.1891C8.90841 12.2378 9.57111 13.3695 11.0613 13.8214C11.118 14.031 11.0296 14.6977 10.8648 15.2941L10.8223 15.4482L10.9141 15.579C10.9373 15.6124 11.472 16.372 12.116 16.743C12.189 16.8823 12.3119 17.2618 11.8741 17.7659C10.5793 17.1174 9.50647 16.0987 8.79173 14.8393ZM21.1428 7.12596C21.9829 8.34459 22.4294 9.79136 22.4223 11.2715C22.4216 11.5488 22.4051 11.8258 22.373 12.1013C22.1787 11.7756 22.087 11.7433 22.0111 11.7178C21.8763 11.6719 21.1989 11.3547 20.6302 11.0642C20.5373 11.0166 20.4812 10.9883 20.6557 10.5499C20.6974 10.4547 20.7304 10.3559 20.7542 10.2548C20.8109 9.97158 20.6121 9.651 20.3827 9.2817C20.2881 9.12934 20.1301 8.87445 20.1159 8.79006C20.0275 8.24687 19.2753 7.99029 18.479 7.71955C17.3462 7.3327 16.4966 6.94018 15.9675 6.55219C15.9361 6.5312 15.9085 6.50495 15.886 6.47459C15.9109 6.3732 16.1771 6.1557 16.3068 6.05035C16.5759 5.83059 16.8081 5.64084 16.8081 5.3633C16.8109 5.2251 17.0103 4.72666 17.2238 4.27127C18.8172 4.74867 20.1998 5.75579 21.1428 7.12596ZM9.9421 6.13984C10.7112 5.35984 11.6452 4.762 12.6756 4.39021C13.3579 4.14554 14.0732 4.00482 14.7973 3.97277C14.9061 3.96711 15.0188 3.96484 15.1326 3.96484H15.1553C15.6239 3.96629 16.0913 4.01295 16.5509 4.10418C16.3742 4.48877 16.1607 5.00193 16.1318 5.2993C16.0518 5.38027 15.9667 5.45595 15.8769 5.52586C15.5727 5.77395 15.1972 6.0832 15.2051 6.49895C15.2114 6.72947 15.3332 6.93281 15.5671 7.1033C16.1618 7.53773 17.0431 7.95291 18.2603 8.36525C18.6155 8.4859 19.3529 8.73738 19.447 8.91014C19.4849 9.1265 19.6333 9.36609 19.8055 9.6425C19.9001 9.79543 20.0553 10.0458 20.0813 10.1483C20.07 10.1868 20.0451 10.2491 20.0247 10.3007C19.9041 10.6043 19.6214 11.314 20.3215 11.6719C20.7882 11.9104 21.4492 12.2264 21.7194 12.3358C21.8072 12.4581 21.9862 12.8132 22.1618 13.1944C21.9399 13.9992 21.5806 14.7595 21.0997 15.4419C20.8754 15.7601 20.6263 16.06 20.3549 16.3391C19.6782 17.0386 18.8672 17.5942 17.9705 17.9726C17.0738 18.3509 16.1099 18.5442 15.1366 18.5407H15.1162C14.2276 18.538 13.347 18.3723 12.5181 18.0519C13.2278 17.0828 12.6314 16.2898 12.6263 16.2802L12.5799 16.2207L12.513 16.1862C12.1165 15.9829 11.7331 15.5309 11.5637 15.3134C11.6062 15.1389 11.6719 14.8483 11.715 14.5481C11.7608 14.2208 11.8849 13.3525 11.3185 13.1888C10.5959 12.9816 9.96364 12.5381 9.52296 11.9291C9.52693 11.0653 8.67845 9.43066 8.29613 8.73795C8.30632 8.70963 8.31652 8.68131 8.32728 8.65242C8.68524 7.71185 9.2352 6.85615 9.9421 6.13984Z" fill="#4AC63F"/>
<path d="M12.9513 12.7378L14.5939 14.0309C14.7472 14.1517 14.9367 14.2174 15.1319 14.2174C15.3272 14.2174 15.5167 14.1517 15.67 14.0309L17.3126 12.7361C17.5426 12.5562 17.7286 12.3261 17.8562 12.0635C17.9838 11.8008 18.0497 11.5124 18.0489 11.2204V10.9434C18.0481 10.6057 17.9531 10.2748 17.7746 9.98801C17.5961 9.70123 17.3412 9.46987 17.0386 9.31992C16.7359 9.16996 16.3974 9.10735 16.0611 9.1391C15.7248 9.17085 15.404 9.29571 15.1348 9.49967C14.8654 9.29481 14.5442 9.16924 14.2073 9.13711C13.8704 9.10499 13.5313 9.16758 13.228 9.31784C12.9248 9.4681 12.6696 9.70005 12.4911 9.98757C12.3126 10.2751 12.2179 10.6067 12.2178 10.9451V11.2221C12.2166 11.5139 12.2821 11.8022 12.4092 12.0648C12.5363 12.3275 12.7217 12.5577 12.9513 12.7378ZM13.0079 10.9451C13.0078 10.7338 13.0732 10.5276 13.195 10.3549C13.3168 10.1822 13.4891 10.0514 13.6882 9.98049C13.8873 9.90961 14.1035 9.90211 14.307 9.95902C14.5105 10.0159 14.6915 10.1344 14.825 10.2983C14.8621 10.3438 14.909 10.3805 14.9621 10.4056C15.0152 10.4308 15.0732 10.4439 15.1319 10.4439C15.1907 10.4439 15.2487 10.4308 15.3018 10.4056C15.3549 10.3805 15.4018 10.3438 15.4389 10.2983C15.5724 10.1344 15.7534 10.0159 15.9569 9.95902C16.1604 9.90211 16.3766 9.90961 16.5757 9.98049C16.7748 10.0514 16.9471 10.1822 17.0689 10.3549C17.1907 10.5276 17.2561 10.7338 17.256 10.9451V11.2221C17.2563 11.3941 17.2175 11.564 17.1424 11.7187C17.0673 11.8735 16.958 12.0091 16.8227 12.1153L15.1829 13.4079C15.1692 13.4186 15.1522 13.4245 15.1348 13.4245C15.1173 13.4245 15.1004 13.4186 15.0866 13.4079L13.4441 12.1131C13.3088 12.0069 13.1994 11.8712 13.1243 11.7165C13.0493 11.5617 13.0104 11.3919 13.0108 11.2198L13.0079 10.9451Z" fill="#4AC63F"/>
</g>
<defs>
<clipPath id="clip0_5419_36211">
<rect width="30" height="30" fill="white" transform="translate(0 0.5)"/>
</clipPath>
</defs>
</svg>
