<svg width="30" height="31" viewBox="0 0 30 31" fill="none" xmlns="http://www.w3.org/2000/svg">
<path d="M21.3146 13.8598L22.5769 5.61422C22.6079 5.37961 22.5495 5.17641 22.4014 5.00438C22.2532 4.83234 22.0697 4.74633 21.8508 4.74633H8.58473V4.74609H8.58332C8.36465 4.74609 8.18137 4.83211 8.03277 5.00414C7.88418 5.17617 7.82582 5.37937 7.85723 5.61398L9.1198 13.8614C8.22262 15.0994 7.75504 16.5609 7.71777 18.2463C7.76465 20.3714 8.4952 22.1409 9.90918 23.5549C11.3232 24.9689 13.0927 25.6992 15.2178 25.7463C17.3429 25.6995 19.1124 24.9689 20.5264 23.5549C21.9404 22.1407 22.6707 20.3714 22.7178 18.2463C22.6805 16.5602 22.2125 15.0982 21.3146 13.8598ZM18.218 6.24633H20.9607L20.0464 12.1999C19.56 11.9505 19.0915 11.7375 18.6415 11.5605C18.5028 11.4902 18.3614 11.4246 18.2178 11.3634V6.24633H18.218ZM16.7178 6.24633V10.9048C16.4089 10.8443 16.0911 10.8009 15.7646 10.7747C15.5754 10.7559 15.3931 10.7466 15.2178 10.7466C14.9707 10.7466 14.7235 10.762 14.4762 10.7925C14.2218 10.8184 13.9688 10.8559 13.7178 10.9048V6.24633H16.7178ZM12.2178 6.24633H12.2187V11.3627C12.0729 11.4251 11.9295 11.4916 11.7884 11.5634C11.34 11.7401 10.8739 11.9524 10.3901 12.1999L9.47582 6.24633H12.2178ZM19.4597 22.4883C18.3347 23.6133 16.9207 24.1992 15.2178 24.2463C13.5148 24.1992 12.1008 23.6133 10.9758 22.4883C9.85082 21.3633 9.26488 19.9493 9.21777 18.2463C9.26488 16.5434 9.85082 15.1294 10.9758 14.0044C11.4368 13.5434 11.9464 13.173 12.5044 12.8932C13.4028 12.5407 14.172 12.3326 14.8116 12.2686C14.9304 12.259 15.0507 12.2522 15.1723 12.248C15.1871 12.2477 15.2023 12.2473 15.2171 12.2473C15.2325 12.2473 15.2487 12.248 15.2644 12.2482C15.3842 12.2522 15.5023 12.259 15.619 12.2684C16.2612 12.3319 17.0339 12.5414 17.9372 12.8963C18.4929 13.1759 19.0004 13.5452 19.4597 14.0046C20.5847 15.1296 21.1707 16.5436 21.2178 18.2466C21.1707 19.9493 20.5847 21.3633 19.4597 22.4883Z" fill="#4AC63F"/>
<path d="M15.9678 14.4961H12.9678V15.9961H14.4678V20.4961H12.9678V21.9961H17.4678V20.4961H15.9678V14.4961Z" fill="#4AC63F"/>
</svg>
