<svg width="30" height="31" viewBox="0 0 30 31" fill="none" xmlns="http://www.w3.org/2000/svg">
<g clip-path="url(#clip0_5419_36204)">
<path d="M18.4387 15.1519L20.4336 13.2814C21.6166 12.1723 22.2876 10.6235 22.2876 9.00208V6.30419C22.2881 5.67072 22.0284 5.08928 21.613 4.67509C21.1984 4.25917 20.617 3.99958 19.9835 4H10.0162C9.38263 3.99958 8.80087 4.25917 8.38659 4.67505C7.97076 5.08928 7.71112 5.67067 7.71192 6.30414V9.00198C7.71192 10.6234 8.38298 12.1722 9.56592 13.2813L11.5604 15.151C11.6703 15.2544 11.7329 15.3981 11.7329 15.5491V16.4507C11.7329 16.6017 11.6703 16.745 11.5609 16.848L9.56596 18.7186C8.38303 19.8273 7.71196 21.3764 7.71196 22.9979V25.6957C7.71117 26.3292 7.97081 26.9106 8.38663 27.3249C8.80092 27.7407 9.38268 28.0003 10.0162 27.9999H19.9835C20.617 28.0003 21.1984 27.7407 21.613 27.3249C22.0284 26.9106 22.2881 26.3292 22.2876 25.6957V22.998C22.2876 21.3765 21.6166 19.8273 20.4336 18.7187L18.4391 16.8485C18.3293 16.7451 18.2667 16.6018 18.2667 16.4508V15.5492C18.2667 15.3982 18.3293 15.2545 18.4387 15.1519ZM20.5285 25.6958C20.5281 25.8492 20.4688 25.9797 20.3687 26.081C20.2673 26.1812 20.1369 26.2405 19.9835 26.2409H10.0162C9.86273 26.2405 9.7319 26.1812 9.63056 26.081C9.53043 25.9797 9.47151 25.8492 9.47109 25.6958V22.998C9.47109 21.863 9.94106 20.7782 10.7691 20.0022L12.7636 18.1316C13.2284 17.6964 13.492 17.0875 13.492 16.4508V15.5492C13.492 14.9121 13.2283 14.3033 12.7632 13.868L10.7691 11.9979C9.94096 11.2219 9.47104 10.1374 9.47104 9.00208V6.30419C9.47146 6.15077 9.53038 6.02036 9.63051 5.91859C9.73185 5.81889 9.86268 5.7595 10.0161 5.75913H19.9834C20.1368 5.7595 20.2672 5.81884 20.3686 5.91859C20.4687 6.02036 20.5281 6.15072 20.5284 6.30419V9.00203C20.5284 10.1373 20.0585 11.2218 19.2304 11.9978L17.2359 13.8679C16.7712 14.3032 16.5075 14.912 16.5075 15.5492V16.4508C16.5075 17.0875 16.7712 17.6963 17.2363 18.1323L19.2305 20.0017C20.0586 20.7781 20.5285 21.863 20.5285 22.9979V25.6958H20.5285Z" fill="#4AC63F"/>
</g>
<defs>
<clipPath id="clip0_5419_36204">
<rect width="24" height="24" fill="white" transform="translate(3 4)"/>
</clipPath>
</defs>
</svg>
