<svg width="30" height="31" viewBox="0 0 30 31" fill="none" xmlns="http://www.w3.org/2000/svg">
<path d="M8.36056 17.6484L6.15056 21.3784C6.05557 21.543 6.00565 21.7296 6.00586 21.9196C6.00607 22.1096 6.05638 22.2962 6.15173 22.4605C6.24707 22.6248 6.38408 22.7611 6.54891 22.8555C6.71375 22.95 6.90058 22.9993 7.09056 22.9984H14.0006" stroke="#4AC63F" stroke-width="2" stroke-linecap="round" stroke-linejoin="round"/>
<path d="M19 22.9986L22.93 23.0486C23.1195 23.049 23.3057 22.999 23.4695 22.9039C23.6334 22.8087 23.769 22.6718 23.8626 22.507C23.9562 22.3422 24.0043 22.1556 24.0021 21.9661C23.9999 21.7766 23.9474 21.5911 23.85 21.4286L20.47 15.5586" stroke="#4AC63F" stroke-width="2" stroke-linecap="round" stroke-linejoin="round"/>
<path d="M18.0899 11.3295L15.9999 7.53947C15.9051 7.37543 15.7688 7.23923 15.6047 7.14454C15.4405 7.04985 15.2544 7 15.0649 7C14.8754 7 14.6893 7.04985 14.5252 7.14454C14.3611 7.23923 14.2248 7.37543 14.1299 7.53947L10.6699 13.5395" stroke="#4AC63F" stroke-width="2" stroke-linecap="round" stroke-linejoin="round"/>
<path d="M12.3 21L14 23L12 25" stroke="#4AC63F" stroke-width="2" stroke-linecap="round" stroke-linejoin="round"/>
<path d="M19.5195 17.9192L20.3995 15.4492L23.1295 16.1792" stroke="#4AC63F" stroke-width="2" stroke-linecap="round" stroke-linejoin="round"/>
<path d="M13.2202 13.0608L10.6402 13.5308L9.91016 10.8008" stroke="#4AC63F" stroke-width="2" stroke-linecap="round" stroke-linejoin="round"/>
</svg>
