<svg width="50" height="46" viewBox="0 0 50 46" fill="none" xmlns="http://www.w3.org/2000/svg">
<g filter="url(#filter0_f_5265_3121)">
<ellipse cx="28.9328" cy="31.0899" rx="20.0115" ry="6.98038" transform="rotate(-12.9443 28.9328 31.0899)" fill="url(#paint0_radial_5265_3121)"/>
</g>
<ellipse cx="25.0097" cy="33.8455" rx="14.615" ry="4.98816" transform="rotate(-7.07465 25.0097 33.8455)" fill="url(#paint1_radial_5265_3121)"/>
<g filter="url(#filter1_f_5265_3121)">
<ellipse cx="25.5828" cy="33.776" rx="14.0373" ry="4.98816" transform="rotate(-7.07465 25.5828 33.776)" fill="url(#paint2_radial_5265_3121)"/>
</g>
<mask id="mask0_5265_3121" style="mask-type:alpha" maskUnits="userSpaceOnUse" x="0" y="0" width="39" height="39">
<circle cx="19.1134" cy="19.8048" r="19.1134" fill="url(#paint3_radial_5265_3121)"/>
</mask>
<g mask="url(#mask0_5265_3121)">
<circle cx="19.1134" cy="19.8048" r="19.1134" fill="url(#paint4_radial_5265_3121)"/>
<g filter="url(#filter2_f_5265_3121)">
<ellipse cx="10.5769" cy="9.37356" rx="16.3454" ry="15.8501" fill="#D7D96A" fill-opacity="0.13"/>
</g>
<g filter="url(#filter3_f_5265_3121)">
<ellipse cx="30.6804" cy="33.7915" rx="16.3454" ry="15.8501" fill="#1B2372" fill-opacity="0.43"/>
</g>
<g filter="url(#filter4_f_5265_3121)">
<path d="M38.402 21.642C38.5762 22.2409 40.4539 31.1645 30.6809 38.6575C26.7988 41.6339 15.646 39.2564 15.4718 38.6575C15.2976 38.0586 24.5331 36.9677 29.6029 33.7335C37.4226 28.745 38.2278 21.0431 38.402 21.642Z" fill="#51779F" fill-opacity="0.61"/>
</g>
<g filter="url(#filter5_f_5265_3121)">
<ellipse cx="10.6058" cy="8.32674" rx="1.48322" ry="3.10549" transform="rotate(45 10.6058 8.32674)" fill="#E3F7FF"/>
</g>
<g filter="url(#filter6_f_5265_3121)">
<ellipse cx="10.6056" cy="8.32562" rx="0.782743" ry="1.63887" transform="rotate(45 10.6056 8.32562)" fill="#E2F7FF"/>
</g>
<g filter="url(#filter7_f_5265_3121)">
<path d="M35.0221 8.03516C36.6052 16.6789 32.0386 35.8894 8.2168 36.9383" stroke="#010E1B" stroke-width="1.16545"/>
</g>
<g filter="url(#filter8_f_5265_3121)">
<path d="M27.4893 0.267508C11.4644 -5.21011 -7.1828 11.9511 2.81094 31.5016" stroke="#FCFFDD" stroke-width="1.16545"/>
</g>
<g filter="url(#filter9_f_5265_3121)">
<path d="M33.0986 7.01562C38.6345 11.9105 41.2276 20.4183 34.1184 31.7814" stroke="#A1A0DB" stroke-opacity="0.65" stroke-width="1.16545"/>
</g>
</g>
<g clip-path="url(#clip0_5265_3121)">
<path d="M21.8979 14.6147C21.9033 14.5911 21.9124 14.5488 21.9124 14.5237V12.587C21.9124 12.4085 21.7681 12.2642 21.5896 12.2642C21.4111 12.2642 21.2668 12.4085 21.2668 12.587V14.0385C20.5551 13.5246 19.6845 13.2325 18.7427 13.2325C18.7333 13.2325 18.7236 13.2325 18.7146 13.2325C18.0048 13.2325 17.3376 13.402 16.7479 13.7099V12.2642C16.7479 12.0857 16.6033 11.9414 16.4251 11.9414C16.2469 11.9414 16.1023 12.0857 16.1023 12.2642V14.1253C15.072 14.9229 14.408 16.2102 14.4171 17.6107C14.4323 19.9861 16.3696 21.9476 18.7417 21.9476C18.7511 21.9476 18.7607 21.9476 18.7698 21.9476C21.1548 21.9476 23.0828 19.9399 23.0673 17.5549C23.0602 16.4252 22.6148 15.3813 21.8979 14.6147ZM18.7656 21.3021C18.7575 21.3021 18.7498 21.3021 18.7417 21.3021C16.7237 21.3021 15.0756 19.6346 15.0626 17.6136C15.0494 15.585 16.6898 13.8781 18.7185 13.8781C18.7265 13.8781 18.7343 13.8781 18.7424 13.8781C20.7604 13.8781 22.4085 15.5456 22.4214 17.5665C22.4346 19.5952 20.7946 21.3021 18.7656 21.3021Z" fill="white"/>
<path d="M16.4234 10C16.2452 10 16.1006 10.1443 16.1006 10.3228V10.9683C16.1006 11.1468 16.2452 11.2911 16.4234 11.2911C16.6015 11.2911 16.7461 11.1468 16.7461 10.9683V10.3228C16.7461 10.1443 16.6015 10 16.4234 10Z" fill="white"/>
<path d="M21.5894 10.3242C21.4109 10.3242 21.2666 10.4685 21.2666 10.647V11.2926C21.2666 11.4711 21.4109 11.6153 21.5894 11.6153C21.7679 11.6153 21.9122 11.4711 21.9122 11.2926V10.647C21.9122 10.4685 21.7679 10.3242 21.5894 10.3242Z" fill="white"/>
<path d="M12.8736 17.4297C12.6954 17.4297 12.5508 17.574 12.5508 17.7525V20.3347C12.5508 20.5132 12.6954 20.6575 12.8736 20.6575C13.0517 20.6575 13.1963 20.5132 13.1963 20.3347V17.7525C13.1963 17.574 13.0517 17.4297 12.8736 17.4297Z" fill="white"/>
<path d="M12.8736 15.4844C12.6954 15.4844 12.5508 15.6287 12.5508 15.8072V16.4527C12.5508 16.6312 12.6954 16.7755 12.8736 16.7755C13.0517 16.7755 13.1963 16.6312 13.1963 16.4527V15.8072C13.1963 15.6287 13.0517 15.4844 12.8736 15.4844Z" fill="white"/>
<path d="M25.1382 14.5195C24.9597 14.5195 24.8154 14.6638 24.8154 14.8423V17.4246C24.8154 17.6031 24.9597 17.7473 25.1382 17.7473C25.3167 17.7473 25.461 17.6031 25.461 17.4246V14.8423C25.461 14.6638 25.3167 14.5195 25.1382 14.5195Z" fill="white"/>
<path d="M25.1382 12.582C24.9597 12.582 24.8154 12.7263 24.8154 12.9048V13.5504C24.8154 13.7289 24.9597 13.8732 25.1382 13.8732C25.3167 13.8732 25.461 13.7289 25.461 13.5504V12.9048C25.461 12.7263 25.3167 12.582 25.1382 12.582Z" fill="white"/>
<path d="M19.9715 18.3798L19.9692 18.0574C19.9676 17.7985 19.8656 17.5561 19.6813 17.3744C19.497 17.193 19.2433 17.0884 18.9948 17.0971L18.3492 17.1032C18.3485 17.1032 18.3479 17.1032 18.3473 17.1032C18.1704 17.1032 18.0254 16.9576 18.0245 16.7804L18.0225 16.457C18.0216 16.2788 18.1652 16.1326 18.3434 16.1316L18.6584 16.1294C18.6687 16.13 18.6778 16.1349 18.6888 16.1349C18.6894 16.1349 18.69 16.1349 18.6907 16.1349C18.7017 16.1349 18.711 16.1294 18.7217 16.1284L19.6339 16.1226C19.8124 16.1213 19.956 15.9822 19.9547 15.804C19.9534 15.6262 19.8094 15.4893 19.6319 15.4893C19.6313 15.4893 19.6306 15.4893 19.63 15.4893L19.0093 15.4871L19.0073 15.1675C19.0064 14.99 18.8618 14.8438 18.6846 14.8438C18.6839 14.8438 18.6833 14.8438 18.6826 14.8438C18.5044 14.845 18.3608 14.9926 18.3618 15.1707L18.3637 15.4893H18.3392C17.8053 15.4893 17.3737 15.9276 17.377 16.4619L17.3789 16.7856C17.3825 17.3175 17.8163 17.7488 18.3476 17.7488C18.3495 17.7488 18.3518 17.7488 18.3537 17.7488H18.9993C18.9999 17.7488 19.0006 17.7488 19.0012 17.7488C19.0864 17.7488 19.1668 17.7778 19.2281 17.8375C19.2891 17.8982 19.3233 17.977 19.324 18.0635L19.3262 18.385C19.3275 18.5632 19.1836 18.7084 19.0054 18.7094L17.7143 18.7174C17.5361 18.7187 17.3925 18.864 17.3934 19.0422C17.3944 19.2197 17.539 19.3627 17.7162 19.3627C17.7169 19.3627 17.7175 19.3627 17.7182 19.3627L18.3637 19.3585L18.3656 19.6877C18.3666 19.8653 18.5112 20.0082 18.6884 20.0082C18.6891 20.0082 18.6897 20.0082 18.6904 20.0082C18.8685 20.007 19.0125 19.8617 19.0112 19.6832L19.0093 19.3543C19.5432 19.3507 19.9747 18.914 19.9715 18.3798Z" fill="white"/>
<path d="M16.4253 18.0752C16.6036 18.0752 16.7481 17.9307 16.7481 17.7525C16.7481 17.5742 16.6036 17.4297 16.4253 17.4297C16.2471 17.4297 16.1025 17.5742 16.1025 17.7525C16.1025 17.9307 16.2471 18.0752 16.4253 18.0752Z" fill="white"/>
<path d="M20.9429 18.0752C21.1212 18.0752 21.2657 17.9307 21.2657 17.7525C21.2657 17.5742 21.1212 17.4297 20.9429 17.4297C20.7646 17.4297 20.6201 17.5742 20.6201 17.7525C20.6201 17.9307 20.7646 18.0752 20.9429 18.0752Z" fill="white"/>
<path d="M28.0441 22.5898H24.4935C24.0732 22.5898 23.7182 22.8607 23.5845 23.2354H21.9687C21.7941 23.2354 21.6537 23.3745 21.6479 23.5479L18.9549 22.9368C18.7606 22.8929 18.5588 22.9081 18.3732 22.982L15.8459 23.9846C15.5195 24.114 15.2804 24.3768 15.1819 24.6944L10.2463 23.2467C9.94543 23.1592 9.62975 23.2151 9.38056 23.4016C9.1388 23.583 9 23.8581 9 24.1566V24.8567C9 25.1769 9.16268 25.4732 9.43479 25.6492L13.0206 27.9696C13.0522 27.99 13.0874 28.0048 13.1242 28.0132L18.463 29.2324C18.5353 29.2491 18.6095 29.2572 18.6834 29.2572C18.7577 29.2572 18.8316 29.2491 18.9039 29.2324L21.7137 28.5878C21.7721 28.6675 21.8622 28.7227 21.969 28.7227H23.5849C23.7185 29.0974 24.0736 29.3682 24.4938 29.3682H28.0444C28.2229 29.3682 28.3672 29.224 28.3672 29.0455V22.9126C28.3669 22.7341 28.2226 22.5898 28.0441 22.5898ZM21.5681 27.959L18.7593 28.6033C18.7099 28.6149 18.6573 28.6149 18.6073 28.6033L13.3237 27.3967L9.78533 25.1069C9.69785 25.0501 9.64556 24.9568 9.64556 24.8564V24.1563C9.64556 24.0285 9.72174 23.9526 9.76725 23.9187C9.85246 23.8551 9.96027 23.8351 10.0642 23.8664L15.189 25.3716C15.3394 25.8164 15.7697 26.1404 16.2755 26.1404H18.6834C18.8616 26.1404 19.0062 25.9962 19.0062 25.8177C19.0062 25.6392 18.8616 25.4949 18.6834 25.4949H16.2755C16.0014 25.4949 15.7784 25.2828 15.7784 25.0236C15.7784 24.8319 15.8985 24.6598 16.0844 24.5859L18.6118 23.5827C18.6757 23.5572 18.7454 23.5517 18.8125 23.5669L21.5872 24.1963L21.5681 27.959ZM23.5251 28.0771H22.234V23.881H23.5251V28.0771ZM27.7213 28.7227H24.4935C24.3153 28.7227 24.1707 28.5781 24.1707 28.3999V23.5582C24.1707 23.38 24.3153 23.2354 24.4935 23.2354H27.7213V28.7227Z" fill="white"/>
<path d="M26.4864 27.4258H25.5181C25.3396 27.4258 25.1953 27.5701 25.1953 27.7486C25.1953 27.9271 25.3396 28.0713 25.5181 28.0713H26.4864C26.6649 28.0713 26.8092 27.9271 26.8092 27.7486C26.8092 27.5701 26.6649 27.4258 26.4864 27.4258Z" fill="white"/>
</g>
<defs>
<filter id="filter0_f_5265_3121" x="7.96767" y="21.5429" width="41.9299" height="19.094" filterUnits="userSpaceOnUse" color-interpolation-filters="sRGB">
<feFlood flood-opacity="0" result="BackgroundImageFix"/>
<feBlend mode="normal" in="SourceGraphic" in2="BackgroundImageFix" result="shape"/>
<feGaussianBlur stdDeviation="0.69927" result="effect1_foregroundBlur_5265_3121"/>
</filter>
<filter id="filter1_f_5265_3121" x="5.46179" y="22.3544" width="40.2424" height="22.8421" filterUnits="userSpaceOnUse" color-interpolation-filters="sRGB">
<feFlood flood-opacity="0" result="BackgroundImageFix"/>
<feBlend mode="normal" in="SourceGraphic" in2="BackgroundImageFix" result="shape"/>
<feGaussianBlur stdDeviation="3.08844" result="effect1_foregroundBlur_5265_3121"/>
</filter>
<filter id="filter2_f_5265_3121" x="-17.9475" y="-18.6555" width="57.0483" height="56.0571" filterUnits="userSpaceOnUse" color-interpolation-filters="sRGB">
<feFlood flood-opacity="0" result="BackgroundImageFix"/>
<feBlend mode="normal" in="SourceGraphic" in2="BackgroundImageFix" result="shape"/>
<feGaussianBlur stdDeviation="6.08948" result="effect1_foregroundBlur_5265_3121"/>
</filter>
<filter id="filter3_f_5265_3121" x="2.15601" y="5.76245" width="57.0483" height="56.0571" filterUnits="userSpaceOnUse" color-interpolation-filters="sRGB">
<feFlood flood-opacity="0" result="BackgroundImageFix"/>
<feBlend mode="normal" in="SourceGraphic" in2="BackgroundImageFix" result="shape"/>
<feGaussianBlur stdDeviation="6.08948" result="effect1_foregroundBlur_5265_3121"/>
</filter>
<filter id="filter4_f_5265_3121" x="12.5561" y="18.6957" width="29.0157" height="24.3429" filterUnits="userSpaceOnUse" color-interpolation-filters="sRGB">
<feFlood flood-opacity="0" result="BackgroundImageFix"/>
<feBlend mode="normal" in="SourceGraphic" in2="BackgroundImageFix" result="shape"/>
<feGaussianBlur stdDeviation="1.45681" result="effect1_foregroundBlur_5265_3121"/>
</filter>
<filter id="filter5_f_5265_3121" x="4.38416" y="2.10682" width="12.4436" height="12.4426" filterUnits="userSpaceOnUse" color-interpolation-filters="sRGB">
<feFlood flood-opacity="0" result="BackgroundImageFix"/>
<feBlend mode="normal" in="SourceGraphic" in2="BackgroundImageFix" result="shape"/>
<feGaussianBlur stdDeviation="1.89386" result="effect1_foregroundBlur_5265_3121"/>
</filter>
<filter id="filter6_f_5265_3121" x="9.0882" y="6.80988" width="3.03454" height="3.03259" filterUnits="userSpaceOnUse" color-interpolation-filters="sRGB">
<feFlood flood-opacity="0" result="BackgroundImageFix"/>
<feBlend mode="normal" in="SourceGraphic" in2="BackgroundImageFix" result="shape"/>
<feGaussianBlur stdDeviation="0.116545" result="effect1_foregroundBlur_5265_3121"/>
</filter>
<filter id="filter7_f_5265_3121" x="1.89798" y="1.63626" width="40.2822" height="42.1767" filterUnits="userSpaceOnUse" color-interpolation-filters="sRGB">
<feFlood flood-opacity="0" result="BackgroundImageFix"/>
<feBlend mode="normal" in="SourceGraphic" in2="BackgroundImageFix" result="shape"/>
<feGaussianBlur stdDeviation="3.14672" result="effect1_foregroundBlur_5265_3121"/>
</filter>
<filter id="filter8_f_5265_3121" x="-4.48727" y="-5.25191" width="36.0693" height="40.9218" filterUnits="userSpaceOnUse" color-interpolation-filters="sRGB">
<feFlood flood-opacity="0" result="BackgroundImageFix"/>
<feBlend mode="normal" in="SourceGraphic" in2="BackgroundImageFix" result="shape"/>
<feGaussianBlur stdDeviation="1.95213" result="effect1_foregroundBlur_5265_3121"/>
</filter>
<filter id="filter9_f_5265_3121" x="28.1094" y="1.9746" width="15.5215" height="34.7188" filterUnits="userSpaceOnUse" color-interpolation-filters="sRGB">
<feFlood flood-opacity="0" result="BackgroundImageFix"/>
<feBlend mode="normal" in="SourceGraphic" in2="BackgroundImageFix" result="shape"/>
<feGaussianBlur stdDeviation="2.30176" result="effect1_foregroundBlur_5265_3121"/>
</filter>
<radialGradient id="paint0_radial_5265_3121" cx="0" cy="0" r="1" gradientUnits="userSpaceOnUse" gradientTransform="translate(18.2577 34.5467) rotate(-11.8288) scale(27.8342 85.8467)">
<stop stop-color="#093041"/>
<stop offset="1" stop-color="#4E6A76" stop-opacity="0"/>
</radialGradient>
<radialGradient id="paint1_radial_5265_3121" cx="0" cy="0" r="1" gradientUnits="userSpaceOnUse" gradientTransform="translate(17.2133 36.3157) rotate(-8.58869) scale(18.0524 54.6236)">
<stop stop-color="#000D12"/>
<stop offset="1" stop-color="#082430" stop-opacity="0"/>
</radialGradient>
<radialGradient id="paint2_radial_5265_3121" cx="0" cy="0" r="1" gradientUnits="userSpaceOnUse" gradientTransform="translate(18.0947 36.2463) rotate(-8.40541) scale(20.6654 64.9821)">
<stop stop-color="#228B22"/>
<stop offset="0.0001" stop-color="#082430" stop-opacity="0"/>
<stop offset="1" stop-color="#4AC63F" stop-opacity="0.81"/>
</radialGradient>
<radialGradient id="paint3_radial_5265_3121" cx="0" cy="0" r="1" gradientUnits="userSpaceOnUse" gradientTransform="translate(10.693 8.87869) rotate(49.1614) scale(36.6247 37.882)">
<stop stop-color="#B9EBFF"/>
<stop offset="0.156338" stop-color="#7DCCED"/>
<stop offset="0.519012" stop-color="#4290AF"/>
<stop offset="0.710329" stop-color="#156282"/>
<stop offset="1" stop-color="#1B7398"/>
</radialGradient>
<radialGradient id="paint4_radial_5265_3121" cx="0" cy="0" r="1" gradientUnits="userSpaceOnUse" gradientTransform="translate(10.693 8.87869) rotate(49.1614) scale(36.6247 37.882)">
<stop stop-color="#D8FFB9"/>
<stop offset="0.156338" stop-color="#A1FD92"/>
<stop offset="0.519012" stop-color="#4AC63F"/>
<stop offset="0.710329" stop-color="#4AC63F"/>
<stop offset="1" stop-color="#228B22"/>
</radialGradient>
<clipPath id="clip0_5265_3121">
<rect width="19.3672" height="19.3672" fill="white" transform="translate(9 10)"/>
</clipPath>
</defs>
</svg>
